<?xml version="1.0" standalone="no"?>
 <!DOCTYPE svg PUBLIC "-//W3C//DTD SVG 1.1//EN" 
 "http://www.w3.org/Graphics/SVG/1.1/DTD/svg11.dtd"> 
<svg
  xmlns:svg="http://www.w3.org/2000/svg"
  xmlns="http://www.w3.org/2000/svg"
  xmlns:xlink="http://www.w3.org/1999/xlink"
  version="1.1"
  width="29.700220cm" height="21.000720cm" viewBox="0 0 116930 82680">
<title>SVG Picture created as CarteRecepteur-Cmts_User.svg date 2021/10/11 11:15:25 </title>
  <desc>Picture generated by PCBNEW </desc>
<g style="fill:#000000; fill-opacity:1;stroke:#000000; stroke-opacity:1;
stroke-linecap:round; stroke-linejoin:round;"
 transform="translate(0 0) scale(1 1)">
</g>
<g style="fill:#000000; fill-opacity:0.0; 
stroke:#000000; stroke-width:-0.000393701; stroke-opacity:1; 
stroke-linecap:round; stroke-linejoin:round;">
</g>
<g style="fill:#000000; fill-opacity:0.0; 
stroke:#000000; stroke-width:118.11; stroke-opacity:1; 
stroke-linecap:round; stroke-linejoin:round;">
<text x="42519.7" y="36909.4"
textLength="1595.33" font-size="787.402" lengthAdjust="spacingAndGlyphs"
text-anchor="middle" opacity="0">Top</text>
<path d="M41816 36290
L42154 36290
" />
<path d="M41985 36881
L41985 36290
" />
<path d="M42435 36881
L42379 36853
L42350 36825
L42322 36768
L42322 36600
L42350 36543
L42379 36515
L42435 36487
L42519 36487
L42575 36515
L42604 36543
L42632 36600
L42632 36768
L42604 36825
L42575 36853
L42519 36881
L42435 36881
" />
<path d="M42885 36487
L42885 37078
" />
<path d="M42885 36515
L42941 36487
L43053 36487
L43110 36515
L43138 36543
L43166 36600
L43166 36768
L43138 36825
L43110 36853
L43053 36881
L42941 36881
L42885 36853
" />
<text x="52362.2" y="18799.2"
textLength="5215.41" font-size="787.402" lengthAdjust="spacingAndGlyphs"
text-anchor="middle" opacity="0">Ares ENSEA</text>
<path d="M49943 18602
L50224 18602
" />
<path d="M49887 18771
L50084 18180
L50281 18771
" />
<path d="M50478 18771
L50478 18377
" />
<path d="M50478 18489
L50506 18433
L50534 18405
L50590 18377
L50646 18377
" />
<path d="M51068 18742
L51012 18771
L50899 18771
L50843 18742
L50815 18686
L50815 18461
L50843 18405
L50899 18377
L51012 18377
L51068 18405
L51096 18461
L51096 18517
L50815 18574
" />
<path d="M51321 18742
L51377 18771
L51490 18771
L51546 18742
L51574 18686
L51574 18658
L51546 18602
L51490 18574
L51406 18574
L51349 18546
L51321 18489
L51321 18461
L51349 18405
L51406 18377
L51490 18377
L51546 18405
" />
<path d="M52277 18461
L52474 18461
" />
<path d="M52559 18771
L52277 18771
L52277 18180
L52559 18180
" />
<path d="M52812 18771
L52812 18180
L53149 18771
L53149 18180
" />
<path d="M53402 18742
L53487 18771
L53627 18771
L53683 18742
L53712 18714
L53740 18658
L53740 18602
L53712 18546
L53683 18517
L53627 18489
L53515 18461
L53458 18433
L53430 18405
L53402 18349
L53402 18293
L53430 18236
L53458 18208
L53515 18180
L53655 18180
L53740 18208
" />
<path d="M53993 18461
L54190 18461
" />
<path d="M54274 18771
L53993 18771
L53993 18180
L54274 18180
" />
<path d="M54499 18602
L54780 18602
" />
<path d="M54443 18771
L54640 18180
L54836 18771
" />
<text x="46063" y="18799.2"
textLength="4540.49" font-size="787.402" lengthAdjust="spacingAndGlyphs"
text-anchor="middle" opacity="0">Recepteur</text>
<path d="M44347 18771
L44150 18489
" />
<path d="M44010 18771
L44010 18180
L44235 18180
L44291 18208
L44319 18236
L44347 18293
L44347 18377
L44319 18433
L44291 18461
L44235 18489
L44010 18489
" />
<path d="M44825 18742
L44769 18771
L44656 18771
L44600 18742
L44572 18686
L44572 18461
L44600 18405
L44656 18377
L44769 18377
L44825 18405
L44853 18461
L44853 18517
L44572 18574
" />
<path d="M45359 18742
L45303 18771
L45191 18771
L45134 18742
L45106 18714
L45078 18658
L45078 18489
L45106 18433
L45134 18405
L45191 18377
L45303 18377
L45359 18405
" />
<path d="M45838 18742
L45781 18771
L45669 18771
L45613 18742
L45584 18686
L45584 18461
L45613 18405
L45669 18377
L45781 18377
L45838 18405
L45866 18461
L45866 18517
L45584 18574
" />
<path d="M46119 18377
L46119 18967
" />
<path d="M46119 18405
L46175 18377
L46287 18377
L46344 18405
L46372 18433
L46400 18489
L46400 18658
L46372 18714
L46344 18742
L46287 18771
L46175 18771
L46119 18742
" />
<path d="M46569 18377
L46794 18377
" />
<path d="M46653 18180
L46653 18686
L46681 18742
L46737 18771
L46794 18771
" />
<path d="M47215 18742
L47159 18771
L47047 18771
L46991 18742
L46962 18686
L46962 18461
L46991 18405
L47047 18377
L47159 18377
L47215 18405
L47244 18461
L47244 18517
L46962 18574
" />
<path d="M47750 18377
L47750 18771
" />
<path d="M47497 18377
L47497 18686
L47525 18742
L47581 18771
L47665 18771
L47722 18742
L47750 18714
" />
<path d="M48031 18771
L48031 18377
" />
<path d="M48031 18489
L48059 18433
L48087 18405
L48143 18377
L48200 18377
" />
</g>
<g style="fill:#000000; fill-opacity:0.0; 
stroke:#000000; stroke-width:59.0551; stroke-opacity:1; 
stroke-linecap:round; stroke-linejoin:round;">
<circle cx="54330.7" cy="36220.5" r="688.976" /> 
<circle cx="42519.7" cy="18897.6" r="688.976" /> 
<g >
</g>
<g >
</g>
<g >
</g>
<g >
</g>
<g >
</g>
<g >
</g>
</g> 
</svg>
