<?xml version="1.0" standalone="no"?>
 <!DOCTYPE svg PUBLIC "-//W3C//DTD SVG 1.1//EN" 
 "http://www.w3.org/Graphics/SVG/1.1/DTD/svg11.dtd"> 
<svg
  xmlns:svg="http://www.w3.org/2000/svg"
  xmlns="http://www.w3.org/2000/svg"
  xmlns:xlink="http://www.w3.org/1999/xlink"
  version="1.1"
  width="29.700220cm" height="21.000720cm" viewBox="0 0 116930 82680">
<title>SVG Picture created as CarteRecepteur-F_Cu.svg date 2021/10/11 11:15:25 </title>
  <desc>Picture generated by PCBNEW </desc>
<g style="fill:#000000; fill-opacity:1;stroke:#000000; stroke-opacity:1;
stroke-linecap:round; stroke-linejoin:round;"
 transform="translate(0 0) scale(1 1)">
</g>
<g style="fill:#000000; fill-opacity:0.0; 
stroke:#000000; stroke-width:-0.000393701; stroke-opacity:1; 
stroke-linecap:round; stroke-linejoin:round;">
<g >
</g>
<g style="fill:#000000; fill-opacity:1.0; 
stroke:#000000; stroke-width:0; stroke-opacity:1; 
stroke-linecap:round; stroke-linejoin:round;">
<circle cx="54330.7" cy="36220.5" r="688.976" /> 
</g>
<g style="fill:#000000; fill-opacity:1.0; 
stroke:#000000; stroke-width:39.3701; stroke-opacity:1; 
stroke-linecap:round; stroke-linejoin:round;">
</g>
<g >
</g>
<g style="fill:#000000; fill-opacity:1.0; 
stroke:#000000; stroke-width:39.3701; stroke-opacity:1; 
stroke-linecap:round; stroke-linejoin:round;">
</g>
<g style="fill:#000000; fill-opacity:1.0; 
stroke:#000000; stroke-width:0; stroke-opacity:1; 
stroke-linecap:round; stroke-linejoin:round;">
<circle cx="42519.7" cy="18897.6" r="688.976" /> 
</g>
<g style="fill:#000000; fill-opacity:1.0; 
stroke:#000000; stroke-width:39.3701; stroke-opacity:1; 
stroke-linecap:round; stroke-linejoin:round;">
</g>
<g >
</g>
<g style="fill:#000000; fill-opacity:1.0; 
stroke:#000000; stroke-width:39.3701; stroke-opacity:1; 
stroke-linecap:round; stroke-linejoin:round;">
</g>
<g style="fill:#000000; fill-opacity:1.0; 
stroke:#000000; stroke-width:0; stroke-opacity:1; 
stroke-linecap:round; stroke-linejoin:round;">
<circle cx="50196.9" cy="34803.1" r="314.961" /> 
<circle cx="44196.9" cy="34803.1" r="314.961" /> 
<circle cx="50196.9" cy="20803.1" r="314.961" /> 
<circle cx="44196.9" cy="33803.1" r="314.961" /> 
<circle cx="50196.9" cy="21803.1" r="314.961" /> 
<circle cx="44196.9" cy="32803.1" r="314.961" /> 
<circle cx="50196.9" cy="22803.1" r="314.961" /> 
<circle cx="44196.9" cy="31803.1" r="314.961" /> 
<circle cx="50196.9" cy="23803.1" r="314.961" /> 
<circle cx="44196.9" cy="30803.1" r="314.961" /> 
<circle cx="50196.9" cy="24803.1" r="314.961" /> 
<circle cx="44196.9" cy="29803.1" r="314.961" /> 
<circle cx="50196.9" cy="25803.1" r="314.961" /> 
<circle cx="44196.9" cy="28803.1" r="314.961" /> 
<circle cx="50196.9" cy="26803.1" r="314.961" /> 
<circle cx="44196.9" cy="27803.1" r="314.961" /> 
<circle cx="50196.9" cy="27803.1" r="314.961" /> 
<circle cx="44196.9" cy="26803.1" r="314.961" /> 
<circle cx="50196.9" cy="28803.1" r="314.961" /> 
<circle cx="44196.9" cy="25803.1" r="314.961" /> 
<circle cx="50196.9" cy="29803.1" r="314.961" /> 
<circle cx="44196.9" cy="24803.1" r="314.961" /> 
<circle cx="50196.9" cy="30803.1" r="314.961" /> 
<circle cx="44196.9" cy="23803.1" r="314.961" /> 
<circle cx="50196.9" cy="31803.1" r="314.961" /> 
<circle cx="44196.9" cy="22803.1" r="314.961" /> 
<circle cx="50196.9" cy="32803.1" r="314.961" /> 
<circle cx="44196.9" cy="21803.1" r="314.961" /> 
<circle cx="50196.9" cy="33803.1" r="314.961" /> 
<path style="fill:#000000; fill-opacity:1.0; 
stroke:#000000; stroke-width:0; stroke-opacity:1; 
stroke-linecap:round; stroke-linejoin:round;fill-rule:evenodd;"
d="M 43881.9,21118.1
43881.9,20488.2
44511.8,20488.2
44511.8,21118.1
Z" /> 
</g>
<g >
</g>
<g style="fill:#000000; fill-opacity:1.0; 
stroke:#000000; stroke-width:0; stroke-opacity:1; 
stroke-linecap:round; stroke-linejoin:round;">
<circle cx="53543.3" cy="24212.6" r="314.961" /> 
</g>
<g style="fill:#000000; fill-opacity:1.0; 
stroke:#000000; stroke-width:39.3701; stroke-opacity:1; 
stroke-linecap:round; stroke-linejoin:round;">
</g>
<g style="fill:#000000; fill-opacity:1.0; 
stroke:#000000; stroke-width:0; stroke-opacity:1; 
stroke-linecap:round; stroke-linejoin:round;">
<path style="fill:#000000; fill-opacity:1.0; 
stroke:#000000; stroke-width:0; stroke-opacity:1; 
stroke-linecap:round; stroke-linejoin:round;fill-rule:evenodd;"
d="M 53858.3,25511.8
53228.3,25511.8
53228.3,24881.9
53858.3,24881.9
Z" /> 
</g>
<g >
</g>
<g style="fill:#000000; fill-opacity:1.0; 
stroke:#000000; stroke-width:0; stroke-opacity:1; 
stroke-linecap:round; stroke-linejoin:round;">
<circle cx="53755.9" cy="30165.4" r="334.646" /> 
<circle cx="52755.9" cy="30165.4" r="334.646" /> 
<circle cx="53755.9" cy="29165.4" r="334.646" /> 
<circle cx="52755.9" cy="29165.4" r="334.646" /> 
<circle cx="53755.9" cy="28165.4" r="334.646" /> 
<circle cx="52755.9" cy="28165.4" r="334.646" /> 
<circle cx="53755.9" cy="27165.4" r="334.646" /> 
<path style="fill:#000000; fill-opacity:1.0; 
stroke:#000000; stroke-width:0; stroke-opacity:1; 
stroke-linecap:round; stroke-linejoin:round;fill-rule:evenodd;"
d="M 52421.3,27500
52421.3,26830.7
53090.6,26830.7
53090.6,27500
Z" /> 
</g>
<g >
</g>
<g >
</g>
<g style="fill:#000000; fill-opacity:1.0; 
stroke:#000000; stroke-width:0; stroke-opacity:1; 
stroke-linecap:round; stroke-linejoin:round;">
</g>
<g style="fill:#000000; fill-opacity:1.0; 
stroke:#000000; stroke-width:196.85; stroke-opacity:1; 
stroke-linecap:round; stroke-linejoin:round;">
</g>
<g style="fill:#000000; fill-opacity:0.0; 
stroke:#000000; stroke-width:196.85; stroke-opacity:1; 
stroke-linecap:round; stroke-linejoin:round;">
<path d="M53755 25409
L53543 25196
" />
<path d="M53755 27165
L53755 25409
" />
<path d="M50196 33803
L49551 33803
" />
<path d="M49551 33803
L48818 33070
" />
<path d="M48818 33070
L48818 20472
" />
<path d="M48818 20472
L49212 20078
" />
<path d="M49212 20078
L51574 20078
" />
<path d="M51574 20078
L51968 20472
" />
<path d="M51968 20472
L51968 24803
" />
<path d="M52362 25196
L53543 25196
" />
<path d="M51968 24803
L52362 25196
" />
<path d="M50196 34803
L51023 34803
" />
<path d="M51023 34803
L51574 34251
" />
<path d="M51574 34251
L51574 29527
" />
<path d="M51937 29165
L52755 29165
" />
<path d="M51574 29527
L51937 29165
" />
<path d="M44196 34803
L45220 35826
" />
<path d="M45220 35826
L51574 35826
" />
<path d="M52755 34645
L52755 30165
" />
<path d="M51574 35826
L52755 34645
" />
<path d="M44196 33803
L43362 33803
" />
<path d="M43362 33803
L42913 34251
" />
<path d="M42913 34251
L42913 35433
" />
<path d="M42913 35433
L44094 36614
" />
<path d="M44094 36614
L51574 36614
" />
<path d="M51574 36614
L54724 33464
" />
<path d="M54724 33464
L54724 29527
" />
<path d="M54362 29165
L53755 29165
" />
<path d="M54724 29527
L54362 29165
" />
<path d="M43433 32803
L44196 32803
" />
<path d="M42913 20078
L42913 32283
" />
<path d="M43700 19291
L42913 20078
" />
<path d="M53149 19291
L43700 19291
" />
<path d="M54724 20866
L53149 19291
" />
<path d="M42913 32283
L43433 32803
" />
<path d="M54724 27952
L54724 20866
" />
<path d="M54511 28165
L54724 27952
" />
<path d="M53755 28165
L54511 28165
" />
<path d="M50196 27803
L51031 27803
" />
<path d="M51393 28165
L52755 28165
" />
<path d="M51031 27803
L51393 28165
" />
</g>
<g >
</g>
<g style="fill:#000000; fill-opacity:0.0; 
stroke:#000000; stroke-width:196.85; stroke-opacity:1; 
stroke-linecap:round; stroke-linejoin:round;">
<g >
</g>
<g style="fill:#000000; fill-opacity:1.0; 
stroke:#000000; stroke-width:100; stroke-opacity:1; 
stroke-linecap:round; stroke-linejoin:round;">
<path style="fill:#000000; fill-opacity:1.0; 
stroke:#000000; stroke-width:100; stroke-opacity:1; 
stroke-linecap:round; stroke-linejoin:round;fill-rule:evenodd;"
d="M 54376,21010.5
54376,27808.4
54367.5,27816.9
54226.2,27816.9
54210,27792.7
54128.6,27711.2
54059.9,27665.4
54128.6,27619.5
54210,27538
54274,27442.3
54318.1,27335.9
54340.6,27222.9
54340.6,27107.8
54318.1,26994.8
54274,26888.4
54210,26792.7
54128.6,26711.2
54104.3,26695
54104.3,25561.9
54104.7,25560.8
54109.5,25511.8
54109.5,24881.9
54104.7,24832.9
54090.4,24785.8
54067.1,24742.3
54035.9,24704.3
53997.8,24673
53954.4,24649.8
53907.3,24635.5
53858.3,24630.7
53855.4,24630.7
53863.4,24603.4
53543.3,24283.3
53223.2,24603.4
53231.2,24630.7
53228.3,24630.7
53179.3,24635.5
53132.2,24649.8
53088.8,24673
53050.7,24704.3
53019.5,24742.3
52996.3,24785.8
52982,24832.9
52980.4,24848.4
52506.5,24848.4
52316.9,24658.8
52316.9,24240.4
52976.3,24240.4
52992.6,24350.4
53030.1,24455.2
53056.4,24504.5
53152.5,24532.7
53472.6,24212.6
53614,24212.6
53934.1,24532.7
54030.2,24504.5
54077.8,24403.9
54104.8,24296
54110.3,24184.8
54094,24074.8
54056.5,23970
54030.2,23920.7
53934.1,23892.5
53614,24212.6
53472.6,24212.6
53152.5,23892.5
53056.4,23920.7
53008.8,24021.3
52981.8,24129.2
52976.3,24240.4
52316.9,24240.4
52316.9,23821.8
53223.2,23821.8
53543.3,24141.9
53863.4,23821.8
53835.2,23725.7
53734.6,23678.1
53626.7,23651.1
53515.5,23645.6
53405.5,23661.9
53300.7,23699.4
53251.4,23725.7
53223.2,23821.8
52316.9,23821.8
52316.9,20489.6
52318.6,20472.4
52316.9,20455.3
52316.9,20455.3
52311.9,20404.1
52308.2,20392.1
52292,20338.5
52259.6,20277.9
52227,20238.2
52227,20238.2
52216.1,20224.9
52202.8,20214
51833.3,19844.5
51822.4,19831.2
51769.3,19787.6
51708.8,19755.3
51643.1,19735.4
51591.9,19730.3
51591.9,19730.3
51574.8,19728.6
51557.7,19730.3
49229.7,19730.3
49212.6,19728.6
49195.5,19730.3
49195.5,19730.3
49144.3,19735.4
49078.6,19755.3
49018.1,19787.6
48978.3,19820.3
48978.3,19820.3
48965,19831.2
48954.1,19844.5
48584.6,20214
48571.3,20224.9
48560.4,20238.2
48560.4,20238.2
48527.8,20277.9
48495.4,20338.5
48475.5,20404.1
48468.8,20472.4
48470.5,20489.6
48470.5,33053.8
48468.8,33070.9
48470.5,33088
48470.5,33088
48473.1,33114.5
48475.5,33139.2
48481.6,33159.1
48495.4,33204.8
48527.8,33265.4
48571.3,33318.4
48584.6,33329.3
49292.7,34037.4
49303.6,34050.7
49316.9,34061.6
49316.9,34061.6
49328,34070.8
49356.7,34094.3
49417.2,34126.6
49482.9,34146.5
49534.1,34151.6
49534.1,34151.6
49551.2,34153.3
49568.3,34151.6
49750.2,34151.6
49758,34163.3
49836.7,34242
49928.3,34303.1
49836.7,34364.3
49758,34443
49696.2,34535.5
49653.6,34638.4
49631.9,34747.5
49631.9,34858.8
49653.6,34967.9
49696.2,35070.8
49758,35163.3
49836.7,35242
49929.2,35303.8
50032.1,35346.4
50141.2,35368.1
50252.5,35368.1
50361.6,35346.4
50464.5,35303.8
50557,35242
50635.7,35163.3
50643.5,35151.6
51006.5,35151.6
51023.6,35153.3
51040.7,35151.6
51040.7,35151.6
51091.9,35146.5
51157.6,35126.6
51218.1,35094.3
51271.2,35050.7
51282.1,35037.4
51809.1,34510.4
51822.4,34499.5
51838.7,34479.7
51865.9,34446.5
51865.9,34446.5
51898.3,34385.9
51918.2,34320.3
51923.2,34269.1
51923.2,34269.1
51924.9,34252
51923.2,34234.9
51923.2,29671.9
52081.3,29513.8
52285.6,29513.8
52301.8,29538
52383.2,29619.5
52451.9,29665.4
52383.2,29711.2
52301.8,29792.7
52237.8,29888.4
52193.7,29994.8
52171.3,30107.8
52171.3,30222.9
52193.7,30335.9
52237.8,30442.3
52301.8,30538
52383.2,30619.5
52407.5,30635.7
52407.5,34501.3
51430.5,35478.3
45364.8,35478.3
44759.1,34872.6
44761.8,34858.8
44761.8,34747.5
44740.1,34638.4
44697.5,34535.5
44635.7,34443
44557,34364.3
44465.4,34303.1
44557,34242
44635.7,34163.3
44697.5,34070.8
44740.1,33967.9
44761.8,33858.8
44761.8,33747.5
44740.1,33638.4
44697.5,33535.5
44635.7,33443
44557,33364.3
44465.4,33303.1
44557,33242
44635.7,33163.3
44697.5,33070.8
44740.1,32967.9
44761.8,32858.8
44761.8,32747.5
44740.1,32638.4
44697.5,32535.5
44635.7,32443
44557,32364.3
44465.4,32303.1
44557,32242
44635.7,32163.3
44697.5,32070.8
44740.1,31967.9
44761.8,31858.8
44761.8,31747.5
44740.1,31638.4
44697.5,31535.5
44635.7,31443
44557,31364.3
44465.4,31303.1
44557,31242
44635.7,31163.3
44697.5,31070.8
44740.1,30967.9
44761.8,30858.8
44761.8,30747.5
44740.1,30638.4
44697.5,30535.5
44635.7,30443
44557,30364.3
44465.4,30303.1
44557,30242
44635.7,30163.3
44697.5,30070.8
44740.1,29967.9
44761.8,29858.8
44761.8,29747.5
44740.1,29638.4
44697.5,29535.5
44635.7,29443
44557,29364.3
44465.4,29303.1
44557,29242
44635.7,29163.3
44697.5,29070.8
44740.1,28967.9
44761.8,28858.8
44761.8,28747.5
44740.1,28638.4
44697.5,28535.5
44635.7,28443
44557,28364.3
44465.4,28303.1
44557,28242
44635.7,28163.3
44697.5,28070.8
44740.1,27967.9
44761.8,27858.8
44761.8,27747.5
44740.1,27638.4
44697.5,27535.5
44635.7,27443
44557,27364.3
44465.4,27303.1
44557,27242
44635.7,27163.3
44697.5,27070.8
44740.1,26967.9
44761.8,26858.8
44761.8,26747.5
44740.1,26638.4
44697.5,26535.5
44635.7,26443
44557,26364.3
44465.4,26303.1
44557,26242
44635.7,26163.3
44697.5,26070.8
44740.1,25967.9
44761.8,25858.8
44761.8,25747.5
44740.1,25638.4
44697.5,25535.5
44635.7,25443
44557,25364.3
44465.4,25303.1
44557,25242
44635.7,25163.3
44697.5,25070.8
44740.1,24967.9
44761.8,24858.8
44761.8,24747.5
44740.1,24638.4
44697.5,24535.5
44635.7,24443
44557,24364.3
44464.5,24302.5
44460.3,24300.8
44533.5,24256.8
44615.6,24182.4
44681.5,24093.5
44728.8,23993.3
44744.8,23940.6
44696.8,23853.1
44246.9,23853.1
44246.9,23861
44146.9,23861
44146.9,23853.1
43696.9,23853.1
43648.9,23940.6
43664.9,23993.3
43712.2,24093.5
43778.1,24182.4
43860.2,24256.8
43933.4,24300.8
43929.2,24302.5
43836.7,24364.3
43758,24443
43696.2,24535.5
43653.6,24638.4
43631.9,24747.5
43631.9,24858.8
43653.6,24967.9
43696.2,25070.8
43758,25163.3
43836.7,25242
43928.3,25303.1
43836.7,25364.3
43758,25443
43696.2,25535.5
43653.6,25638.4
43631.9,25747.5
43631.9,25858.8
43653.6,25967.9
43696.2,26070.8
43758,26163.3
43836.7,26242
43928.3,26303.1
43836.7,26364.3
43758,26443
43696.2,26535.5
43653.6,26638.4
43631.9,26747.5
43631.9,26858.8
43653.6,26967.9
43696.2,27070.8
43758,27163.3
43836.7,27242
43928.3,27303.1
43836.7,27364.3
43758,27443
43696.2,27535.5
43653.6,27638.4
43631.9,27747.5
43631.9,27858.8
43653.6,27967.9
43696.2,28070.8
43758,28163.3
43836.7,28242
43928.3,28303.1
43836.7,28364.3
43758,28443
43696.2,28535.5
43653.6,28638.4
43631.9,28747.5
43631.9,28858.8
43653.6,28967.9
43696.2,29070.8
43758,29163.3
43836.7,29242
43928.3,29303.1
43836.7,29364.3
43758,29443
43696.2,29535.5
43653.6,29638.4
43631.9,29747.5
43631.9,29858.8
43653.6,29967.9
43696.2,30070.8
43758,30163.3
43836.7,30242
43928.3,30303.1
43836.7,30364.3
43758,30443
43696.2,30535.5
43653.6,30638.4
43631.9,30747.5
43631.9,30858.8
43653.6,30967.9
43696.2,31070.8
43758,31163.3
43836.7,31242
43928.3,31303.1
43836.7,31364.3
43758,31443
43696.2,31535.5
43653.6,31638.4
43631.9,31747.5
43631.9,31858.8
43653.6,31967.9
43696.2,32070.8
43758,32163.3
43836.7,32242
43928.3,32303.1
43836.7,32364.3
43758,32443
43750.2,32454.7
43577.4,32454.7
43261.8,32139.1
43261.8,20488.2
43630.7,20488.2
43630.7,21118.1
43635.5,21167.1
43649.8,21214.2
43673,21257.7
43704.3,21295.7
43742.3,21327
43785.8,21350.2
43832.9,21364.5
43836.2,21364.8
43758,21443
43696.2,21535.5
43653.6,21638.4
43631.9,21747.5
43631.9,21858.8
43653.6,21967.9
43696.2,22070.8
43758,22163.3
43836.7,22242
43928.3,22303.1
43836.7,22364.3
43758,22443
43696.2,22535.5
43653.6,22638.4
43631.9,22747.5
43631.9,22858.8
43653.6,22967.9
43696.2,23070.8
43758,23163.3
43836.7,23242
43929.2,23303.8
43933.4,23305.5
43860.2,23349.5
43778.1,23423.9
43712.2,23512.8
43664.9,23613
43648.9,23665.7
43696.9,23753.1
44146.9,23753.1
44146.9,23745.3
44246.9,23745.3
44246.9,23753.1
44696.8,23753.1
44744.8,23665.7
44728.8,23613
44681.5,23512.8
44615.6,23423.9
44533.5,23349.5
44460.3,23305.5
44464.5,23303.8
44557,23242
44635.7,23163.3
44697.5,23070.8
44740.1,22967.9
44761.8,22858.8
44761.8,22747.5
44740.1,22638.4
44697.5,22535.5
44635.7,22443
44557,22364.3
44465.4,22303.1
44557,22242
44635.7,22163.3
44697.5,22070.8
44740.1,21967.9
44761.8,21858.8
44761.8,21747.5
44740.1,21638.4
44697.5,21535.5
44635.7,21443
44557.5,21364.8
44560.8,21364.5
44607.9,21350.2
44651.4,21327
44689.4,21295.7
44720.7,21257.7
44743.9,21214.2
44758.2,21167.1
44763,21118.1
44763,20488.2
44758.2,20439.2
44743.9,20392.1
44720.7,20348.6
44689.4,20310.6
44651.4,20279.3
44607.9,20256.1
44560.8,20241.8
44511.8,20237
43881.9,20237
43832.9,20241.8
43785.8,20256.1
43742.3,20279.3
43704.3,20310.6
43673,20348.6
43649.8,20392.1
43635.5,20439.2
43630.7,20488.2
43261.8,20488.2
43261.8,20223.1
43845.1,19639.8
53005.3,19639.8
Z" /> 
<path style="fill:#000000; fill-opacity:1.0; 
stroke:#000000; stroke-width:100; stroke-opacity:1; 
stroke-linecap:round; stroke-linejoin:round;fill-rule:evenodd;"
d="M 49758,20443
49696.2,20535.5
49653.6,20638.4
49631.9,20747.5
49631.9,20858.8
49653.6,20967.9
49696.2,21070.8
49758,21163.3
49836.7,21242
49929.2,21303.8
49933.4,21305.5
49860.2,21349.5
49778.1,21423.9
49712.2,21512.8
49664.9,21613
49648.9,21665.7
49696.9,21753.1
50146.9,21753.1
50146.9,21745.3
50246.9,21745.3
50246.9,21753.1
50696.8,21753.1
50744.8,21665.7
50728.8,21613
50681.5,21512.8
50615.6,21423.9
50533.5,21349.5
50460.3,21305.5
50464.5,21303.8
50557,21242
50635.7,21163.3
50697.5,21070.8
50740.1,20967.9
50761.8,20858.8
50761.8,20747.5
50740.1,20638.4
50697.5,20535.5
50635.7,20443
50619.8,20427.2
51430.5,20427.2
51620.1,20616.8
51620.1,24786
51618.4,24803.1
51625.1,24871.5
51645,24937.1
51677.4,24997.7
51710,25037.4
51710,25037.4
51720.9,25050.7
51734.2,25061.6
52103.7,25431.1
52114.6,25444.4
52127.9,25455.3
52127.9,25455.3
52167.7,25488
52228.2,25520.3
52278.4,25535.5
52293.9,25540.2
52345.1,25545.3
52345.1,25545.3
52362.2,25547
52379.3,25545.3
52980.4,25545.3
52982,25560.8
52996.3,25607.9
53019.5,25651.4
53050.7,25689.4
53088.8,25720.7
53132.2,25743.9
53179.3,25758.2
53228.3,25763
53407.5,25763
53407.5,26695
53383.2,26711.2
53331.3,26763.1
53322.6,26734.6
53299.4,26691.1
53268.2,26653.1
53230.1,26621.8
53186.7,26598.6
53139.6,26584.3
53090.6,26579.5
52868.4,26580.7
52805.9,26643.2
52805.9,27115.4
52813.8,27115.4
52813.8,27215.4
52805.9,27215.4
52805.9,27223.2
52705.9,27223.2
52705.9,27215.4
52233.8,27215.4
52171.3,27277.9
52170.1,27500
52174.9,27549
52189.2,27596.1
52212.4,27639.6
52243.6,27677.6
52281.7,27708.9
52325.1,27732.1
52353.7,27740.8
52301.8,27792.7
52285.6,27816.9
51538,27816.9
51290,27568.9
51279.1,27555.6
51226,27512
51165.5,27479.7
51099.8,27459.8
51048.6,27454.7
51048.6,27454.7
51031.5,27453
51014.4,27454.7
50643.5,27454.7
50635.7,27443
50557,27364.3
50465.4,27303.1
50557,27242
50635.7,27163.3
50697.5,27070.8
50740.1,26967.9
50761.8,26858.8
50761.8,26830.7
52170.1,26830.7
52171.3,27052.9
52233.8,27115.4
52705.9,27115.4
52705.9,26643.2
52643.4,26580.7
52421.3,26579.5
52372.3,26584.3
52325.1,26598.6
52281.7,26621.8
52243.6,26653.1
52212.4,26691.1
52189.2,26734.6
52174.9,26781.7
52170.1,26830.7
50761.8,26830.7
50761.8,26747.5
50740.1,26638.4
50697.5,26535.5
50635.7,26443
50557,26364.3
50465.4,26303.1
50557,26242
50635.7,26163.3
50697.5,26070.8
50740.1,25967.9
50761.8,25858.8
50761.8,25747.5
50740.1,25638.4
50697.5,25535.5
50635.7,25443
50557,25364.3
50465.4,25303.1
50557,25242
50635.7,25163.3
50697.5,25070.8
50740.1,24967.9
50761.8,24858.8
50761.8,24747.5
50740.1,24638.4
50697.5,24535.5
50635.7,24443
50557,24364.3
50465.4,24303.1
50557,24242
50635.7,24163.3
50697.5,24070.8
50740.1,23967.9
50761.8,23858.8
50761.8,23747.5
50740.1,23638.4
50697.5,23535.5
50635.7,23443
50557,23364.3
50465.4,23303.1
50557,23242
50635.7,23163.3
50697.5,23070.8
50740.1,22967.9
50761.8,22858.8
50761.8,22747.5
50740.1,22638.4
50697.5,22535.5
50635.7,22443
50557,22364.3
50464.5,22302.5
50460.3,22300.8
50533.5,22256.8
50615.6,22182.4
50681.5,22093.5
50728.8,21993.3
50744.8,21940.6
50696.8,21853.1
50246.9,21853.1
50246.9,21861
50146.9,21861
50146.9,21853.1
49696.9,21853.1
49648.9,21940.6
49664.9,21993.3
49712.2,22093.5
49778.1,22182.4
49860.2,22256.8
49933.4,22300.8
49929.2,22302.5
49836.7,22364.3
49758,22443
49696.2,22535.5
49653.6,22638.4
49631.9,22747.5
49631.9,22858.8
49653.6,22967.9
49696.2,23070.8
49758,23163.3
49836.7,23242
49928.3,23303.1
49836.7,23364.3
49758,23443
49696.2,23535.5
49653.6,23638.4
49631.9,23747.5
49631.9,23858.8
49653.6,23967.9
49696.2,24070.8
49758,24163.3
49836.7,24242
49928.3,24303.1
49836.7,24364.3
49758,24443
49696.2,24535.5
49653.6,24638.4
49631.9,24747.5
49631.9,24858.8
49653.6,24967.9
49696.2,25070.8
49758,25163.3
49836.7,25242
49928.3,25303.1
49836.7,25364.3
49758,25443
49696.2,25535.5
49653.6,25638.4
49631.9,25747.5
49631.9,25858.8
49653.6,25967.9
49696.2,26070.8
49758,26163.3
49836.7,26242
49928.3,26303.1
49836.7,26364.3
49758,26443
49696.2,26535.5
49653.6,26638.4
49631.9,26747.5
49631.9,26858.8
49653.6,26967.9
49696.2,27070.8
49758,27163.3
49836.7,27242
49928.3,27303.1
49836.7,27364.3
49758,27443
49696.2,27535.5
49653.6,27638.4
49631.9,27747.5
49631.9,27858.8
49653.6,27967.9
49696.2,28070.8
49758,28163.3
49836.7,28242
49928.3,28303.1
49836.7,28364.3
49758,28443
49696.2,28535.5
49653.6,28638.4
49631.9,28747.5
49631.9,28858.8
49653.6,28967.9
49696.2,29070.8
49758,29163.3
49836.7,29242
49928.3,29303.1
49836.7,29364.3
49758,29443
49696.2,29535.5
49653.6,29638.4
49631.9,29747.5
49631.9,29858.8
49653.6,29967.9
49696.2,30070.8
49758,30163.3
49836.7,30242
49928.3,30303.1
49836.7,30364.3
49758,30443
49696.2,30535.5
49653.6,30638.4
49631.9,30747.5
49631.9,30858.8
49653.6,30967.9
49696.2,31070.8
49758,31163.3
49836.7,31242
49928.3,31303.1
49836.7,31364.3
49758,31443
49696.2,31535.5
49653.6,31638.4
49631.9,31747.5
49631.9,31858.8
49653.6,31967.9
49696.2,32070.8
49758,32163.3
49836.7,32242
49928.3,32303.1
49836.7,32364.3
49758,32443
49696.2,32535.5
49653.6,32638.4
49631.9,32747.5
49631.9,32858.8
49653.6,32967.9
49696.2,33070.8
49758,33163.3
49836.7,33242
49928.3,33303.1
49836.7,33364.3
49758,33443
49750.2,33454.7
49695.5,33454.7
49167.3,32926.5
49167.3,20616.8
49356.9,20427.2
49773.9,20427.2
Z" /> 
</g>
</g>
</g> 
</svg>
