%TF.GenerationSoftware,KiCad,Pcbnew,(5.1.10)-1*%
%TF.CreationDate,2021-09-13T09:28:10+02:00*%
%TF.ProjectId,CarteRecepteur,43617274-6552-4656-9365-70746575722e,rev?*%
%TF.SameCoordinates,Original*%
%TF.FileFunction,Soldermask,Bot*%
%TF.FilePolarity,Negative*%
%FSLAX46Y46*%
G04 Gerber Fmt 4.6, Leading zero omitted, Abs format (unit mm)*
G04 Created by KiCad (PCBNEW (5.1.10)-1) date 2021-09-13 09:28:10*
%MOMM*%
%LPD*%
G01*
G04 APERTURE LIST*
%ADD10C,3.500000*%
%ADD11O,1.600000X1.600000*%
%ADD12R,1.600000X1.600000*%
%ADD13C,1.600000*%
%ADD14O,1.700000X1.700000*%
%ADD15R,1.700000X1.700000*%
G04 APERTURE END LIST*
D10*
%TO.C,H2*%
X138000000Y-92000000D03*
%TD*%
%TO.C,H1*%
X108000000Y-48000000D03*
%TD*%
D11*
%TO.C,A1*%
X127500000Y-88400000D03*
X112260000Y-88400000D03*
X127500000Y-52840000D03*
X112260000Y-85860000D03*
X127500000Y-55380000D03*
X112260000Y-83320000D03*
X127500000Y-57920000D03*
X112260000Y-80780000D03*
X127500000Y-60460000D03*
X112260000Y-78240000D03*
X127500000Y-63000000D03*
X112260000Y-75700000D03*
X127500000Y-65540000D03*
X112260000Y-73160000D03*
X127500000Y-68080000D03*
X112260000Y-70620000D03*
X127500000Y-70620000D03*
X112260000Y-68080000D03*
X127500000Y-73160000D03*
X112260000Y-65540000D03*
X127500000Y-75700000D03*
X112260000Y-63000000D03*
X127500000Y-78240000D03*
X112260000Y-60460000D03*
X127500000Y-80780000D03*
X112260000Y-57920000D03*
X127500000Y-83320000D03*
X112260000Y-55380000D03*
X127500000Y-85860000D03*
D12*
X112260000Y-52840000D03*
%TD*%
D13*
%TO.C,C1*%
X136000000Y-61500000D03*
D12*
X136000000Y-64000000D03*
%TD*%
D14*
%TO.C,J1*%
X136540000Y-76620000D03*
X134000000Y-76620000D03*
X136540000Y-74080000D03*
X134000000Y-74080000D03*
X136540000Y-71540000D03*
X134000000Y-71540000D03*
X136540000Y-69000000D03*
D15*
X134000000Y-69000000D03*
%TD*%
M02*
