M48
; DRILL file {KiCad (5.1.10)-1} date 09/13/21 09:27:59
; FORMAT={-:-/ absolute / inch / decimal}
; #@! TF.CreationDate,2021-09-13T09:27:59+02:00
; #@! TF.GenerationSoftware,Kicad,Pcbnew,(5.1.10)-1
; #@! TF.FileFunction,Plated,1,2,PTH
FMAT,2
INCH
T1C0.0315
T2C0.0394
T3C0.0866
%
G90
G05
T1
X5.3543Y-2.4213
X5.3543Y-2.5197
T2
X4.4197Y-2.0803
X4.4197Y-2.1803
X4.4197Y-2.2803
X4.4197Y-2.3803
X4.4197Y-2.4803
X4.4197Y-2.5803
X4.4197Y-2.6803
X4.4197Y-2.7803
X4.4197Y-2.8803
X4.4197Y-2.9803
X4.4197Y-3.0803
X4.4197Y-3.1803
X4.4197Y-3.2803
X4.4197Y-3.3803
X4.4197Y-3.4803
X5.0197Y-2.0803
X5.0197Y-2.1803
X5.0197Y-2.2803
X5.0197Y-2.3803
X5.0197Y-2.4803
X5.0197Y-2.5803
X5.0197Y-2.6803
X5.0197Y-2.7803
X5.0197Y-2.8803
X5.0197Y-2.9803
X5.0197Y-3.0803
X5.0197Y-3.1803
X5.0197Y-3.2803
X5.0197Y-3.3803
X5.0197Y-3.4803
X5.2756Y-2.7165
X5.2756Y-2.8165
X5.2756Y-2.9165
X5.2756Y-3.0165
X5.3756Y-2.7165
X5.3756Y-2.8165
X5.3756Y-2.9165
X5.3756Y-3.0165
T3
X4.252Y-1.8898
X5.4331Y-3.622
T0
M30
