%TF.GenerationSoftware,KiCad,Pcbnew,(5.1.10)-1*%
%TF.CreationDate,2021-09-13T09:28:10+02:00*%
%TF.ProjectId,CarteRecepteur,43617274-6552-4656-9365-70746575722e,rev?*%
%TF.SameCoordinates,Original*%
%TF.FileFunction,Copper,L1,Top*%
%TF.FilePolarity,Positive*%
%FSLAX46Y46*%
G04 Gerber Fmt 4.6, Leading zero omitted, Abs format (unit mm)*
G04 Created by KiCad (PCBNEW (5.1.10)-1) date 2021-09-13 09:28:10*
%MOMM*%
%LPD*%
G01*
G04 APERTURE LIST*
%TA.AperFunction,ComponentPad*%
%ADD10C,3.500000*%
%TD*%
%TA.AperFunction,ComponentPad*%
%ADD11O,1.600000X1.600000*%
%TD*%
%TA.AperFunction,ComponentPad*%
%ADD12R,1.600000X1.600000*%
%TD*%
%TA.AperFunction,ComponentPad*%
%ADD13C,1.600000*%
%TD*%
%TA.AperFunction,ComponentPad*%
%ADD14O,1.700000X1.700000*%
%TD*%
%TA.AperFunction,ComponentPad*%
%ADD15R,1.700000X1.700000*%
%TD*%
%TA.AperFunction,Conductor*%
%ADD16C,0.500000*%
%TD*%
%TA.AperFunction,Conductor*%
%ADD17C,0.254000*%
%TD*%
%TA.AperFunction,Conductor*%
%ADD18C,0.100000*%
%TD*%
G04 APERTURE END LIST*
D10*
%TO.P,H2,1*%
%TO.N,N/C*%
X138000000Y-92000000D03*
%TD*%
%TO.P,H1,1*%
%TO.N,N/C*%
X108000000Y-48000000D03*
%TD*%
D11*
%TO.P,A1,16*%
%TO.N,/SCK*%
X127500000Y-88400000D03*
%TO.P,A1,15*%
%TO.N,/MISO*%
X112260000Y-88400000D03*
%TO.P,A1,30*%
%TO.N,N/C*%
X127500000Y-52840000D03*
%TO.P,A1,14*%
%TO.N,/MOSI*%
X112260000Y-85860000D03*
%TO.P,A1,29*%
%TO.N,GND*%
X127500000Y-55380000D03*
%TO.P,A1,13*%
%TO.N,/CS*%
X112260000Y-83320000D03*
%TO.P,A1,28*%
%TO.N,N/C*%
X127500000Y-57920000D03*
%TO.P,A1,12*%
X112260000Y-80780000D03*
%TO.P,A1,27*%
X127500000Y-60460000D03*
%TO.P,A1,11*%
X112260000Y-78240000D03*
%TO.P,A1,26*%
X127500000Y-63000000D03*
%TO.P,A1,10*%
X112260000Y-75700000D03*
%TO.P,A1,25*%
X127500000Y-65540000D03*
%TO.P,A1,9*%
X112260000Y-73160000D03*
%TO.P,A1,24*%
X127500000Y-68080000D03*
%TO.P,A1,8*%
X112260000Y-70620000D03*
%TO.P,A1,23*%
%TO.N,/CE*%
X127500000Y-70620000D03*
%TO.P,A1,7*%
%TO.N,N/C*%
X112260000Y-68080000D03*
%TO.P,A1,22*%
X127500000Y-73160000D03*
%TO.P,A1,6*%
X112260000Y-65540000D03*
%TO.P,A1,21*%
X127500000Y-75700000D03*
%TO.P,A1,5*%
X112260000Y-63000000D03*
%TO.P,A1,20*%
X127500000Y-78240000D03*
%TO.P,A1,4*%
%TO.N,GND*%
X112260000Y-60460000D03*
%TO.P,A1,19*%
%TO.N,N/C*%
X127500000Y-80780000D03*
%TO.P,A1,3*%
X112260000Y-57920000D03*
%TO.P,A1,18*%
X127500000Y-83320000D03*
%TO.P,A1,2*%
X112260000Y-55380000D03*
%TO.P,A1,17*%
%TO.N,+3V3*%
X127500000Y-85860000D03*
D12*
%TO.P,A1,1*%
%TO.N,N/C*%
X112260000Y-52840000D03*
%TD*%
D13*
%TO.P,C1,2*%
%TO.N,GND*%
X136000000Y-61500000D03*
D12*
%TO.P,C1,1*%
%TO.N,+3V3*%
X136000000Y-64000000D03*
%TD*%
D14*
%TO.P,J1,8*%
%TO.N,N/C*%
X136540000Y-76620000D03*
%TO.P,J1,7*%
%TO.N,/MISO*%
X134000000Y-76620000D03*
%TO.P,J1,6*%
%TO.N,/MOSI*%
X136540000Y-74080000D03*
%TO.P,J1,5*%
%TO.N,/SCK*%
X134000000Y-74080000D03*
%TO.P,J1,4*%
%TO.N,/CS*%
X136540000Y-71540000D03*
%TO.P,J1,3*%
%TO.N,/CE*%
X134000000Y-71540000D03*
%TO.P,J1,2*%
%TO.N,+3V3*%
X136540000Y-69000000D03*
D15*
%TO.P,J1,1*%
%TO.N,GND*%
X134000000Y-69000000D03*
%TD*%
D16*
%TO.N,+3V3*%
X136540000Y-64540000D02*
X136000000Y-64000000D01*
X136540000Y-69000000D02*
X136540000Y-64540000D01*
X127500000Y-85860000D02*
X125860000Y-85860000D01*
X125860000Y-85860000D02*
X124000000Y-84000000D01*
X124000000Y-84000000D02*
X124000000Y-52000000D01*
X124000000Y-52000000D02*
X125000000Y-51000000D01*
X125000000Y-51000000D02*
X131000000Y-51000000D01*
X131000000Y-51000000D02*
X132000000Y-52000000D01*
X132000000Y-52000000D02*
X132000000Y-63000000D01*
X133000000Y-64000000D02*
X136000000Y-64000000D01*
X132000000Y-63000000D02*
X133000000Y-64000000D01*
%TO.N,/SCK*%
X127500000Y-88400000D02*
X129600000Y-88400000D01*
X129600000Y-88400000D02*
X131000000Y-87000000D01*
X131000000Y-87000000D02*
X131000000Y-75000000D01*
X131920000Y-74080000D02*
X134000000Y-74080000D01*
X131000000Y-75000000D02*
X131920000Y-74080000D01*
%TO.N,/MISO*%
X112260000Y-88400000D02*
X114860000Y-91000000D01*
X114860000Y-91000000D02*
X131000000Y-91000000D01*
X134000000Y-88000000D02*
X134000000Y-76620000D01*
X131000000Y-91000000D02*
X134000000Y-88000000D01*
%TO.N,/MOSI*%
X112260000Y-85860000D02*
X110140000Y-85860000D01*
X110140000Y-85860000D02*
X109000000Y-87000000D01*
X109000000Y-87000000D02*
X109000000Y-90000000D01*
X109000000Y-90000000D02*
X112000000Y-93000000D01*
X112000000Y-93000000D02*
X131000000Y-93000000D01*
X131000000Y-93000000D02*
X139000000Y-85000000D01*
X139000000Y-85000000D02*
X139000000Y-75000000D01*
X138080000Y-74080000D02*
X136540000Y-74080000D01*
X139000000Y-75000000D02*
X138080000Y-74080000D01*
%TO.N,/CS*%
X110320000Y-83320000D02*
X112260000Y-83320000D01*
X109000000Y-51000000D02*
X109000000Y-82000000D01*
X111000000Y-49000000D02*
X109000000Y-51000000D01*
X135000000Y-49000000D02*
X111000000Y-49000000D01*
X139000000Y-53000000D02*
X135000000Y-49000000D01*
X109000000Y-82000000D02*
X110320000Y-83320000D01*
X139000000Y-71000000D02*
X139000000Y-53000000D01*
X138460000Y-71540000D02*
X139000000Y-71000000D01*
X136540000Y-71540000D02*
X138460000Y-71540000D01*
%TO.N,/CE*%
X127500000Y-70620000D02*
X129620000Y-70620000D01*
X130540000Y-71540000D02*
X134000000Y-71540000D01*
X129620000Y-70620000D02*
X130540000Y-71540000D01*
%TD*%
D17*
%TO.N,GND*%
X138115001Y-53366580D02*
X138115000Y-70633422D01*
X138093422Y-70655000D01*
X137734656Y-70655000D01*
X137693475Y-70593368D01*
X137486632Y-70386525D01*
X137312240Y-70270000D01*
X137486632Y-70153475D01*
X137693475Y-69946632D01*
X137855990Y-69703411D01*
X137967932Y-69433158D01*
X138025000Y-69146260D01*
X138025000Y-68853740D01*
X137967932Y-68566842D01*
X137855990Y-68296589D01*
X137693475Y-68053368D01*
X137486632Y-67846525D01*
X137425000Y-67805344D01*
X137425000Y-64927159D01*
X137425812Y-64924482D01*
X137438072Y-64800000D01*
X137438072Y-63200000D01*
X137425812Y-63075518D01*
X137389502Y-62955820D01*
X137330537Y-62845506D01*
X137251185Y-62748815D01*
X137154494Y-62669463D01*
X137044180Y-62610498D01*
X136924482Y-62574188D01*
X136800000Y-62561928D01*
X136792785Y-62561928D01*
X136813097Y-62492702D01*
X136000000Y-61679605D01*
X135186903Y-62492702D01*
X135207215Y-62561928D01*
X135200000Y-62561928D01*
X135075518Y-62574188D01*
X134955820Y-62610498D01*
X134845506Y-62669463D01*
X134748815Y-62748815D01*
X134669463Y-62845506D01*
X134610498Y-62955820D01*
X134574188Y-63075518D01*
X134570299Y-63115000D01*
X133366579Y-63115000D01*
X132885000Y-62633422D01*
X132885000Y-61570512D01*
X134559783Y-61570512D01*
X134601213Y-61850130D01*
X134696397Y-62116292D01*
X134763329Y-62241514D01*
X135007298Y-62313097D01*
X135820395Y-61500000D01*
X136179605Y-61500000D01*
X136992702Y-62313097D01*
X137236671Y-62241514D01*
X137357571Y-61986004D01*
X137426300Y-61711816D01*
X137440217Y-61429488D01*
X137398787Y-61149870D01*
X137303603Y-60883708D01*
X137236671Y-60758486D01*
X136992702Y-60686903D01*
X136179605Y-61500000D01*
X135820395Y-61500000D01*
X135007298Y-60686903D01*
X134763329Y-60758486D01*
X134642429Y-61013996D01*
X134573700Y-61288184D01*
X134559783Y-61570512D01*
X132885000Y-61570512D01*
X132885000Y-60507298D01*
X135186903Y-60507298D01*
X136000000Y-61320395D01*
X136813097Y-60507298D01*
X136741514Y-60263329D01*
X136486004Y-60142429D01*
X136211816Y-60073700D01*
X135929488Y-60059783D01*
X135649870Y-60101213D01*
X135383708Y-60196397D01*
X135258486Y-60263329D01*
X135186903Y-60507298D01*
X132885000Y-60507298D01*
X132885000Y-52043469D01*
X132889281Y-52000000D01*
X132885000Y-51956531D01*
X132885000Y-51956523D01*
X132872195Y-51826510D01*
X132862885Y-51795820D01*
X132821589Y-51659686D01*
X132739411Y-51505941D01*
X132656532Y-51404953D01*
X132656530Y-51404951D01*
X132628817Y-51371183D01*
X132595050Y-51343471D01*
X131656532Y-50404954D01*
X131628817Y-50371183D01*
X131494059Y-50260589D01*
X131340313Y-50178411D01*
X131173490Y-50127805D01*
X131043477Y-50115000D01*
X131043469Y-50115000D01*
X131000000Y-50110719D01*
X130956531Y-50115000D01*
X125043469Y-50115000D01*
X125000000Y-50110719D01*
X124956531Y-50115000D01*
X124956523Y-50115000D01*
X124826510Y-50127805D01*
X124659686Y-50178411D01*
X124505941Y-50260589D01*
X124404953Y-50343468D01*
X124404951Y-50343470D01*
X124371183Y-50371183D01*
X124343470Y-50404951D01*
X123404951Y-51343471D01*
X123371184Y-51371183D01*
X123343471Y-51404951D01*
X123343468Y-51404954D01*
X123260590Y-51505941D01*
X123178412Y-51659687D01*
X123127805Y-51826510D01*
X123110719Y-52000000D01*
X123115001Y-52043479D01*
X123115000Y-83956531D01*
X123110719Y-84000000D01*
X123115000Y-84043469D01*
X123115000Y-84043476D01*
X123121623Y-84110719D01*
X123127805Y-84173490D01*
X123143157Y-84224096D01*
X123178411Y-84340312D01*
X123260589Y-84494058D01*
X123371183Y-84628817D01*
X123404956Y-84656534D01*
X125203468Y-86455047D01*
X125231183Y-86488817D01*
X125264951Y-86516530D01*
X125264953Y-86516532D01*
X125293216Y-86539727D01*
X125365941Y-86599411D01*
X125519687Y-86681589D01*
X125686510Y-86732195D01*
X125816523Y-86745000D01*
X125816533Y-86745000D01*
X125859999Y-86749281D01*
X125903465Y-86745000D01*
X126365479Y-86745000D01*
X126385363Y-86774759D01*
X126585241Y-86974637D01*
X126817759Y-87130000D01*
X126585241Y-87285363D01*
X126385363Y-87485241D01*
X126228320Y-87720273D01*
X126120147Y-87981426D01*
X126065000Y-88258665D01*
X126065000Y-88541335D01*
X126120147Y-88818574D01*
X126228320Y-89079727D01*
X126385363Y-89314759D01*
X126585241Y-89514637D01*
X126820273Y-89671680D01*
X127081426Y-89779853D01*
X127358665Y-89835000D01*
X127641335Y-89835000D01*
X127918574Y-89779853D01*
X128179727Y-89671680D01*
X128414759Y-89514637D01*
X128614637Y-89314759D01*
X128634521Y-89285000D01*
X129556531Y-89285000D01*
X129600000Y-89289281D01*
X129643469Y-89285000D01*
X129643477Y-89285000D01*
X129773490Y-89272195D01*
X129940313Y-89221589D01*
X130094059Y-89139411D01*
X130228817Y-89028817D01*
X130256534Y-88995044D01*
X131595050Y-87656529D01*
X131628817Y-87628817D01*
X131670185Y-87578411D01*
X131739410Y-87494060D01*
X131739411Y-87494059D01*
X131821589Y-87340313D01*
X131872195Y-87173490D01*
X131885000Y-87043477D01*
X131885000Y-87043469D01*
X131889281Y-87000000D01*
X131885000Y-86956531D01*
X131885000Y-75366578D01*
X132286579Y-74965000D01*
X132805344Y-74965000D01*
X132846525Y-75026632D01*
X133053368Y-75233475D01*
X133227760Y-75350000D01*
X133053368Y-75466525D01*
X132846525Y-75673368D01*
X132684010Y-75916589D01*
X132572068Y-76186842D01*
X132515000Y-76473740D01*
X132515000Y-76766260D01*
X132572068Y-77053158D01*
X132684010Y-77323411D01*
X132846525Y-77566632D01*
X133053368Y-77773475D01*
X133115001Y-77814657D01*
X133115000Y-87633421D01*
X130633422Y-90115000D01*
X115226579Y-90115000D01*
X113688017Y-88576439D01*
X113695000Y-88541335D01*
X113695000Y-88258665D01*
X113639853Y-87981426D01*
X113531680Y-87720273D01*
X113374637Y-87485241D01*
X113174759Y-87285363D01*
X112942241Y-87130000D01*
X113174759Y-86974637D01*
X113374637Y-86774759D01*
X113531680Y-86539727D01*
X113639853Y-86278574D01*
X113695000Y-86001335D01*
X113695000Y-85718665D01*
X113639853Y-85441426D01*
X113531680Y-85180273D01*
X113374637Y-84945241D01*
X113174759Y-84745363D01*
X112942241Y-84590000D01*
X113174759Y-84434637D01*
X113374637Y-84234759D01*
X113531680Y-83999727D01*
X113639853Y-83738574D01*
X113695000Y-83461335D01*
X113695000Y-83178665D01*
X113639853Y-82901426D01*
X113531680Y-82640273D01*
X113374637Y-82405241D01*
X113174759Y-82205363D01*
X112942241Y-82050000D01*
X113174759Y-81894637D01*
X113374637Y-81694759D01*
X113531680Y-81459727D01*
X113639853Y-81198574D01*
X113695000Y-80921335D01*
X113695000Y-80638665D01*
X113639853Y-80361426D01*
X113531680Y-80100273D01*
X113374637Y-79865241D01*
X113174759Y-79665363D01*
X112942241Y-79510000D01*
X113174759Y-79354637D01*
X113374637Y-79154759D01*
X113531680Y-78919727D01*
X113639853Y-78658574D01*
X113695000Y-78381335D01*
X113695000Y-78098665D01*
X113639853Y-77821426D01*
X113531680Y-77560273D01*
X113374637Y-77325241D01*
X113174759Y-77125363D01*
X112942241Y-76970000D01*
X113174759Y-76814637D01*
X113374637Y-76614759D01*
X113531680Y-76379727D01*
X113639853Y-76118574D01*
X113695000Y-75841335D01*
X113695000Y-75558665D01*
X113639853Y-75281426D01*
X113531680Y-75020273D01*
X113374637Y-74785241D01*
X113174759Y-74585363D01*
X112942241Y-74430000D01*
X113174759Y-74274637D01*
X113374637Y-74074759D01*
X113531680Y-73839727D01*
X113639853Y-73578574D01*
X113695000Y-73301335D01*
X113695000Y-73018665D01*
X113639853Y-72741426D01*
X113531680Y-72480273D01*
X113374637Y-72245241D01*
X113174759Y-72045363D01*
X112942241Y-71890000D01*
X113174759Y-71734637D01*
X113374637Y-71534759D01*
X113531680Y-71299727D01*
X113639853Y-71038574D01*
X113695000Y-70761335D01*
X113695000Y-70478665D01*
X113639853Y-70201426D01*
X113531680Y-69940273D01*
X113374637Y-69705241D01*
X113174759Y-69505363D01*
X112942241Y-69350000D01*
X113174759Y-69194637D01*
X113374637Y-68994759D01*
X113531680Y-68759727D01*
X113639853Y-68498574D01*
X113695000Y-68221335D01*
X113695000Y-67938665D01*
X113639853Y-67661426D01*
X113531680Y-67400273D01*
X113374637Y-67165241D01*
X113174759Y-66965363D01*
X112942241Y-66810000D01*
X113174759Y-66654637D01*
X113374637Y-66454759D01*
X113531680Y-66219727D01*
X113639853Y-65958574D01*
X113695000Y-65681335D01*
X113695000Y-65398665D01*
X113639853Y-65121426D01*
X113531680Y-64860273D01*
X113374637Y-64625241D01*
X113174759Y-64425363D01*
X112942241Y-64270000D01*
X113174759Y-64114637D01*
X113374637Y-63914759D01*
X113531680Y-63679727D01*
X113639853Y-63418574D01*
X113695000Y-63141335D01*
X113695000Y-62858665D01*
X113639853Y-62581426D01*
X113531680Y-62320273D01*
X113374637Y-62085241D01*
X113174759Y-61885363D01*
X112939727Y-61728320D01*
X112929135Y-61723933D01*
X113115131Y-61612385D01*
X113323519Y-61423414D01*
X113491037Y-61197420D01*
X113611246Y-60943087D01*
X113651904Y-60809039D01*
X113529915Y-60587000D01*
X112387000Y-60587000D01*
X112387000Y-60607000D01*
X112133000Y-60607000D01*
X112133000Y-60587000D01*
X110990085Y-60587000D01*
X110868096Y-60809039D01*
X110908754Y-60943087D01*
X111028963Y-61197420D01*
X111196481Y-61423414D01*
X111404869Y-61612385D01*
X111590865Y-61723933D01*
X111580273Y-61728320D01*
X111345241Y-61885363D01*
X111145363Y-62085241D01*
X110988320Y-62320273D01*
X110880147Y-62581426D01*
X110825000Y-62858665D01*
X110825000Y-63141335D01*
X110880147Y-63418574D01*
X110988320Y-63679727D01*
X111145363Y-63914759D01*
X111345241Y-64114637D01*
X111577759Y-64270000D01*
X111345241Y-64425363D01*
X111145363Y-64625241D01*
X110988320Y-64860273D01*
X110880147Y-65121426D01*
X110825000Y-65398665D01*
X110825000Y-65681335D01*
X110880147Y-65958574D01*
X110988320Y-66219727D01*
X111145363Y-66454759D01*
X111345241Y-66654637D01*
X111577759Y-66810000D01*
X111345241Y-66965363D01*
X111145363Y-67165241D01*
X110988320Y-67400273D01*
X110880147Y-67661426D01*
X110825000Y-67938665D01*
X110825000Y-68221335D01*
X110880147Y-68498574D01*
X110988320Y-68759727D01*
X111145363Y-68994759D01*
X111345241Y-69194637D01*
X111577759Y-69350000D01*
X111345241Y-69505363D01*
X111145363Y-69705241D01*
X110988320Y-69940273D01*
X110880147Y-70201426D01*
X110825000Y-70478665D01*
X110825000Y-70761335D01*
X110880147Y-71038574D01*
X110988320Y-71299727D01*
X111145363Y-71534759D01*
X111345241Y-71734637D01*
X111577759Y-71890000D01*
X111345241Y-72045363D01*
X111145363Y-72245241D01*
X110988320Y-72480273D01*
X110880147Y-72741426D01*
X110825000Y-73018665D01*
X110825000Y-73301335D01*
X110880147Y-73578574D01*
X110988320Y-73839727D01*
X111145363Y-74074759D01*
X111345241Y-74274637D01*
X111577759Y-74430000D01*
X111345241Y-74585363D01*
X111145363Y-74785241D01*
X110988320Y-75020273D01*
X110880147Y-75281426D01*
X110825000Y-75558665D01*
X110825000Y-75841335D01*
X110880147Y-76118574D01*
X110988320Y-76379727D01*
X111145363Y-76614759D01*
X111345241Y-76814637D01*
X111577759Y-76970000D01*
X111345241Y-77125363D01*
X111145363Y-77325241D01*
X110988320Y-77560273D01*
X110880147Y-77821426D01*
X110825000Y-78098665D01*
X110825000Y-78381335D01*
X110880147Y-78658574D01*
X110988320Y-78919727D01*
X111145363Y-79154759D01*
X111345241Y-79354637D01*
X111577759Y-79510000D01*
X111345241Y-79665363D01*
X111145363Y-79865241D01*
X110988320Y-80100273D01*
X110880147Y-80361426D01*
X110825000Y-80638665D01*
X110825000Y-80921335D01*
X110880147Y-81198574D01*
X110988320Y-81459727D01*
X111145363Y-81694759D01*
X111345241Y-81894637D01*
X111577759Y-82050000D01*
X111345241Y-82205363D01*
X111145363Y-82405241D01*
X111125479Y-82435000D01*
X110686579Y-82435000D01*
X109885000Y-81633422D01*
X109885000Y-52040000D01*
X110821928Y-52040000D01*
X110821928Y-53640000D01*
X110834188Y-53764482D01*
X110870498Y-53884180D01*
X110929463Y-53994494D01*
X111008815Y-54091185D01*
X111105506Y-54170537D01*
X111215820Y-54229502D01*
X111335518Y-54265812D01*
X111343961Y-54266643D01*
X111145363Y-54465241D01*
X110988320Y-54700273D01*
X110880147Y-54961426D01*
X110825000Y-55238665D01*
X110825000Y-55521335D01*
X110880147Y-55798574D01*
X110988320Y-56059727D01*
X111145363Y-56294759D01*
X111345241Y-56494637D01*
X111577759Y-56650000D01*
X111345241Y-56805363D01*
X111145363Y-57005241D01*
X110988320Y-57240273D01*
X110880147Y-57501426D01*
X110825000Y-57778665D01*
X110825000Y-58061335D01*
X110880147Y-58338574D01*
X110988320Y-58599727D01*
X111145363Y-58834759D01*
X111345241Y-59034637D01*
X111580273Y-59191680D01*
X111590865Y-59196067D01*
X111404869Y-59307615D01*
X111196481Y-59496586D01*
X111028963Y-59722580D01*
X110908754Y-59976913D01*
X110868096Y-60110961D01*
X110990085Y-60333000D01*
X112133000Y-60333000D01*
X112133000Y-60313000D01*
X112387000Y-60313000D01*
X112387000Y-60333000D01*
X113529915Y-60333000D01*
X113651904Y-60110961D01*
X113611246Y-59976913D01*
X113491037Y-59722580D01*
X113323519Y-59496586D01*
X113115131Y-59307615D01*
X112929135Y-59196067D01*
X112939727Y-59191680D01*
X113174759Y-59034637D01*
X113374637Y-58834759D01*
X113531680Y-58599727D01*
X113639853Y-58338574D01*
X113695000Y-58061335D01*
X113695000Y-57778665D01*
X113639853Y-57501426D01*
X113531680Y-57240273D01*
X113374637Y-57005241D01*
X113174759Y-56805363D01*
X112942241Y-56650000D01*
X113174759Y-56494637D01*
X113374637Y-56294759D01*
X113531680Y-56059727D01*
X113639853Y-55798574D01*
X113695000Y-55521335D01*
X113695000Y-55238665D01*
X113639853Y-54961426D01*
X113531680Y-54700273D01*
X113374637Y-54465241D01*
X113176039Y-54266643D01*
X113184482Y-54265812D01*
X113304180Y-54229502D01*
X113414494Y-54170537D01*
X113511185Y-54091185D01*
X113590537Y-53994494D01*
X113649502Y-53884180D01*
X113685812Y-53764482D01*
X113698072Y-53640000D01*
X113698072Y-52040000D01*
X113685812Y-51915518D01*
X113649502Y-51795820D01*
X113590537Y-51685506D01*
X113511185Y-51588815D01*
X113414494Y-51509463D01*
X113304180Y-51450498D01*
X113184482Y-51414188D01*
X113060000Y-51401928D01*
X111460000Y-51401928D01*
X111335518Y-51414188D01*
X111215820Y-51450498D01*
X111105506Y-51509463D01*
X111008815Y-51588815D01*
X110929463Y-51685506D01*
X110870498Y-51795820D01*
X110834188Y-51915518D01*
X110821928Y-52040000D01*
X109885000Y-52040000D01*
X109885000Y-51366578D01*
X111366579Y-49885000D01*
X134633422Y-49885000D01*
X138115001Y-53366580D01*
%TA.AperFunction,Conductor*%
D18*
G36*
X138115001Y-53366580D02*
G01*
X138115000Y-70633422D01*
X138093422Y-70655000D01*
X137734656Y-70655000D01*
X137693475Y-70593368D01*
X137486632Y-70386525D01*
X137312240Y-70270000D01*
X137486632Y-70153475D01*
X137693475Y-69946632D01*
X137855990Y-69703411D01*
X137967932Y-69433158D01*
X138025000Y-69146260D01*
X138025000Y-68853740D01*
X137967932Y-68566842D01*
X137855990Y-68296589D01*
X137693475Y-68053368D01*
X137486632Y-67846525D01*
X137425000Y-67805344D01*
X137425000Y-64927159D01*
X137425812Y-64924482D01*
X137438072Y-64800000D01*
X137438072Y-63200000D01*
X137425812Y-63075518D01*
X137389502Y-62955820D01*
X137330537Y-62845506D01*
X137251185Y-62748815D01*
X137154494Y-62669463D01*
X137044180Y-62610498D01*
X136924482Y-62574188D01*
X136800000Y-62561928D01*
X136792785Y-62561928D01*
X136813097Y-62492702D01*
X136000000Y-61679605D01*
X135186903Y-62492702D01*
X135207215Y-62561928D01*
X135200000Y-62561928D01*
X135075518Y-62574188D01*
X134955820Y-62610498D01*
X134845506Y-62669463D01*
X134748815Y-62748815D01*
X134669463Y-62845506D01*
X134610498Y-62955820D01*
X134574188Y-63075518D01*
X134570299Y-63115000D01*
X133366579Y-63115000D01*
X132885000Y-62633422D01*
X132885000Y-61570512D01*
X134559783Y-61570512D01*
X134601213Y-61850130D01*
X134696397Y-62116292D01*
X134763329Y-62241514D01*
X135007298Y-62313097D01*
X135820395Y-61500000D01*
X136179605Y-61500000D01*
X136992702Y-62313097D01*
X137236671Y-62241514D01*
X137357571Y-61986004D01*
X137426300Y-61711816D01*
X137440217Y-61429488D01*
X137398787Y-61149870D01*
X137303603Y-60883708D01*
X137236671Y-60758486D01*
X136992702Y-60686903D01*
X136179605Y-61500000D01*
X135820395Y-61500000D01*
X135007298Y-60686903D01*
X134763329Y-60758486D01*
X134642429Y-61013996D01*
X134573700Y-61288184D01*
X134559783Y-61570512D01*
X132885000Y-61570512D01*
X132885000Y-60507298D01*
X135186903Y-60507298D01*
X136000000Y-61320395D01*
X136813097Y-60507298D01*
X136741514Y-60263329D01*
X136486004Y-60142429D01*
X136211816Y-60073700D01*
X135929488Y-60059783D01*
X135649870Y-60101213D01*
X135383708Y-60196397D01*
X135258486Y-60263329D01*
X135186903Y-60507298D01*
X132885000Y-60507298D01*
X132885000Y-52043469D01*
X132889281Y-52000000D01*
X132885000Y-51956531D01*
X132885000Y-51956523D01*
X132872195Y-51826510D01*
X132862885Y-51795820D01*
X132821589Y-51659686D01*
X132739411Y-51505941D01*
X132656532Y-51404953D01*
X132656530Y-51404951D01*
X132628817Y-51371183D01*
X132595050Y-51343471D01*
X131656532Y-50404954D01*
X131628817Y-50371183D01*
X131494059Y-50260589D01*
X131340313Y-50178411D01*
X131173490Y-50127805D01*
X131043477Y-50115000D01*
X131043469Y-50115000D01*
X131000000Y-50110719D01*
X130956531Y-50115000D01*
X125043469Y-50115000D01*
X125000000Y-50110719D01*
X124956531Y-50115000D01*
X124956523Y-50115000D01*
X124826510Y-50127805D01*
X124659686Y-50178411D01*
X124505941Y-50260589D01*
X124404953Y-50343468D01*
X124404951Y-50343470D01*
X124371183Y-50371183D01*
X124343470Y-50404951D01*
X123404951Y-51343471D01*
X123371184Y-51371183D01*
X123343471Y-51404951D01*
X123343468Y-51404954D01*
X123260590Y-51505941D01*
X123178412Y-51659687D01*
X123127805Y-51826510D01*
X123110719Y-52000000D01*
X123115001Y-52043479D01*
X123115000Y-83956531D01*
X123110719Y-84000000D01*
X123115000Y-84043469D01*
X123115000Y-84043476D01*
X123121623Y-84110719D01*
X123127805Y-84173490D01*
X123143157Y-84224096D01*
X123178411Y-84340312D01*
X123260589Y-84494058D01*
X123371183Y-84628817D01*
X123404956Y-84656534D01*
X125203468Y-86455047D01*
X125231183Y-86488817D01*
X125264951Y-86516530D01*
X125264953Y-86516532D01*
X125293216Y-86539727D01*
X125365941Y-86599411D01*
X125519687Y-86681589D01*
X125686510Y-86732195D01*
X125816523Y-86745000D01*
X125816533Y-86745000D01*
X125859999Y-86749281D01*
X125903465Y-86745000D01*
X126365479Y-86745000D01*
X126385363Y-86774759D01*
X126585241Y-86974637D01*
X126817759Y-87130000D01*
X126585241Y-87285363D01*
X126385363Y-87485241D01*
X126228320Y-87720273D01*
X126120147Y-87981426D01*
X126065000Y-88258665D01*
X126065000Y-88541335D01*
X126120147Y-88818574D01*
X126228320Y-89079727D01*
X126385363Y-89314759D01*
X126585241Y-89514637D01*
X126820273Y-89671680D01*
X127081426Y-89779853D01*
X127358665Y-89835000D01*
X127641335Y-89835000D01*
X127918574Y-89779853D01*
X128179727Y-89671680D01*
X128414759Y-89514637D01*
X128614637Y-89314759D01*
X128634521Y-89285000D01*
X129556531Y-89285000D01*
X129600000Y-89289281D01*
X129643469Y-89285000D01*
X129643477Y-89285000D01*
X129773490Y-89272195D01*
X129940313Y-89221589D01*
X130094059Y-89139411D01*
X130228817Y-89028817D01*
X130256534Y-88995044D01*
X131595050Y-87656529D01*
X131628817Y-87628817D01*
X131670185Y-87578411D01*
X131739410Y-87494060D01*
X131739411Y-87494059D01*
X131821589Y-87340313D01*
X131872195Y-87173490D01*
X131885000Y-87043477D01*
X131885000Y-87043469D01*
X131889281Y-87000000D01*
X131885000Y-86956531D01*
X131885000Y-75366578D01*
X132286579Y-74965000D01*
X132805344Y-74965000D01*
X132846525Y-75026632D01*
X133053368Y-75233475D01*
X133227760Y-75350000D01*
X133053368Y-75466525D01*
X132846525Y-75673368D01*
X132684010Y-75916589D01*
X132572068Y-76186842D01*
X132515000Y-76473740D01*
X132515000Y-76766260D01*
X132572068Y-77053158D01*
X132684010Y-77323411D01*
X132846525Y-77566632D01*
X133053368Y-77773475D01*
X133115001Y-77814657D01*
X133115000Y-87633421D01*
X130633422Y-90115000D01*
X115226579Y-90115000D01*
X113688017Y-88576439D01*
X113695000Y-88541335D01*
X113695000Y-88258665D01*
X113639853Y-87981426D01*
X113531680Y-87720273D01*
X113374637Y-87485241D01*
X113174759Y-87285363D01*
X112942241Y-87130000D01*
X113174759Y-86974637D01*
X113374637Y-86774759D01*
X113531680Y-86539727D01*
X113639853Y-86278574D01*
X113695000Y-86001335D01*
X113695000Y-85718665D01*
X113639853Y-85441426D01*
X113531680Y-85180273D01*
X113374637Y-84945241D01*
X113174759Y-84745363D01*
X112942241Y-84590000D01*
X113174759Y-84434637D01*
X113374637Y-84234759D01*
X113531680Y-83999727D01*
X113639853Y-83738574D01*
X113695000Y-83461335D01*
X113695000Y-83178665D01*
X113639853Y-82901426D01*
X113531680Y-82640273D01*
X113374637Y-82405241D01*
X113174759Y-82205363D01*
X112942241Y-82050000D01*
X113174759Y-81894637D01*
X113374637Y-81694759D01*
X113531680Y-81459727D01*
X113639853Y-81198574D01*
X113695000Y-80921335D01*
X113695000Y-80638665D01*
X113639853Y-80361426D01*
X113531680Y-80100273D01*
X113374637Y-79865241D01*
X113174759Y-79665363D01*
X112942241Y-79510000D01*
X113174759Y-79354637D01*
X113374637Y-79154759D01*
X113531680Y-78919727D01*
X113639853Y-78658574D01*
X113695000Y-78381335D01*
X113695000Y-78098665D01*
X113639853Y-77821426D01*
X113531680Y-77560273D01*
X113374637Y-77325241D01*
X113174759Y-77125363D01*
X112942241Y-76970000D01*
X113174759Y-76814637D01*
X113374637Y-76614759D01*
X113531680Y-76379727D01*
X113639853Y-76118574D01*
X113695000Y-75841335D01*
X113695000Y-75558665D01*
X113639853Y-75281426D01*
X113531680Y-75020273D01*
X113374637Y-74785241D01*
X113174759Y-74585363D01*
X112942241Y-74430000D01*
X113174759Y-74274637D01*
X113374637Y-74074759D01*
X113531680Y-73839727D01*
X113639853Y-73578574D01*
X113695000Y-73301335D01*
X113695000Y-73018665D01*
X113639853Y-72741426D01*
X113531680Y-72480273D01*
X113374637Y-72245241D01*
X113174759Y-72045363D01*
X112942241Y-71890000D01*
X113174759Y-71734637D01*
X113374637Y-71534759D01*
X113531680Y-71299727D01*
X113639853Y-71038574D01*
X113695000Y-70761335D01*
X113695000Y-70478665D01*
X113639853Y-70201426D01*
X113531680Y-69940273D01*
X113374637Y-69705241D01*
X113174759Y-69505363D01*
X112942241Y-69350000D01*
X113174759Y-69194637D01*
X113374637Y-68994759D01*
X113531680Y-68759727D01*
X113639853Y-68498574D01*
X113695000Y-68221335D01*
X113695000Y-67938665D01*
X113639853Y-67661426D01*
X113531680Y-67400273D01*
X113374637Y-67165241D01*
X113174759Y-66965363D01*
X112942241Y-66810000D01*
X113174759Y-66654637D01*
X113374637Y-66454759D01*
X113531680Y-66219727D01*
X113639853Y-65958574D01*
X113695000Y-65681335D01*
X113695000Y-65398665D01*
X113639853Y-65121426D01*
X113531680Y-64860273D01*
X113374637Y-64625241D01*
X113174759Y-64425363D01*
X112942241Y-64270000D01*
X113174759Y-64114637D01*
X113374637Y-63914759D01*
X113531680Y-63679727D01*
X113639853Y-63418574D01*
X113695000Y-63141335D01*
X113695000Y-62858665D01*
X113639853Y-62581426D01*
X113531680Y-62320273D01*
X113374637Y-62085241D01*
X113174759Y-61885363D01*
X112939727Y-61728320D01*
X112929135Y-61723933D01*
X113115131Y-61612385D01*
X113323519Y-61423414D01*
X113491037Y-61197420D01*
X113611246Y-60943087D01*
X113651904Y-60809039D01*
X113529915Y-60587000D01*
X112387000Y-60587000D01*
X112387000Y-60607000D01*
X112133000Y-60607000D01*
X112133000Y-60587000D01*
X110990085Y-60587000D01*
X110868096Y-60809039D01*
X110908754Y-60943087D01*
X111028963Y-61197420D01*
X111196481Y-61423414D01*
X111404869Y-61612385D01*
X111590865Y-61723933D01*
X111580273Y-61728320D01*
X111345241Y-61885363D01*
X111145363Y-62085241D01*
X110988320Y-62320273D01*
X110880147Y-62581426D01*
X110825000Y-62858665D01*
X110825000Y-63141335D01*
X110880147Y-63418574D01*
X110988320Y-63679727D01*
X111145363Y-63914759D01*
X111345241Y-64114637D01*
X111577759Y-64270000D01*
X111345241Y-64425363D01*
X111145363Y-64625241D01*
X110988320Y-64860273D01*
X110880147Y-65121426D01*
X110825000Y-65398665D01*
X110825000Y-65681335D01*
X110880147Y-65958574D01*
X110988320Y-66219727D01*
X111145363Y-66454759D01*
X111345241Y-66654637D01*
X111577759Y-66810000D01*
X111345241Y-66965363D01*
X111145363Y-67165241D01*
X110988320Y-67400273D01*
X110880147Y-67661426D01*
X110825000Y-67938665D01*
X110825000Y-68221335D01*
X110880147Y-68498574D01*
X110988320Y-68759727D01*
X111145363Y-68994759D01*
X111345241Y-69194637D01*
X111577759Y-69350000D01*
X111345241Y-69505363D01*
X111145363Y-69705241D01*
X110988320Y-69940273D01*
X110880147Y-70201426D01*
X110825000Y-70478665D01*
X110825000Y-70761335D01*
X110880147Y-71038574D01*
X110988320Y-71299727D01*
X111145363Y-71534759D01*
X111345241Y-71734637D01*
X111577759Y-71890000D01*
X111345241Y-72045363D01*
X111145363Y-72245241D01*
X110988320Y-72480273D01*
X110880147Y-72741426D01*
X110825000Y-73018665D01*
X110825000Y-73301335D01*
X110880147Y-73578574D01*
X110988320Y-73839727D01*
X111145363Y-74074759D01*
X111345241Y-74274637D01*
X111577759Y-74430000D01*
X111345241Y-74585363D01*
X111145363Y-74785241D01*
X110988320Y-75020273D01*
X110880147Y-75281426D01*
X110825000Y-75558665D01*
X110825000Y-75841335D01*
X110880147Y-76118574D01*
X110988320Y-76379727D01*
X111145363Y-76614759D01*
X111345241Y-76814637D01*
X111577759Y-76970000D01*
X111345241Y-77125363D01*
X111145363Y-77325241D01*
X110988320Y-77560273D01*
X110880147Y-77821426D01*
X110825000Y-78098665D01*
X110825000Y-78381335D01*
X110880147Y-78658574D01*
X110988320Y-78919727D01*
X111145363Y-79154759D01*
X111345241Y-79354637D01*
X111577759Y-79510000D01*
X111345241Y-79665363D01*
X111145363Y-79865241D01*
X110988320Y-80100273D01*
X110880147Y-80361426D01*
X110825000Y-80638665D01*
X110825000Y-80921335D01*
X110880147Y-81198574D01*
X110988320Y-81459727D01*
X111145363Y-81694759D01*
X111345241Y-81894637D01*
X111577759Y-82050000D01*
X111345241Y-82205363D01*
X111145363Y-82405241D01*
X111125479Y-82435000D01*
X110686579Y-82435000D01*
X109885000Y-81633422D01*
X109885000Y-52040000D01*
X110821928Y-52040000D01*
X110821928Y-53640000D01*
X110834188Y-53764482D01*
X110870498Y-53884180D01*
X110929463Y-53994494D01*
X111008815Y-54091185D01*
X111105506Y-54170537D01*
X111215820Y-54229502D01*
X111335518Y-54265812D01*
X111343961Y-54266643D01*
X111145363Y-54465241D01*
X110988320Y-54700273D01*
X110880147Y-54961426D01*
X110825000Y-55238665D01*
X110825000Y-55521335D01*
X110880147Y-55798574D01*
X110988320Y-56059727D01*
X111145363Y-56294759D01*
X111345241Y-56494637D01*
X111577759Y-56650000D01*
X111345241Y-56805363D01*
X111145363Y-57005241D01*
X110988320Y-57240273D01*
X110880147Y-57501426D01*
X110825000Y-57778665D01*
X110825000Y-58061335D01*
X110880147Y-58338574D01*
X110988320Y-58599727D01*
X111145363Y-58834759D01*
X111345241Y-59034637D01*
X111580273Y-59191680D01*
X111590865Y-59196067D01*
X111404869Y-59307615D01*
X111196481Y-59496586D01*
X111028963Y-59722580D01*
X110908754Y-59976913D01*
X110868096Y-60110961D01*
X110990085Y-60333000D01*
X112133000Y-60333000D01*
X112133000Y-60313000D01*
X112387000Y-60313000D01*
X112387000Y-60333000D01*
X113529915Y-60333000D01*
X113651904Y-60110961D01*
X113611246Y-59976913D01*
X113491037Y-59722580D01*
X113323519Y-59496586D01*
X113115131Y-59307615D01*
X112929135Y-59196067D01*
X112939727Y-59191680D01*
X113174759Y-59034637D01*
X113374637Y-58834759D01*
X113531680Y-58599727D01*
X113639853Y-58338574D01*
X113695000Y-58061335D01*
X113695000Y-57778665D01*
X113639853Y-57501426D01*
X113531680Y-57240273D01*
X113374637Y-57005241D01*
X113174759Y-56805363D01*
X112942241Y-56650000D01*
X113174759Y-56494637D01*
X113374637Y-56294759D01*
X113531680Y-56059727D01*
X113639853Y-55798574D01*
X113695000Y-55521335D01*
X113695000Y-55238665D01*
X113639853Y-54961426D01*
X113531680Y-54700273D01*
X113374637Y-54465241D01*
X113176039Y-54266643D01*
X113184482Y-54265812D01*
X113304180Y-54229502D01*
X113414494Y-54170537D01*
X113511185Y-54091185D01*
X113590537Y-53994494D01*
X113649502Y-53884180D01*
X113685812Y-53764482D01*
X113698072Y-53640000D01*
X113698072Y-52040000D01*
X113685812Y-51915518D01*
X113649502Y-51795820D01*
X113590537Y-51685506D01*
X113511185Y-51588815D01*
X113414494Y-51509463D01*
X113304180Y-51450498D01*
X113184482Y-51414188D01*
X113060000Y-51401928D01*
X111460000Y-51401928D01*
X111335518Y-51414188D01*
X111215820Y-51450498D01*
X111105506Y-51509463D01*
X111008815Y-51588815D01*
X110929463Y-51685506D01*
X110870498Y-51795820D01*
X110834188Y-51915518D01*
X110821928Y-52040000D01*
X109885000Y-52040000D01*
X109885000Y-51366578D01*
X111366579Y-49885000D01*
X134633422Y-49885000D01*
X138115001Y-53366580D01*
G37*
%TD.AperFunction*%
D17*
X126385363Y-51925241D02*
X126228320Y-52160273D01*
X126120147Y-52421426D01*
X126065000Y-52698665D01*
X126065000Y-52981335D01*
X126120147Y-53258574D01*
X126228320Y-53519727D01*
X126385363Y-53754759D01*
X126585241Y-53954637D01*
X126820273Y-54111680D01*
X126830865Y-54116067D01*
X126644869Y-54227615D01*
X126436481Y-54416586D01*
X126268963Y-54642580D01*
X126148754Y-54896913D01*
X126108096Y-55030961D01*
X126230085Y-55253000D01*
X127373000Y-55253000D01*
X127373000Y-55233000D01*
X127627000Y-55233000D01*
X127627000Y-55253000D01*
X128769915Y-55253000D01*
X128891904Y-55030961D01*
X128851246Y-54896913D01*
X128731037Y-54642580D01*
X128563519Y-54416586D01*
X128355131Y-54227615D01*
X128169135Y-54116067D01*
X128179727Y-54111680D01*
X128414759Y-53954637D01*
X128614637Y-53754759D01*
X128771680Y-53519727D01*
X128879853Y-53258574D01*
X128935000Y-52981335D01*
X128935000Y-52698665D01*
X128879853Y-52421426D01*
X128771680Y-52160273D01*
X128614637Y-51925241D01*
X128574396Y-51885000D01*
X130633422Y-51885000D01*
X131115000Y-52366579D01*
X131115001Y-62956521D01*
X131110719Y-63000000D01*
X131127805Y-63173490D01*
X131178412Y-63340313D01*
X131260590Y-63494059D01*
X131343468Y-63595046D01*
X131343471Y-63595049D01*
X131371184Y-63628817D01*
X131404951Y-63656529D01*
X132343470Y-64595049D01*
X132371183Y-64628817D01*
X132404951Y-64656530D01*
X132404953Y-64656532D01*
X132505941Y-64739411D01*
X132659686Y-64821589D01*
X132787209Y-64860273D01*
X132826510Y-64872195D01*
X132956523Y-64885000D01*
X132956531Y-64885000D01*
X133000000Y-64889281D01*
X133043469Y-64885000D01*
X134570299Y-64885000D01*
X134574188Y-64924482D01*
X134610498Y-65044180D01*
X134669463Y-65154494D01*
X134748815Y-65251185D01*
X134845506Y-65330537D01*
X134955820Y-65389502D01*
X135075518Y-65425812D01*
X135200000Y-65438072D01*
X135655001Y-65438072D01*
X135655000Y-67805344D01*
X135593368Y-67846525D01*
X135461513Y-67978380D01*
X135439502Y-67905820D01*
X135380537Y-67795506D01*
X135301185Y-67698815D01*
X135204494Y-67619463D01*
X135094180Y-67560498D01*
X134974482Y-67524188D01*
X134850000Y-67511928D01*
X134285750Y-67515000D01*
X134127000Y-67673750D01*
X134127000Y-68873000D01*
X134147000Y-68873000D01*
X134147000Y-69127000D01*
X134127000Y-69127000D01*
X134127000Y-69147000D01*
X133873000Y-69147000D01*
X133873000Y-69127000D01*
X132673750Y-69127000D01*
X132515000Y-69285750D01*
X132511928Y-69850000D01*
X132524188Y-69974482D01*
X132560498Y-70094180D01*
X132619463Y-70204494D01*
X132698815Y-70301185D01*
X132795506Y-70380537D01*
X132905820Y-70439502D01*
X132978380Y-70461513D01*
X132846525Y-70593368D01*
X132805344Y-70655000D01*
X130906579Y-70655000D01*
X130276534Y-70024956D01*
X130248817Y-69991183D01*
X130114059Y-69880589D01*
X129960313Y-69798411D01*
X129793490Y-69747805D01*
X129663477Y-69735000D01*
X129663469Y-69735000D01*
X129620000Y-69730719D01*
X129576531Y-69735000D01*
X128634521Y-69735000D01*
X128614637Y-69705241D01*
X128414759Y-69505363D01*
X128182241Y-69350000D01*
X128414759Y-69194637D01*
X128614637Y-68994759D01*
X128771680Y-68759727D01*
X128879853Y-68498574D01*
X128935000Y-68221335D01*
X128935000Y-68150000D01*
X132511928Y-68150000D01*
X132515000Y-68714250D01*
X132673750Y-68873000D01*
X133873000Y-68873000D01*
X133873000Y-67673750D01*
X133714250Y-67515000D01*
X133150000Y-67511928D01*
X133025518Y-67524188D01*
X132905820Y-67560498D01*
X132795506Y-67619463D01*
X132698815Y-67698815D01*
X132619463Y-67795506D01*
X132560498Y-67905820D01*
X132524188Y-68025518D01*
X132511928Y-68150000D01*
X128935000Y-68150000D01*
X128935000Y-67938665D01*
X128879853Y-67661426D01*
X128771680Y-67400273D01*
X128614637Y-67165241D01*
X128414759Y-66965363D01*
X128182241Y-66810000D01*
X128414759Y-66654637D01*
X128614637Y-66454759D01*
X128771680Y-66219727D01*
X128879853Y-65958574D01*
X128935000Y-65681335D01*
X128935000Y-65398665D01*
X128879853Y-65121426D01*
X128771680Y-64860273D01*
X128614637Y-64625241D01*
X128414759Y-64425363D01*
X128182241Y-64270000D01*
X128414759Y-64114637D01*
X128614637Y-63914759D01*
X128771680Y-63679727D01*
X128879853Y-63418574D01*
X128935000Y-63141335D01*
X128935000Y-62858665D01*
X128879853Y-62581426D01*
X128771680Y-62320273D01*
X128614637Y-62085241D01*
X128414759Y-61885363D01*
X128182241Y-61730000D01*
X128414759Y-61574637D01*
X128614637Y-61374759D01*
X128771680Y-61139727D01*
X128879853Y-60878574D01*
X128935000Y-60601335D01*
X128935000Y-60318665D01*
X128879853Y-60041426D01*
X128771680Y-59780273D01*
X128614637Y-59545241D01*
X128414759Y-59345363D01*
X128182241Y-59190000D01*
X128414759Y-59034637D01*
X128614637Y-58834759D01*
X128771680Y-58599727D01*
X128879853Y-58338574D01*
X128935000Y-58061335D01*
X128935000Y-57778665D01*
X128879853Y-57501426D01*
X128771680Y-57240273D01*
X128614637Y-57005241D01*
X128414759Y-56805363D01*
X128179727Y-56648320D01*
X128169135Y-56643933D01*
X128355131Y-56532385D01*
X128563519Y-56343414D01*
X128731037Y-56117420D01*
X128851246Y-55863087D01*
X128891904Y-55729039D01*
X128769915Y-55507000D01*
X127627000Y-55507000D01*
X127627000Y-55527000D01*
X127373000Y-55527000D01*
X127373000Y-55507000D01*
X126230085Y-55507000D01*
X126108096Y-55729039D01*
X126148754Y-55863087D01*
X126268963Y-56117420D01*
X126436481Y-56343414D01*
X126644869Y-56532385D01*
X126830865Y-56643933D01*
X126820273Y-56648320D01*
X126585241Y-56805363D01*
X126385363Y-57005241D01*
X126228320Y-57240273D01*
X126120147Y-57501426D01*
X126065000Y-57778665D01*
X126065000Y-58061335D01*
X126120147Y-58338574D01*
X126228320Y-58599727D01*
X126385363Y-58834759D01*
X126585241Y-59034637D01*
X126817759Y-59190000D01*
X126585241Y-59345363D01*
X126385363Y-59545241D01*
X126228320Y-59780273D01*
X126120147Y-60041426D01*
X126065000Y-60318665D01*
X126065000Y-60601335D01*
X126120147Y-60878574D01*
X126228320Y-61139727D01*
X126385363Y-61374759D01*
X126585241Y-61574637D01*
X126817759Y-61730000D01*
X126585241Y-61885363D01*
X126385363Y-62085241D01*
X126228320Y-62320273D01*
X126120147Y-62581426D01*
X126065000Y-62858665D01*
X126065000Y-63141335D01*
X126120147Y-63418574D01*
X126228320Y-63679727D01*
X126385363Y-63914759D01*
X126585241Y-64114637D01*
X126817759Y-64270000D01*
X126585241Y-64425363D01*
X126385363Y-64625241D01*
X126228320Y-64860273D01*
X126120147Y-65121426D01*
X126065000Y-65398665D01*
X126065000Y-65681335D01*
X126120147Y-65958574D01*
X126228320Y-66219727D01*
X126385363Y-66454759D01*
X126585241Y-66654637D01*
X126817759Y-66810000D01*
X126585241Y-66965363D01*
X126385363Y-67165241D01*
X126228320Y-67400273D01*
X126120147Y-67661426D01*
X126065000Y-67938665D01*
X126065000Y-68221335D01*
X126120147Y-68498574D01*
X126228320Y-68759727D01*
X126385363Y-68994759D01*
X126585241Y-69194637D01*
X126817759Y-69350000D01*
X126585241Y-69505363D01*
X126385363Y-69705241D01*
X126228320Y-69940273D01*
X126120147Y-70201426D01*
X126065000Y-70478665D01*
X126065000Y-70761335D01*
X126120147Y-71038574D01*
X126228320Y-71299727D01*
X126385363Y-71534759D01*
X126585241Y-71734637D01*
X126817759Y-71890000D01*
X126585241Y-72045363D01*
X126385363Y-72245241D01*
X126228320Y-72480273D01*
X126120147Y-72741426D01*
X126065000Y-73018665D01*
X126065000Y-73301335D01*
X126120147Y-73578574D01*
X126228320Y-73839727D01*
X126385363Y-74074759D01*
X126585241Y-74274637D01*
X126817759Y-74430000D01*
X126585241Y-74585363D01*
X126385363Y-74785241D01*
X126228320Y-75020273D01*
X126120147Y-75281426D01*
X126065000Y-75558665D01*
X126065000Y-75841335D01*
X126120147Y-76118574D01*
X126228320Y-76379727D01*
X126385363Y-76614759D01*
X126585241Y-76814637D01*
X126817759Y-76970000D01*
X126585241Y-77125363D01*
X126385363Y-77325241D01*
X126228320Y-77560273D01*
X126120147Y-77821426D01*
X126065000Y-78098665D01*
X126065000Y-78381335D01*
X126120147Y-78658574D01*
X126228320Y-78919727D01*
X126385363Y-79154759D01*
X126585241Y-79354637D01*
X126817759Y-79510000D01*
X126585241Y-79665363D01*
X126385363Y-79865241D01*
X126228320Y-80100273D01*
X126120147Y-80361426D01*
X126065000Y-80638665D01*
X126065000Y-80921335D01*
X126120147Y-81198574D01*
X126228320Y-81459727D01*
X126385363Y-81694759D01*
X126585241Y-81894637D01*
X126817759Y-82050000D01*
X126585241Y-82205363D01*
X126385363Y-82405241D01*
X126228320Y-82640273D01*
X126120147Y-82901426D01*
X126065000Y-83178665D01*
X126065000Y-83461335D01*
X126120147Y-83738574D01*
X126228320Y-83999727D01*
X126385363Y-84234759D01*
X126585241Y-84434637D01*
X126817759Y-84590000D01*
X126585241Y-84745363D01*
X126385363Y-84945241D01*
X126365479Y-84975000D01*
X126226579Y-84975000D01*
X124885000Y-83633422D01*
X124885000Y-52366578D01*
X125366579Y-51885000D01*
X126425604Y-51885000D01*
X126385363Y-51925241D01*
%TA.AperFunction,Conductor*%
D18*
G36*
X126385363Y-51925241D02*
G01*
X126228320Y-52160273D01*
X126120147Y-52421426D01*
X126065000Y-52698665D01*
X126065000Y-52981335D01*
X126120147Y-53258574D01*
X126228320Y-53519727D01*
X126385363Y-53754759D01*
X126585241Y-53954637D01*
X126820273Y-54111680D01*
X126830865Y-54116067D01*
X126644869Y-54227615D01*
X126436481Y-54416586D01*
X126268963Y-54642580D01*
X126148754Y-54896913D01*
X126108096Y-55030961D01*
X126230085Y-55253000D01*
X127373000Y-55253000D01*
X127373000Y-55233000D01*
X127627000Y-55233000D01*
X127627000Y-55253000D01*
X128769915Y-55253000D01*
X128891904Y-55030961D01*
X128851246Y-54896913D01*
X128731037Y-54642580D01*
X128563519Y-54416586D01*
X128355131Y-54227615D01*
X128169135Y-54116067D01*
X128179727Y-54111680D01*
X128414759Y-53954637D01*
X128614637Y-53754759D01*
X128771680Y-53519727D01*
X128879853Y-53258574D01*
X128935000Y-52981335D01*
X128935000Y-52698665D01*
X128879853Y-52421426D01*
X128771680Y-52160273D01*
X128614637Y-51925241D01*
X128574396Y-51885000D01*
X130633422Y-51885000D01*
X131115000Y-52366579D01*
X131115001Y-62956521D01*
X131110719Y-63000000D01*
X131127805Y-63173490D01*
X131178412Y-63340313D01*
X131260590Y-63494059D01*
X131343468Y-63595046D01*
X131343471Y-63595049D01*
X131371184Y-63628817D01*
X131404951Y-63656529D01*
X132343470Y-64595049D01*
X132371183Y-64628817D01*
X132404951Y-64656530D01*
X132404953Y-64656532D01*
X132505941Y-64739411D01*
X132659686Y-64821589D01*
X132787209Y-64860273D01*
X132826510Y-64872195D01*
X132956523Y-64885000D01*
X132956531Y-64885000D01*
X133000000Y-64889281D01*
X133043469Y-64885000D01*
X134570299Y-64885000D01*
X134574188Y-64924482D01*
X134610498Y-65044180D01*
X134669463Y-65154494D01*
X134748815Y-65251185D01*
X134845506Y-65330537D01*
X134955820Y-65389502D01*
X135075518Y-65425812D01*
X135200000Y-65438072D01*
X135655001Y-65438072D01*
X135655000Y-67805344D01*
X135593368Y-67846525D01*
X135461513Y-67978380D01*
X135439502Y-67905820D01*
X135380537Y-67795506D01*
X135301185Y-67698815D01*
X135204494Y-67619463D01*
X135094180Y-67560498D01*
X134974482Y-67524188D01*
X134850000Y-67511928D01*
X134285750Y-67515000D01*
X134127000Y-67673750D01*
X134127000Y-68873000D01*
X134147000Y-68873000D01*
X134147000Y-69127000D01*
X134127000Y-69127000D01*
X134127000Y-69147000D01*
X133873000Y-69147000D01*
X133873000Y-69127000D01*
X132673750Y-69127000D01*
X132515000Y-69285750D01*
X132511928Y-69850000D01*
X132524188Y-69974482D01*
X132560498Y-70094180D01*
X132619463Y-70204494D01*
X132698815Y-70301185D01*
X132795506Y-70380537D01*
X132905820Y-70439502D01*
X132978380Y-70461513D01*
X132846525Y-70593368D01*
X132805344Y-70655000D01*
X130906579Y-70655000D01*
X130276534Y-70024956D01*
X130248817Y-69991183D01*
X130114059Y-69880589D01*
X129960313Y-69798411D01*
X129793490Y-69747805D01*
X129663477Y-69735000D01*
X129663469Y-69735000D01*
X129620000Y-69730719D01*
X129576531Y-69735000D01*
X128634521Y-69735000D01*
X128614637Y-69705241D01*
X128414759Y-69505363D01*
X128182241Y-69350000D01*
X128414759Y-69194637D01*
X128614637Y-68994759D01*
X128771680Y-68759727D01*
X128879853Y-68498574D01*
X128935000Y-68221335D01*
X128935000Y-68150000D01*
X132511928Y-68150000D01*
X132515000Y-68714250D01*
X132673750Y-68873000D01*
X133873000Y-68873000D01*
X133873000Y-67673750D01*
X133714250Y-67515000D01*
X133150000Y-67511928D01*
X133025518Y-67524188D01*
X132905820Y-67560498D01*
X132795506Y-67619463D01*
X132698815Y-67698815D01*
X132619463Y-67795506D01*
X132560498Y-67905820D01*
X132524188Y-68025518D01*
X132511928Y-68150000D01*
X128935000Y-68150000D01*
X128935000Y-67938665D01*
X128879853Y-67661426D01*
X128771680Y-67400273D01*
X128614637Y-67165241D01*
X128414759Y-66965363D01*
X128182241Y-66810000D01*
X128414759Y-66654637D01*
X128614637Y-66454759D01*
X128771680Y-66219727D01*
X128879853Y-65958574D01*
X128935000Y-65681335D01*
X128935000Y-65398665D01*
X128879853Y-65121426D01*
X128771680Y-64860273D01*
X128614637Y-64625241D01*
X128414759Y-64425363D01*
X128182241Y-64270000D01*
X128414759Y-64114637D01*
X128614637Y-63914759D01*
X128771680Y-63679727D01*
X128879853Y-63418574D01*
X128935000Y-63141335D01*
X128935000Y-62858665D01*
X128879853Y-62581426D01*
X128771680Y-62320273D01*
X128614637Y-62085241D01*
X128414759Y-61885363D01*
X128182241Y-61730000D01*
X128414759Y-61574637D01*
X128614637Y-61374759D01*
X128771680Y-61139727D01*
X128879853Y-60878574D01*
X128935000Y-60601335D01*
X128935000Y-60318665D01*
X128879853Y-60041426D01*
X128771680Y-59780273D01*
X128614637Y-59545241D01*
X128414759Y-59345363D01*
X128182241Y-59190000D01*
X128414759Y-59034637D01*
X128614637Y-58834759D01*
X128771680Y-58599727D01*
X128879853Y-58338574D01*
X128935000Y-58061335D01*
X128935000Y-57778665D01*
X128879853Y-57501426D01*
X128771680Y-57240273D01*
X128614637Y-57005241D01*
X128414759Y-56805363D01*
X128179727Y-56648320D01*
X128169135Y-56643933D01*
X128355131Y-56532385D01*
X128563519Y-56343414D01*
X128731037Y-56117420D01*
X128851246Y-55863087D01*
X128891904Y-55729039D01*
X128769915Y-55507000D01*
X127627000Y-55507000D01*
X127627000Y-55527000D01*
X127373000Y-55527000D01*
X127373000Y-55507000D01*
X126230085Y-55507000D01*
X126108096Y-55729039D01*
X126148754Y-55863087D01*
X126268963Y-56117420D01*
X126436481Y-56343414D01*
X126644869Y-56532385D01*
X126830865Y-56643933D01*
X126820273Y-56648320D01*
X126585241Y-56805363D01*
X126385363Y-57005241D01*
X126228320Y-57240273D01*
X126120147Y-57501426D01*
X126065000Y-57778665D01*
X126065000Y-58061335D01*
X126120147Y-58338574D01*
X126228320Y-58599727D01*
X126385363Y-58834759D01*
X126585241Y-59034637D01*
X126817759Y-59190000D01*
X126585241Y-59345363D01*
X126385363Y-59545241D01*
X126228320Y-59780273D01*
X126120147Y-60041426D01*
X126065000Y-60318665D01*
X126065000Y-60601335D01*
X126120147Y-60878574D01*
X126228320Y-61139727D01*
X126385363Y-61374759D01*
X126585241Y-61574637D01*
X126817759Y-61730000D01*
X126585241Y-61885363D01*
X126385363Y-62085241D01*
X126228320Y-62320273D01*
X126120147Y-62581426D01*
X126065000Y-62858665D01*
X126065000Y-63141335D01*
X126120147Y-63418574D01*
X126228320Y-63679727D01*
X126385363Y-63914759D01*
X126585241Y-64114637D01*
X126817759Y-64270000D01*
X126585241Y-64425363D01*
X126385363Y-64625241D01*
X126228320Y-64860273D01*
X126120147Y-65121426D01*
X126065000Y-65398665D01*
X126065000Y-65681335D01*
X126120147Y-65958574D01*
X126228320Y-66219727D01*
X126385363Y-66454759D01*
X126585241Y-66654637D01*
X126817759Y-66810000D01*
X126585241Y-66965363D01*
X126385363Y-67165241D01*
X126228320Y-67400273D01*
X126120147Y-67661426D01*
X126065000Y-67938665D01*
X126065000Y-68221335D01*
X126120147Y-68498574D01*
X126228320Y-68759727D01*
X126385363Y-68994759D01*
X126585241Y-69194637D01*
X126817759Y-69350000D01*
X126585241Y-69505363D01*
X126385363Y-69705241D01*
X126228320Y-69940273D01*
X126120147Y-70201426D01*
X126065000Y-70478665D01*
X126065000Y-70761335D01*
X126120147Y-71038574D01*
X126228320Y-71299727D01*
X126385363Y-71534759D01*
X126585241Y-71734637D01*
X126817759Y-71890000D01*
X126585241Y-72045363D01*
X126385363Y-72245241D01*
X126228320Y-72480273D01*
X126120147Y-72741426D01*
X126065000Y-73018665D01*
X126065000Y-73301335D01*
X126120147Y-73578574D01*
X126228320Y-73839727D01*
X126385363Y-74074759D01*
X126585241Y-74274637D01*
X126817759Y-74430000D01*
X126585241Y-74585363D01*
X126385363Y-74785241D01*
X126228320Y-75020273D01*
X126120147Y-75281426D01*
X126065000Y-75558665D01*
X126065000Y-75841335D01*
X126120147Y-76118574D01*
X126228320Y-76379727D01*
X126385363Y-76614759D01*
X126585241Y-76814637D01*
X126817759Y-76970000D01*
X126585241Y-77125363D01*
X126385363Y-77325241D01*
X126228320Y-77560273D01*
X126120147Y-77821426D01*
X126065000Y-78098665D01*
X126065000Y-78381335D01*
X126120147Y-78658574D01*
X126228320Y-78919727D01*
X126385363Y-79154759D01*
X126585241Y-79354637D01*
X126817759Y-79510000D01*
X126585241Y-79665363D01*
X126385363Y-79865241D01*
X126228320Y-80100273D01*
X126120147Y-80361426D01*
X126065000Y-80638665D01*
X126065000Y-80921335D01*
X126120147Y-81198574D01*
X126228320Y-81459727D01*
X126385363Y-81694759D01*
X126585241Y-81894637D01*
X126817759Y-82050000D01*
X126585241Y-82205363D01*
X126385363Y-82405241D01*
X126228320Y-82640273D01*
X126120147Y-82901426D01*
X126065000Y-83178665D01*
X126065000Y-83461335D01*
X126120147Y-83738574D01*
X126228320Y-83999727D01*
X126385363Y-84234759D01*
X126585241Y-84434637D01*
X126817759Y-84590000D01*
X126585241Y-84745363D01*
X126385363Y-84945241D01*
X126365479Y-84975000D01*
X126226579Y-84975000D01*
X124885000Y-83633422D01*
X124885000Y-52366578D01*
X125366579Y-51885000D01*
X126425604Y-51885000D01*
X126385363Y-51925241D01*
G37*
%TD.AperFunction*%
%TD*%
M02*
