%TF.GenerationSoftware,KiCad,Pcbnew,(5.1.10)-1*%
%TF.CreationDate,2021-09-13T09:28:10+02:00*%
%TF.ProjectId,CarteRecepteur,43617274-6552-4656-9365-70746575722e,rev?*%
%TF.SameCoordinates,Original*%
%TF.FileFunction,Copper,L2,Bot*%
%TF.FilePolarity,Positive*%
%FSLAX46Y46*%
G04 Gerber Fmt 4.6, Leading zero omitted, Abs format (unit mm)*
G04 Created by KiCad (PCBNEW (5.1.10)-1) date 2021-09-13 09:28:10*
%MOMM*%
%LPD*%
G01*
G04 APERTURE LIST*
%TA.AperFunction,ComponentPad*%
%ADD10C,3.500000*%
%TD*%
%TA.AperFunction,ComponentPad*%
%ADD11O,1.600000X1.600000*%
%TD*%
%TA.AperFunction,ComponentPad*%
%ADD12R,1.600000X1.600000*%
%TD*%
%TA.AperFunction,ComponentPad*%
%ADD13C,1.600000*%
%TD*%
%TA.AperFunction,ComponentPad*%
%ADD14O,1.700000X1.700000*%
%TD*%
%TA.AperFunction,ComponentPad*%
%ADD15R,1.700000X1.700000*%
%TD*%
G04 APERTURE END LIST*
D10*
%TO.P,H2,1*%
%TO.N,N/C*%
X138000000Y-92000000D03*
%TD*%
%TO.P,H1,1*%
%TO.N,N/C*%
X108000000Y-48000000D03*
%TD*%
D11*
%TO.P,A1,16*%
%TO.N,/SCK*%
X127500000Y-88400000D03*
%TO.P,A1,15*%
%TO.N,/MISO*%
X112260000Y-88400000D03*
%TO.P,A1,30*%
%TO.N,N/C*%
X127500000Y-52840000D03*
%TO.P,A1,14*%
%TO.N,/MOSI*%
X112260000Y-85860000D03*
%TO.P,A1,29*%
%TO.N,GND*%
X127500000Y-55380000D03*
%TO.P,A1,13*%
%TO.N,/CS*%
X112260000Y-83320000D03*
%TO.P,A1,28*%
%TO.N,N/C*%
X127500000Y-57920000D03*
%TO.P,A1,12*%
X112260000Y-80780000D03*
%TO.P,A1,27*%
X127500000Y-60460000D03*
%TO.P,A1,11*%
X112260000Y-78240000D03*
%TO.P,A1,26*%
X127500000Y-63000000D03*
%TO.P,A1,10*%
X112260000Y-75700000D03*
%TO.P,A1,25*%
X127500000Y-65540000D03*
%TO.P,A1,9*%
X112260000Y-73160000D03*
%TO.P,A1,24*%
X127500000Y-68080000D03*
%TO.P,A1,8*%
X112260000Y-70620000D03*
%TO.P,A1,23*%
%TO.N,/CE*%
X127500000Y-70620000D03*
%TO.P,A1,7*%
%TO.N,N/C*%
X112260000Y-68080000D03*
%TO.P,A1,22*%
X127500000Y-73160000D03*
%TO.P,A1,6*%
X112260000Y-65540000D03*
%TO.P,A1,21*%
X127500000Y-75700000D03*
%TO.P,A1,5*%
X112260000Y-63000000D03*
%TO.P,A1,20*%
X127500000Y-78240000D03*
%TO.P,A1,4*%
%TO.N,GND*%
X112260000Y-60460000D03*
%TO.P,A1,19*%
%TO.N,N/C*%
X127500000Y-80780000D03*
%TO.P,A1,3*%
X112260000Y-57920000D03*
%TO.P,A1,18*%
X127500000Y-83320000D03*
%TO.P,A1,2*%
X112260000Y-55380000D03*
%TO.P,A1,17*%
%TO.N,+3V3*%
X127500000Y-85860000D03*
D12*
%TO.P,A1,1*%
%TO.N,N/C*%
X112260000Y-52840000D03*
%TD*%
D13*
%TO.P,C1,2*%
%TO.N,GND*%
X136000000Y-61500000D03*
D12*
%TO.P,C1,1*%
%TO.N,+3V3*%
X136000000Y-64000000D03*
%TD*%
D14*
%TO.P,J1,8*%
%TO.N,N/C*%
X136540000Y-76620000D03*
%TO.P,J1,7*%
%TO.N,/MISO*%
X134000000Y-76620000D03*
%TO.P,J1,6*%
%TO.N,/MOSI*%
X136540000Y-74080000D03*
%TO.P,J1,5*%
%TO.N,/SCK*%
X134000000Y-74080000D03*
%TO.P,J1,4*%
%TO.N,/CS*%
X136540000Y-71540000D03*
%TO.P,J1,3*%
%TO.N,/CE*%
X134000000Y-71540000D03*
%TO.P,J1,2*%
%TO.N,+3V3*%
X136540000Y-69000000D03*
D15*
%TO.P,J1,1*%
%TO.N,GND*%
X134000000Y-69000000D03*
%TD*%
M02*
