%TF.GenerationSoftware,KiCad,Pcbnew,(5.1.10)-1*%
%TF.CreationDate,2021-08-21T13:40:32+02:00*%
%TF.ProjectId,CarteRobot-Teensy,43617274-6552-46f6-926f-742d5465656e,rev?*%
%TF.SameCoordinates,Original*%
%TF.FileFunction,Soldermask,Top*%
%TF.FilePolarity,Negative*%
%FSLAX46Y46*%
G04 Gerber Fmt 4.6, Leading zero omitted, Abs format (unit mm)*
G04 Created by KiCad (PCBNEW (5.1.10)-1) date 2021-08-21 13:40:32*
%MOMM*%
%LPD*%
G01*
G04 APERTURE LIST*
%ADD10C,2.000000*%
%ADD11R,2.000000X2.000000*%
%ADD12C,1.600000*%
%ADD13O,1.600000X1.600000*%
%ADD14O,1.700000X1.700000*%
%ADD15R,1.700000X1.700000*%
%ADD16C,1.800000*%
%ADD17R,1.800000X1.800000*%
%ADD18R,1.600000X1.600000*%
%ADD19O,1.740000X2.190000*%
%ADD20O,1.950000X1.700000*%
%ADD21C,5.600000*%
%ADD22O,2.250000X4.500000*%
%ADD23O,1.500000X2.500000*%
%ADD24R,1.500000X2.500000*%
%ADD25O,2.190000X1.740000*%
%ADD26O,2.200000X2.200000*%
%ADD27R,2.200000X2.200000*%
G04 APERTURE END LIST*
D10*
%TO.C,J5*%
X90240000Y-118880000D03*
X75000000Y-118880000D03*
X90240000Y-116340000D03*
X75000000Y-116340000D03*
X90240000Y-113800000D03*
X75000000Y-113800000D03*
X90240000Y-111260000D03*
X75000000Y-111260000D03*
X90240000Y-108720000D03*
X75000000Y-108720000D03*
X90240000Y-106180000D03*
X75000000Y-106180000D03*
X90240000Y-103640000D03*
X75000000Y-103640000D03*
X90240000Y-101100000D03*
X75000000Y-101100000D03*
X90240000Y-98560000D03*
X75000000Y-98560000D03*
X90240000Y-96020000D03*
X75000000Y-96020000D03*
X90240000Y-93480000D03*
X75000000Y-93480000D03*
X90240000Y-90940000D03*
X75000000Y-90940000D03*
X90240000Y-88400000D03*
X75000000Y-88400000D03*
X90240000Y-85860000D03*
X75000000Y-85860000D03*
X90240000Y-83320000D03*
X75000000Y-83320000D03*
X90240000Y-80780000D03*
X75000000Y-80780000D03*
X90240000Y-78240000D03*
X75000000Y-78240000D03*
X90240000Y-75700000D03*
X75000000Y-75700000D03*
X90240000Y-73160000D03*
X75000000Y-73160000D03*
X90240000Y-70620000D03*
X75000000Y-70620000D03*
X90240000Y-68080000D03*
X75000000Y-68080000D03*
X90240000Y-65540000D03*
X75000000Y-65540000D03*
X90240000Y-63000000D03*
D11*
X75000000Y-63000000D03*
D10*
X75000000Y-121420000D03*
X90240000Y-121420000D03*
%TD*%
D12*
%TO.C,R14*%
X67564000Y-60706000D03*
D13*
X57404000Y-60706000D03*
%TD*%
D14*
%TO.C,J22*%
X67056000Y-64516000D03*
X67056000Y-67056000D03*
D15*
X67056000Y-69596000D03*
%TD*%
D16*
%TO.C,D3*%
X61214000Y-64770000D03*
D17*
X61214000Y-67310000D03*
%TD*%
D12*
%TO.C,C5*%
X101600000Y-65056000D03*
D18*
X101600000Y-67056000D03*
%TD*%
D12*
%TO.C,C4*%
X110744000Y-61468000D03*
D18*
X108744000Y-61468000D03*
%TD*%
D19*
%TO.C,J21*%
X100330000Y-81280000D03*
G36*
G01*
X103740000Y-80434999D02*
X103740000Y-82125001D01*
G75*
G02*
X103490001Y-82375000I-249999J0D01*
G01*
X102249999Y-82375000D01*
G75*
G02*
X102000000Y-82125001I0J249999D01*
G01*
X102000000Y-80434999D01*
G75*
G02*
X102249999Y-80185000I249999J0D01*
G01*
X103490001Y-80185000D01*
G75*
G02*
X103740000Y-80434999I0J-249999D01*
G01*
G37*
%TD*%
D13*
%TO.C,R13*%
X65278000Y-72593200D03*
D12*
X65278000Y-82753200D03*
%TD*%
D13*
%TO.C,R12*%
X68935600Y-75692000D03*
D12*
X68935600Y-85852000D03*
%TD*%
D10*
%TO.C,J15*%
X86106000Y-85293200D03*
X86106000Y-82753200D03*
X86106000Y-80213200D03*
X86106000Y-77673200D03*
X86106000Y-75133200D03*
X86106000Y-72593200D03*
X60706000Y-85293200D03*
X60706000Y-82753200D03*
X60706000Y-80213200D03*
X60706000Y-77673200D03*
X60706000Y-75133200D03*
D11*
X60706000Y-72593200D03*
%TD*%
D13*
%TO.C,R11*%
X127000000Y-85160000D03*
D12*
X127000000Y-75000000D03*
%TD*%
D13*
%TO.C,R10*%
X123000000Y-85160000D03*
D12*
X123000000Y-75000000D03*
%TD*%
D13*
%TO.C,R7*%
X119000000Y-85160000D03*
D12*
X119000000Y-75000000D03*
%TD*%
D13*
%TO.C,R6*%
X115000000Y-85160000D03*
D12*
X115000000Y-75000000D03*
%TD*%
D19*
%TO.C,J20*%
X143510000Y-83820000D03*
G36*
G01*
X146920000Y-82974999D02*
X146920000Y-84665001D01*
G75*
G02*
X146670001Y-84915000I-249999J0D01*
G01*
X145429999Y-84915000D01*
G75*
G02*
X145180000Y-84665001I0J249999D01*
G01*
X145180000Y-82974999D01*
G75*
G02*
X145429999Y-82725000I249999J0D01*
G01*
X146670001Y-82725000D01*
G75*
G02*
X146920000Y-82974999I0J-249999D01*
G01*
G37*
%TD*%
%TO.C,J18*%
X143510000Y-73660000D03*
G36*
G01*
X146920000Y-72814999D02*
X146920000Y-74505001D01*
G75*
G02*
X146670001Y-74755000I-249999J0D01*
G01*
X145429999Y-74755000D01*
G75*
G02*
X145180000Y-74505001I0J249999D01*
G01*
X145180000Y-72814999D01*
G75*
G02*
X145429999Y-72565000I249999J0D01*
G01*
X146670001Y-72565000D01*
G75*
G02*
X146920000Y-72814999I0J-249999D01*
G01*
G37*
%TD*%
%TO.C,J17*%
X134620000Y-83820000D03*
G36*
G01*
X138030000Y-82974999D02*
X138030000Y-84665001D01*
G75*
G02*
X137780001Y-84915000I-249999J0D01*
G01*
X136539999Y-84915000D01*
G75*
G02*
X136290000Y-84665001I0J249999D01*
G01*
X136290000Y-82974999D01*
G75*
G02*
X136539999Y-82725000I249999J0D01*
G01*
X137780001Y-82725000D01*
G75*
G02*
X138030000Y-82974999I0J-249999D01*
G01*
G37*
%TD*%
%TO.C,J16*%
X134620000Y-73660000D03*
G36*
G01*
X138030000Y-72814999D02*
X138030000Y-74505001D01*
G75*
G02*
X137780001Y-74755000I-249999J0D01*
G01*
X136539999Y-74755000D01*
G75*
G02*
X136290000Y-74505001I0J249999D01*
G01*
X136290000Y-72814999D01*
G75*
G02*
X136539999Y-72565000I249999J0D01*
G01*
X137780001Y-72565000D01*
G75*
G02*
X138030000Y-72814999I0J-249999D01*
G01*
G37*
%TD*%
D20*
%TO.C,J7*%
X145000000Y-126500000D03*
X145000000Y-124000000D03*
X145000000Y-121500000D03*
G36*
G01*
X144275000Y-118150000D02*
X145725000Y-118150000D01*
G75*
G02*
X145975000Y-118400000I0J-250000D01*
G01*
X145975000Y-119600000D01*
G75*
G02*
X145725000Y-119850000I-250000J0D01*
G01*
X144275000Y-119850000D01*
G75*
G02*
X144025000Y-119600000I0J250000D01*
G01*
X144025000Y-118400000D01*
G75*
G02*
X144275000Y-118150000I250000J0D01*
G01*
G37*
%TD*%
%TO.C,J6*%
X145000000Y-103867600D03*
X145000000Y-101367600D03*
X145000000Y-98867600D03*
G36*
G01*
X144275000Y-95517600D02*
X145725000Y-95517600D01*
G75*
G02*
X145975000Y-95767600I0J-250000D01*
G01*
X145975000Y-96967600D01*
G75*
G02*
X145725000Y-97217600I-250000J0D01*
G01*
X144275000Y-97217600D01*
G75*
G02*
X144025000Y-96967600I0J250000D01*
G01*
X144025000Y-95767600D01*
G75*
G02*
X144275000Y-95517600I250000J0D01*
G01*
G37*
%TD*%
D12*
%TO.C,C2*%
X132500000Y-111000000D03*
D18*
X135000000Y-111000000D03*
%TD*%
D12*
%TO.C,C1*%
X104902000Y-91480000D03*
D18*
X104902000Y-93980000D03*
%TD*%
D12*
%TO.C,C3*%
X63500000Y-105886000D03*
D18*
X63500000Y-103886000D03*
%TD*%
D12*
%TO.C,R9*%
X82550000Y-126619000D03*
D13*
X72390000Y-126619000D03*
%TD*%
D12*
%TO.C,R8*%
X84582000Y-130175000D03*
D13*
X74422000Y-130175000D03*
%TD*%
%TO.C,R5*%
X68961000Y-116332000D03*
D12*
X68961000Y-126492000D03*
%TD*%
D13*
%TO.C,R4*%
X65405000Y-119340000D03*
D12*
X65405000Y-129500000D03*
%TD*%
D13*
%TO.C,R3*%
X110160000Y-74930000D03*
D12*
X100000000Y-74930000D03*
%TD*%
D13*
%TO.C,R2*%
X96520000Y-72660000D03*
D12*
X96520000Y-62500000D03*
%TD*%
D14*
%TO.C,J9*%
X111000000Y-119920000D03*
X111000000Y-122460000D03*
D15*
X111000000Y-125000000D03*
%TD*%
D21*
%TO.C,H2*%
X145000000Y-135000000D03*
%TD*%
%TO.C,J19*%
G36*
G01*
X96990000Y-134536999D02*
X96990000Y-136227001D01*
G75*
G02*
X96740001Y-136477000I-249999J0D01*
G01*
X95499999Y-136477000D01*
G75*
G02*
X95250000Y-136227001I0J249999D01*
G01*
X95250000Y-134536999D01*
G75*
G02*
X95499999Y-134287000I249999J0D01*
G01*
X96740001Y-134287000D01*
G75*
G02*
X96990000Y-134536999I0J-249999D01*
G01*
G37*
D19*
X93580000Y-135382000D03*
X91040000Y-135382000D03*
X88500000Y-135382000D03*
%TD*%
D16*
%TO.C,D1*%
X126492000Y-67056000D03*
D17*
X126492000Y-69596000D03*
%TD*%
%TO.C,J11*%
G36*
G01*
X79229000Y-134663999D02*
X79229000Y-136354001D01*
G75*
G02*
X78979001Y-136604000I-249999J0D01*
G01*
X77738999Y-136604000D01*
G75*
G02*
X77489000Y-136354001I0J249999D01*
G01*
X77489000Y-134663999D01*
G75*
G02*
X77738999Y-134414000I249999J0D01*
G01*
X78979001Y-134414000D01*
G75*
G02*
X79229000Y-134663999I0J-249999D01*
G01*
G37*
D19*
X75819000Y-135509000D03*
X73279000Y-135509000D03*
X70739000Y-135509000D03*
X68199000Y-135509000D03*
%TD*%
D22*
%TO.C,J2*%
X137713600Y-55000000D03*
X134213600Y-55000000D03*
%TD*%
D23*
%TO.C,U1*%
X108712000Y-67056000D03*
X111252000Y-67056000D03*
D24*
X113792000Y-67056000D03*
%TD*%
D21*
%TO.C,H4*%
X60000000Y-135000000D03*
%TD*%
D15*
%TO.C,J14*%
X66000000Y-99620000D03*
D14*
X63460000Y-99620000D03*
X66000000Y-97080000D03*
X63460000Y-97080000D03*
X66000000Y-94540000D03*
X63460000Y-94540000D03*
X66000000Y-92000000D03*
X63460000Y-92000000D03*
%TD*%
%TO.C,J10*%
X119000000Y-119920000D03*
X119000000Y-122460000D03*
D15*
X119000000Y-125000000D03*
%TD*%
D13*
%TO.C,R1*%
X120650000Y-60960000D03*
D12*
X120650000Y-71120000D03*
%TD*%
D10*
%TO.C,F1*%
X117602000Y-55000000D03*
X112522000Y-55000000D03*
%TD*%
D19*
%TO.C,J4*%
X97500000Y-55000000D03*
G36*
G01*
X94090000Y-55845001D02*
X94090000Y-54154999D01*
G75*
G02*
X94339999Y-53905000I249999J0D01*
G01*
X95580001Y-53905000D01*
G75*
G02*
X95830000Y-54154999I0J-249999D01*
G01*
X95830000Y-55845001D01*
G75*
G02*
X95580001Y-56095000I-249999J0D01*
G01*
X94339999Y-56095000D01*
G75*
G02*
X94090000Y-55845001I0J249999D01*
G01*
G37*
%TD*%
D21*
%TO.C,H1*%
X145000000Y-55000000D03*
%TD*%
D18*
%TO.C,A2*%
X139000000Y-134000000D03*
D13*
X126300000Y-116220000D03*
X139000000Y-131460000D03*
X126300000Y-118760000D03*
X139000000Y-128920000D03*
X126300000Y-121300000D03*
X139000000Y-126380000D03*
X126300000Y-123840000D03*
X139000000Y-123840000D03*
X126300000Y-126380000D03*
X139000000Y-121300000D03*
X126300000Y-128920000D03*
X139000000Y-118760000D03*
X126300000Y-131460000D03*
X139000000Y-116220000D03*
X126300000Y-134000000D03*
%TD*%
D21*
%TO.C,H3*%
X60000000Y-55000000D03*
%TD*%
D19*
%TO.C,J13*%
X75080000Y-55000000D03*
X72540000Y-55000000D03*
X70000000Y-55000000D03*
G36*
G01*
X66590000Y-55845001D02*
X66590000Y-54154999D01*
G75*
G02*
X66839999Y-53905000I249999J0D01*
G01*
X68080001Y-53905000D01*
G75*
G02*
X68330000Y-54154999I0J-249999D01*
G01*
X68330000Y-55845001D01*
G75*
G02*
X68080001Y-56095000I-249999J0D01*
G01*
X66839999Y-56095000D01*
G75*
G02*
X66590000Y-55845001I0J249999D01*
G01*
G37*
%TD*%
D14*
%TO.C,J8*%
X102000000Y-119920000D03*
X102000000Y-122460000D03*
D15*
X102000000Y-125000000D03*
%TD*%
D25*
%TO.C,J12*%
X60000000Y-114460000D03*
X60000000Y-117000000D03*
X60000000Y-119540000D03*
X60000000Y-122080000D03*
G36*
G01*
X60845001Y-125490000D02*
X59154999Y-125490000D01*
G75*
G02*
X58905000Y-125240001I0J249999D01*
G01*
X58905000Y-123999999D01*
G75*
G02*
X59154999Y-123750000I249999J0D01*
G01*
X60845001Y-123750000D01*
G75*
G02*
X61095000Y-123999999I0J-249999D01*
G01*
X61095000Y-125240001D01*
G75*
G02*
X60845001Y-125490000I-249999J0D01*
G01*
G37*
%TD*%
D19*
%TO.C,J3*%
X106000000Y-55000000D03*
G36*
G01*
X102590000Y-55845001D02*
X102590000Y-54154999D01*
G75*
G02*
X102839999Y-53905000I249999J0D01*
G01*
X104080001Y-53905000D01*
G75*
G02*
X104330000Y-54154999I0J-249999D01*
G01*
X104330000Y-55845001D01*
G75*
G02*
X104080001Y-56095000I-249999J0D01*
G01*
X102839999Y-56095000D01*
G75*
G02*
X102590000Y-55845001I0J249999D01*
G01*
G37*
%TD*%
D22*
%TO.C,J1*%
X127000000Y-55000000D03*
X123500000Y-55000000D03*
%TD*%
D26*
%TO.C,D2*%
X137160000Y-62484000D03*
D27*
X127000000Y-62484000D03*
%TD*%
D18*
%TO.C,A1*%
X121000000Y-99000000D03*
D13*
X103220000Y-111700000D03*
X118460000Y-99000000D03*
X105760000Y-111700000D03*
X115920000Y-99000000D03*
X108300000Y-111700000D03*
X113380000Y-99000000D03*
X110840000Y-111700000D03*
X110840000Y-99000000D03*
X113380000Y-111700000D03*
X108300000Y-99000000D03*
X115920000Y-111700000D03*
X105760000Y-99000000D03*
X118460000Y-111700000D03*
X103220000Y-99000000D03*
X121000000Y-111700000D03*
%TD*%
M02*
