%TF.GenerationSoftware,KiCad,Pcbnew,(5.1.10)-1*%
%TF.CreationDate,2021-08-21T13:40:32+02:00*%
%TF.ProjectId,CarteRobot-Teensy,43617274-6552-46f6-926f-742d5465656e,rev?*%
%TF.SameCoordinates,Original*%
%TF.FileFunction,Legend,Bot*%
%TF.FilePolarity,Positive*%
%FSLAX46Y46*%
G04 Gerber Fmt 4.6, Leading zero omitted, Abs format (unit mm)*
G04 Created by KiCad (PCBNEW (5.1.10)-1) date 2021-08-21 13:40:32*
%MOMM*%
%LPD*%
G01*
G04 APERTURE LIST*
%ADD10C,0.120000*%
%ADD11C,0.150000*%
G04 APERTURE END LIST*
D10*
%TO.C,J15*%
X58166000Y-87833200D02*
X58166000Y-70053200D01*
X87376000Y-89103200D02*
X59436000Y-89103200D01*
X88646000Y-70053200D02*
X88646000Y-87833200D01*
X59436000Y-68783200D02*
X87376000Y-68783200D01*
X88646000Y-70053200D02*
G75*
G03*
X87376000Y-68783200I-1270000J0D01*
G01*
X87376000Y-89103200D02*
G75*
G03*
X88646000Y-87833200I0J1270000D01*
G01*
X58166000Y-87833200D02*
G75*
G03*
X59436000Y-89103200I1270000J0D01*
G01*
X59436000Y-68783200D02*
G75*
G03*
X58166000Y-70053200I0J-1270000D01*
G01*
D11*
X84629523Y-67321180D02*
X84629523Y-68035466D01*
X84677142Y-68178323D01*
X84772380Y-68273561D01*
X84915238Y-68321180D01*
X85010476Y-68321180D01*
X83629523Y-68321180D02*
X84200952Y-68321180D01*
X83915238Y-68321180D02*
X83915238Y-67321180D01*
X84010476Y-67464038D01*
X84105714Y-67559276D01*
X84200952Y-67606895D01*
X82724761Y-67321180D02*
X83200952Y-67321180D01*
X83248571Y-67797371D01*
X83200952Y-67749752D01*
X83105714Y-67702133D01*
X82867619Y-67702133D01*
X82772380Y-67749752D01*
X82724761Y-67797371D01*
X82677142Y-67892609D01*
X82677142Y-68130704D01*
X82724761Y-68225942D01*
X82772380Y-68273561D01*
X82867619Y-68321180D01*
X83105714Y-68321180D01*
X83200952Y-68273561D01*
X83248571Y-68225942D01*
%TD*%
M02*
