%TF.GenerationSoftware,KiCad,Pcbnew,(5.1.10)-1*%
%TF.CreationDate,2021-08-21T13:40:31+02:00*%
%TF.ProjectId,CarteRobot-Teensy,43617274-6552-46f6-926f-742d5465656e,rev?*%
%TF.SameCoordinates,Original*%
%TF.FileFunction,Legend,Top*%
%TF.FilePolarity,Positive*%
%FSLAX46Y46*%
G04 Gerber Fmt 4.6, Leading zero omitted, Abs format (unit mm)*
G04 Created by KiCad (PCBNEW (5.1.10)-1) date 2021-08-21 13:40:31*
%MOMM*%
%LPD*%
G01*
G04 APERTURE LIST*
%ADD10C,0.300000*%
%ADD11C,0.120000*%
%ADD12C,0.150000*%
G04 APERTURE END LIST*
D10*
X112710000Y-93245714D02*
X112638571Y-93317142D01*
X112424285Y-93388571D01*
X112281428Y-93388571D01*
X112067142Y-93317142D01*
X111924285Y-93174285D01*
X111852857Y-93031428D01*
X111781428Y-92745714D01*
X111781428Y-92531428D01*
X111852857Y-92245714D01*
X111924285Y-92102857D01*
X112067142Y-91960000D01*
X112281428Y-91888571D01*
X112424285Y-91888571D01*
X112638571Y-91960000D01*
X112710000Y-92031428D01*
X113995714Y-93388571D02*
X113995714Y-92602857D01*
X113924285Y-92460000D01*
X113781428Y-92388571D01*
X113495714Y-92388571D01*
X113352857Y-92460000D01*
X113995714Y-93317142D02*
X113852857Y-93388571D01*
X113495714Y-93388571D01*
X113352857Y-93317142D01*
X113281428Y-93174285D01*
X113281428Y-93031428D01*
X113352857Y-92888571D01*
X113495714Y-92817142D01*
X113852857Y-92817142D01*
X113995714Y-92745714D01*
X114710000Y-93388571D02*
X114710000Y-92388571D01*
X114710000Y-92674285D02*
X114781428Y-92531428D01*
X114852857Y-92460000D01*
X114995714Y-92388571D01*
X115138571Y-92388571D01*
X115424285Y-92388571D02*
X115995714Y-92388571D01*
X115638571Y-91888571D02*
X115638571Y-93174285D01*
X115710000Y-93317142D01*
X115852857Y-93388571D01*
X115995714Y-93388571D01*
X117067142Y-93317142D02*
X116924285Y-93388571D01*
X116638571Y-93388571D01*
X116495714Y-93317142D01*
X116424285Y-93174285D01*
X116424285Y-92602857D01*
X116495714Y-92460000D01*
X116638571Y-92388571D01*
X116924285Y-92388571D01*
X117067142Y-92460000D01*
X117138571Y-92602857D01*
X117138571Y-92745714D01*
X116424285Y-92888571D01*
X119781428Y-93388571D02*
X119281428Y-92674285D01*
X118924285Y-93388571D02*
X118924285Y-91888571D01*
X119495714Y-91888571D01*
X119638571Y-91960000D01*
X119710000Y-92031428D01*
X119781428Y-92174285D01*
X119781428Y-92388571D01*
X119710000Y-92531428D01*
X119638571Y-92602857D01*
X119495714Y-92674285D01*
X118924285Y-92674285D01*
X120638571Y-93388571D02*
X120495714Y-93317142D01*
X120424285Y-93245714D01*
X120352857Y-93102857D01*
X120352857Y-92674285D01*
X120424285Y-92531428D01*
X120495714Y-92460000D01*
X120638571Y-92388571D01*
X120852857Y-92388571D01*
X120995714Y-92460000D01*
X121067142Y-92531428D01*
X121138571Y-92674285D01*
X121138571Y-93102857D01*
X121067142Y-93245714D01*
X120995714Y-93317142D01*
X120852857Y-93388571D01*
X120638571Y-93388571D01*
X121781428Y-93388571D02*
X121781428Y-91888571D01*
X121781428Y-92460000D02*
X121924285Y-92388571D01*
X122210000Y-92388571D01*
X122352857Y-92460000D01*
X122424285Y-92531428D01*
X122495714Y-92674285D01*
X122495714Y-93102857D01*
X122424285Y-93245714D01*
X122352857Y-93317142D01*
X122210000Y-93388571D01*
X121924285Y-93388571D01*
X121781428Y-93317142D01*
X123352857Y-93388571D02*
X123210000Y-93317142D01*
X123138571Y-93245714D01*
X123067142Y-93102857D01*
X123067142Y-92674285D01*
X123138571Y-92531428D01*
X123210000Y-92460000D01*
X123352857Y-92388571D01*
X123567142Y-92388571D01*
X123710000Y-92460000D01*
X123781428Y-92531428D01*
X123852857Y-92674285D01*
X123852857Y-93102857D01*
X123781428Y-93245714D01*
X123710000Y-93317142D01*
X123567142Y-93388571D01*
X123352857Y-93388571D01*
X124281428Y-92388571D02*
X124852857Y-92388571D01*
X124495714Y-91888571D02*
X124495714Y-93174285D01*
X124567142Y-93317142D01*
X124710000Y-93388571D01*
X124852857Y-93388571D01*
X126281428Y-91888571D02*
X127138571Y-91888571D01*
X126710000Y-93388571D02*
X126710000Y-91888571D01*
X128210000Y-93317142D02*
X128067142Y-93388571D01*
X127781428Y-93388571D01*
X127638571Y-93317142D01*
X127567142Y-93174285D01*
X127567142Y-92602857D01*
X127638571Y-92460000D01*
X127781428Y-92388571D01*
X128067142Y-92388571D01*
X128210000Y-92460000D01*
X128281428Y-92602857D01*
X128281428Y-92745714D01*
X127567142Y-92888571D01*
X129495714Y-93317142D02*
X129352857Y-93388571D01*
X129067142Y-93388571D01*
X128924285Y-93317142D01*
X128852857Y-93174285D01*
X128852857Y-92602857D01*
X128924285Y-92460000D01*
X129067142Y-92388571D01*
X129352857Y-92388571D01*
X129495714Y-92460000D01*
X129567142Y-92602857D01*
X129567142Y-92745714D01*
X128852857Y-92888571D01*
X130210000Y-92388571D02*
X130210000Y-93388571D01*
X130210000Y-92531428D02*
X130281428Y-92460000D01*
X130424285Y-92388571D01*
X130638571Y-92388571D01*
X130781428Y-92460000D01*
X130852857Y-92602857D01*
X130852857Y-93388571D01*
X131495714Y-93317142D02*
X131638571Y-93388571D01*
X131924285Y-93388571D01*
X132067142Y-93317142D01*
X132138571Y-93174285D01*
X132138571Y-93102857D01*
X132067142Y-92960000D01*
X131924285Y-92888571D01*
X131710000Y-92888571D01*
X131567142Y-92817142D01*
X131495714Y-92674285D01*
X131495714Y-92602857D01*
X131567142Y-92460000D01*
X131710000Y-92388571D01*
X131924285Y-92388571D01*
X132067142Y-92460000D01*
X132638571Y-92388571D02*
X132995714Y-93388571D01*
X133352857Y-92388571D02*
X132995714Y-93388571D01*
X132852857Y-93745714D01*
X132781428Y-93817142D01*
X132638571Y-93888571D01*
X134852857Y-91888571D02*
X135352857Y-93388571D01*
X135852857Y-91888571D01*
X137138571Y-93388571D02*
X136281428Y-93388571D01*
X136710000Y-93388571D02*
X136710000Y-91888571D01*
X136567142Y-92102857D01*
X136424285Y-92245714D01*
X136281428Y-92317142D01*
D11*
%TO.C,J5*%
X85160000Y-109640000D02*
X80080000Y-109640000D01*
X80080000Y-109640000D02*
X80080000Y-107100000D01*
X80080000Y-107100000D02*
X85160000Y-107100000D01*
X85160000Y-107100000D02*
X85160000Y-109640000D01*
X78500000Y-66000000D02*
X78500000Y-60500000D01*
X78500000Y-60500000D02*
X86500000Y-60500000D01*
X86500000Y-60500000D02*
X86500000Y-66000000D01*
X78500000Y-66000000D02*
X86500000Y-66000000D01*
X72460000Y-123960000D02*
X72460000Y-60460000D01*
X92780000Y-123960000D02*
X72460000Y-123960000D01*
X92780000Y-60460000D02*
X92780000Y-123960000D01*
X72460000Y-60460000D02*
X92780000Y-60460000D01*
%TO.C,R14*%
X58444000Y-60706000D02*
X59214000Y-60706000D01*
X66524000Y-60706000D02*
X65754000Y-60706000D01*
X59214000Y-62076000D02*
X65754000Y-62076000D01*
X59214000Y-59336000D02*
X59214000Y-62076000D01*
X65754000Y-59336000D02*
X59214000Y-59336000D01*
X65754000Y-62076000D02*
X65754000Y-59336000D01*
%TO.C,J22*%
X68386000Y-63186000D02*
X65726000Y-63186000D01*
X68386000Y-68326000D02*
X68386000Y-63186000D01*
X65726000Y-68326000D02*
X65726000Y-63186000D01*
X68386000Y-68326000D02*
X65726000Y-68326000D01*
X68386000Y-69596000D02*
X68386000Y-70926000D01*
X68386000Y-70926000D02*
X67056000Y-70926000D01*
%TO.C,D3*%
X59669000Y-68600000D02*
X62759000Y-68600000D01*
X63714000Y-66040000D02*
G75*
G03*
X63714000Y-66040000I-2500000J0D01*
G01*
X61213538Y-63050000D02*
G75*
G02*
X62758830Y-68600000I462J-2990000D01*
G01*
X61214462Y-63050000D02*
G75*
G03*
X59669170Y-68600000I-462J-2990000D01*
G01*
%TO.C,C5*%
X99875000Y-68610775D02*
X100375000Y-68610775D01*
X100125000Y-68860775D02*
X100125000Y-68360775D01*
X101316000Y-63455000D02*
X101884000Y-63455000D01*
X101082000Y-63495000D02*
X102118000Y-63495000D01*
X100923000Y-63535000D02*
X102277000Y-63535000D01*
X100795000Y-63575000D02*
X102405000Y-63575000D01*
X100685000Y-63615000D02*
X102515000Y-63615000D01*
X100589000Y-63655000D02*
X102611000Y-63655000D01*
X100502000Y-63695000D02*
X102698000Y-63695000D01*
X100422000Y-63735000D02*
X102778000Y-63735000D01*
X100349000Y-63775000D02*
X102851000Y-63775000D01*
X100281000Y-63815000D02*
X102919000Y-63815000D01*
X100217000Y-63855000D02*
X102983000Y-63855000D01*
X100157000Y-63895000D02*
X103043000Y-63895000D01*
X100100000Y-63935000D02*
X103100000Y-63935000D01*
X100046000Y-63975000D02*
X103154000Y-63975000D01*
X99995000Y-64015000D02*
X103205000Y-64015000D01*
X102640000Y-64055000D02*
X103253000Y-64055000D01*
X99947000Y-64055000D02*
X100560000Y-64055000D01*
X102640000Y-64095000D02*
X103299000Y-64095000D01*
X99901000Y-64095000D02*
X100560000Y-64095000D01*
X102640000Y-64135000D02*
X103343000Y-64135000D01*
X99857000Y-64135000D02*
X100560000Y-64135000D01*
X102640000Y-64175000D02*
X103385000Y-64175000D01*
X99815000Y-64175000D02*
X100560000Y-64175000D01*
X102640000Y-64215000D02*
X103426000Y-64215000D01*
X99774000Y-64215000D02*
X100560000Y-64215000D01*
X102640000Y-64255000D02*
X103464000Y-64255000D01*
X99736000Y-64255000D02*
X100560000Y-64255000D01*
X102640000Y-64295000D02*
X103501000Y-64295000D01*
X99699000Y-64295000D02*
X100560000Y-64295000D01*
X102640000Y-64335000D02*
X103537000Y-64335000D01*
X99663000Y-64335000D02*
X100560000Y-64335000D01*
X102640000Y-64375000D02*
X103571000Y-64375000D01*
X99629000Y-64375000D02*
X100560000Y-64375000D01*
X102640000Y-64415000D02*
X103604000Y-64415000D01*
X99596000Y-64415000D02*
X100560000Y-64415000D01*
X102640000Y-64455000D02*
X103635000Y-64455000D01*
X99565000Y-64455000D02*
X100560000Y-64455000D01*
X102640000Y-64495000D02*
X103665000Y-64495000D01*
X99535000Y-64495000D02*
X100560000Y-64495000D01*
X102640000Y-64535000D02*
X103695000Y-64535000D01*
X99505000Y-64535000D02*
X100560000Y-64535000D01*
X102640000Y-64575000D02*
X103722000Y-64575000D01*
X99478000Y-64575000D02*
X100560000Y-64575000D01*
X102640000Y-64615000D02*
X103749000Y-64615000D01*
X99451000Y-64615000D02*
X100560000Y-64615000D01*
X102640000Y-64655000D02*
X103775000Y-64655000D01*
X99425000Y-64655000D02*
X100560000Y-64655000D01*
X102640000Y-64695000D02*
X103800000Y-64695000D01*
X99400000Y-64695000D02*
X100560000Y-64695000D01*
X102640000Y-64735000D02*
X103824000Y-64735000D01*
X99376000Y-64735000D02*
X100560000Y-64735000D01*
X102640000Y-64775000D02*
X103847000Y-64775000D01*
X99353000Y-64775000D02*
X100560000Y-64775000D01*
X102640000Y-64815000D02*
X103868000Y-64815000D01*
X99332000Y-64815000D02*
X100560000Y-64815000D01*
X102640000Y-64855000D02*
X103890000Y-64855000D01*
X99310000Y-64855000D02*
X100560000Y-64855000D01*
X102640000Y-64895000D02*
X103910000Y-64895000D01*
X99290000Y-64895000D02*
X100560000Y-64895000D01*
X102640000Y-64935000D02*
X103929000Y-64935000D01*
X99271000Y-64935000D02*
X100560000Y-64935000D01*
X102640000Y-64975000D02*
X103948000Y-64975000D01*
X99252000Y-64975000D02*
X100560000Y-64975000D01*
X102640000Y-65015000D02*
X103965000Y-65015000D01*
X99235000Y-65015000D02*
X100560000Y-65015000D01*
X102640000Y-65055000D02*
X103982000Y-65055000D01*
X99218000Y-65055000D02*
X100560000Y-65055000D01*
X102640000Y-65095000D02*
X103998000Y-65095000D01*
X99202000Y-65095000D02*
X100560000Y-65095000D01*
X102640000Y-65135000D02*
X104014000Y-65135000D01*
X99186000Y-65135000D02*
X100560000Y-65135000D01*
X102640000Y-65175000D02*
X104028000Y-65175000D01*
X99172000Y-65175000D02*
X100560000Y-65175000D01*
X102640000Y-65215000D02*
X104042000Y-65215000D01*
X99158000Y-65215000D02*
X100560000Y-65215000D01*
X102640000Y-65255000D02*
X104055000Y-65255000D01*
X99145000Y-65255000D02*
X100560000Y-65255000D01*
X102640000Y-65295000D02*
X104068000Y-65295000D01*
X99132000Y-65295000D02*
X100560000Y-65295000D01*
X102640000Y-65335000D02*
X104080000Y-65335000D01*
X99120000Y-65335000D02*
X100560000Y-65335000D01*
X102640000Y-65376000D02*
X104091000Y-65376000D01*
X99109000Y-65376000D02*
X100560000Y-65376000D01*
X102640000Y-65416000D02*
X104101000Y-65416000D01*
X99099000Y-65416000D02*
X100560000Y-65416000D01*
X102640000Y-65456000D02*
X104111000Y-65456000D01*
X99089000Y-65456000D02*
X100560000Y-65456000D01*
X102640000Y-65496000D02*
X104120000Y-65496000D01*
X99080000Y-65496000D02*
X100560000Y-65496000D01*
X102640000Y-65536000D02*
X104128000Y-65536000D01*
X99072000Y-65536000D02*
X100560000Y-65536000D01*
X102640000Y-65576000D02*
X104136000Y-65576000D01*
X99064000Y-65576000D02*
X100560000Y-65576000D01*
X102640000Y-65616000D02*
X104143000Y-65616000D01*
X99057000Y-65616000D02*
X100560000Y-65616000D01*
X102640000Y-65656000D02*
X104150000Y-65656000D01*
X99050000Y-65656000D02*
X100560000Y-65656000D01*
X102640000Y-65696000D02*
X104156000Y-65696000D01*
X99044000Y-65696000D02*
X100560000Y-65696000D01*
X102640000Y-65736000D02*
X104161000Y-65736000D01*
X99039000Y-65736000D02*
X100560000Y-65736000D01*
X102640000Y-65776000D02*
X104165000Y-65776000D01*
X99035000Y-65776000D02*
X100560000Y-65776000D01*
X102640000Y-65816000D02*
X104169000Y-65816000D01*
X99031000Y-65816000D02*
X100560000Y-65816000D01*
X102640000Y-65856000D02*
X104173000Y-65856000D01*
X99027000Y-65856000D02*
X100560000Y-65856000D01*
X102640000Y-65896000D02*
X104176000Y-65896000D01*
X99024000Y-65896000D02*
X100560000Y-65896000D01*
X102640000Y-65936000D02*
X104178000Y-65936000D01*
X99022000Y-65936000D02*
X100560000Y-65936000D01*
X102640000Y-65976000D02*
X104179000Y-65976000D01*
X99021000Y-65976000D02*
X100560000Y-65976000D01*
X99020000Y-66016000D02*
X100560000Y-66016000D01*
X102640000Y-66016000D02*
X104180000Y-66016000D01*
X99020000Y-66056000D02*
X100560000Y-66056000D01*
X102640000Y-66056000D02*
X104180000Y-66056000D01*
X104220000Y-66056000D02*
G75*
G03*
X104220000Y-66056000I-2620000J0D01*
G01*
%TO.C,C4*%
X107189225Y-59743000D02*
X107189225Y-60243000D01*
X106939225Y-59993000D02*
X107439225Y-59993000D01*
X112345000Y-61184000D02*
X112345000Y-61752000D01*
X112305000Y-60950000D02*
X112305000Y-61986000D01*
X112265000Y-60791000D02*
X112265000Y-62145000D01*
X112225000Y-60663000D02*
X112225000Y-62273000D01*
X112185000Y-60553000D02*
X112185000Y-62383000D01*
X112145000Y-60457000D02*
X112145000Y-62479000D01*
X112105000Y-60370000D02*
X112105000Y-62566000D01*
X112065000Y-60290000D02*
X112065000Y-62646000D01*
X112025000Y-60217000D02*
X112025000Y-62719000D01*
X111985000Y-60149000D02*
X111985000Y-62787000D01*
X111945000Y-60085000D02*
X111945000Y-62851000D01*
X111905000Y-60025000D02*
X111905000Y-62911000D01*
X111865000Y-59968000D02*
X111865000Y-62968000D01*
X111825000Y-59914000D02*
X111825000Y-63022000D01*
X111785000Y-59863000D02*
X111785000Y-63073000D01*
X111745000Y-62508000D02*
X111745000Y-63121000D01*
X111745000Y-59815000D02*
X111745000Y-60428000D01*
X111705000Y-62508000D02*
X111705000Y-63167000D01*
X111705000Y-59769000D02*
X111705000Y-60428000D01*
X111665000Y-62508000D02*
X111665000Y-63211000D01*
X111665000Y-59725000D02*
X111665000Y-60428000D01*
X111625000Y-62508000D02*
X111625000Y-63253000D01*
X111625000Y-59683000D02*
X111625000Y-60428000D01*
X111585000Y-62508000D02*
X111585000Y-63294000D01*
X111585000Y-59642000D02*
X111585000Y-60428000D01*
X111545000Y-62508000D02*
X111545000Y-63332000D01*
X111545000Y-59604000D02*
X111545000Y-60428000D01*
X111505000Y-62508000D02*
X111505000Y-63369000D01*
X111505000Y-59567000D02*
X111505000Y-60428000D01*
X111465000Y-62508000D02*
X111465000Y-63405000D01*
X111465000Y-59531000D02*
X111465000Y-60428000D01*
X111425000Y-62508000D02*
X111425000Y-63439000D01*
X111425000Y-59497000D02*
X111425000Y-60428000D01*
X111385000Y-62508000D02*
X111385000Y-63472000D01*
X111385000Y-59464000D02*
X111385000Y-60428000D01*
X111345000Y-62508000D02*
X111345000Y-63503000D01*
X111345000Y-59433000D02*
X111345000Y-60428000D01*
X111305000Y-62508000D02*
X111305000Y-63533000D01*
X111305000Y-59403000D02*
X111305000Y-60428000D01*
X111265000Y-62508000D02*
X111265000Y-63563000D01*
X111265000Y-59373000D02*
X111265000Y-60428000D01*
X111225000Y-62508000D02*
X111225000Y-63590000D01*
X111225000Y-59346000D02*
X111225000Y-60428000D01*
X111185000Y-62508000D02*
X111185000Y-63617000D01*
X111185000Y-59319000D02*
X111185000Y-60428000D01*
X111145000Y-62508000D02*
X111145000Y-63643000D01*
X111145000Y-59293000D02*
X111145000Y-60428000D01*
X111105000Y-62508000D02*
X111105000Y-63668000D01*
X111105000Y-59268000D02*
X111105000Y-60428000D01*
X111065000Y-62508000D02*
X111065000Y-63692000D01*
X111065000Y-59244000D02*
X111065000Y-60428000D01*
X111025000Y-62508000D02*
X111025000Y-63715000D01*
X111025000Y-59221000D02*
X111025000Y-60428000D01*
X110985000Y-62508000D02*
X110985000Y-63736000D01*
X110985000Y-59200000D02*
X110985000Y-60428000D01*
X110945000Y-62508000D02*
X110945000Y-63758000D01*
X110945000Y-59178000D02*
X110945000Y-60428000D01*
X110905000Y-62508000D02*
X110905000Y-63778000D01*
X110905000Y-59158000D02*
X110905000Y-60428000D01*
X110865000Y-62508000D02*
X110865000Y-63797000D01*
X110865000Y-59139000D02*
X110865000Y-60428000D01*
X110825000Y-62508000D02*
X110825000Y-63816000D01*
X110825000Y-59120000D02*
X110825000Y-60428000D01*
X110785000Y-62508000D02*
X110785000Y-63833000D01*
X110785000Y-59103000D02*
X110785000Y-60428000D01*
X110745000Y-62508000D02*
X110745000Y-63850000D01*
X110745000Y-59086000D02*
X110745000Y-60428000D01*
X110705000Y-62508000D02*
X110705000Y-63866000D01*
X110705000Y-59070000D02*
X110705000Y-60428000D01*
X110665000Y-62508000D02*
X110665000Y-63882000D01*
X110665000Y-59054000D02*
X110665000Y-60428000D01*
X110625000Y-62508000D02*
X110625000Y-63896000D01*
X110625000Y-59040000D02*
X110625000Y-60428000D01*
X110585000Y-62508000D02*
X110585000Y-63910000D01*
X110585000Y-59026000D02*
X110585000Y-60428000D01*
X110545000Y-62508000D02*
X110545000Y-63923000D01*
X110545000Y-59013000D02*
X110545000Y-60428000D01*
X110505000Y-62508000D02*
X110505000Y-63936000D01*
X110505000Y-59000000D02*
X110505000Y-60428000D01*
X110465000Y-62508000D02*
X110465000Y-63948000D01*
X110465000Y-58988000D02*
X110465000Y-60428000D01*
X110424000Y-62508000D02*
X110424000Y-63959000D01*
X110424000Y-58977000D02*
X110424000Y-60428000D01*
X110384000Y-62508000D02*
X110384000Y-63969000D01*
X110384000Y-58967000D02*
X110384000Y-60428000D01*
X110344000Y-62508000D02*
X110344000Y-63979000D01*
X110344000Y-58957000D02*
X110344000Y-60428000D01*
X110304000Y-62508000D02*
X110304000Y-63988000D01*
X110304000Y-58948000D02*
X110304000Y-60428000D01*
X110264000Y-62508000D02*
X110264000Y-63996000D01*
X110264000Y-58940000D02*
X110264000Y-60428000D01*
X110224000Y-62508000D02*
X110224000Y-64004000D01*
X110224000Y-58932000D02*
X110224000Y-60428000D01*
X110184000Y-62508000D02*
X110184000Y-64011000D01*
X110184000Y-58925000D02*
X110184000Y-60428000D01*
X110144000Y-62508000D02*
X110144000Y-64018000D01*
X110144000Y-58918000D02*
X110144000Y-60428000D01*
X110104000Y-62508000D02*
X110104000Y-64024000D01*
X110104000Y-58912000D02*
X110104000Y-60428000D01*
X110064000Y-62508000D02*
X110064000Y-64029000D01*
X110064000Y-58907000D02*
X110064000Y-60428000D01*
X110024000Y-62508000D02*
X110024000Y-64033000D01*
X110024000Y-58903000D02*
X110024000Y-60428000D01*
X109984000Y-62508000D02*
X109984000Y-64037000D01*
X109984000Y-58899000D02*
X109984000Y-60428000D01*
X109944000Y-62508000D02*
X109944000Y-64041000D01*
X109944000Y-58895000D02*
X109944000Y-60428000D01*
X109904000Y-62508000D02*
X109904000Y-64044000D01*
X109904000Y-58892000D02*
X109904000Y-60428000D01*
X109864000Y-62508000D02*
X109864000Y-64046000D01*
X109864000Y-58890000D02*
X109864000Y-60428000D01*
X109824000Y-62508000D02*
X109824000Y-64047000D01*
X109824000Y-58889000D02*
X109824000Y-60428000D01*
X109784000Y-58888000D02*
X109784000Y-60428000D01*
X109784000Y-62508000D02*
X109784000Y-64048000D01*
X109744000Y-58888000D02*
X109744000Y-60428000D01*
X109744000Y-62508000D02*
X109744000Y-64048000D01*
X112364000Y-61468000D02*
G75*
G03*
X112364000Y-61468000I-2620000J0D01*
G01*
%TO.C,J21*%
X104250000Y-84310000D02*
X104250000Y-78290000D01*
X104250000Y-78290000D02*
X98950000Y-78290000D01*
X98950000Y-78290000D02*
X98950000Y-84310000D01*
X98950000Y-84310000D02*
X104250000Y-84310000D01*
X104540000Y-83280000D02*
X104540000Y-79280000D01*
X102870000Y-78290000D02*
X102870000Y-79290000D01*
X102870000Y-79290000D02*
X100330000Y-79290000D01*
X100330000Y-79290000D02*
X100330000Y-78290000D01*
X102870000Y-79290000D02*
X102620000Y-79820000D01*
X102620000Y-79820000D02*
X100580000Y-79820000D01*
X100580000Y-79820000D02*
X100330000Y-79290000D01*
X102620000Y-78290000D02*
X102620000Y-79290000D01*
X100580000Y-78290000D02*
X100580000Y-79290000D01*
X103670000Y-84310000D02*
X103670000Y-83710000D01*
X103670000Y-83710000D02*
X102070000Y-83710000D01*
X102070000Y-83710000D02*
X102070000Y-84310000D01*
X101130000Y-84310000D02*
X101130000Y-83710000D01*
X101130000Y-83710000D02*
X99530000Y-83710000D01*
X99530000Y-83710000D02*
X99530000Y-84310000D01*
%TO.C,R13*%
X65278000Y-73633200D02*
X65278000Y-74403200D01*
X65278000Y-81713200D02*
X65278000Y-80943200D01*
X63908000Y-74403200D02*
X63908000Y-80943200D01*
X66648000Y-74403200D02*
X63908000Y-74403200D01*
X66648000Y-80943200D02*
X66648000Y-74403200D01*
X63908000Y-80943200D02*
X66648000Y-80943200D01*
%TO.C,R12*%
X68935600Y-76732000D02*
X68935600Y-77502000D01*
X68935600Y-84812000D02*
X68935600Y-84042000D01*
X67565600Y-77502000D02*
X67565600Y-84042000D01*
X70305600Y-77502000D02*
X67565600Y-77502000D01*
X70305600Y-84042000D02*
X70305600Y-77502000D01*
X67565600Y-84042000D02*
X70305600Y-84042000D01*
%TO.C,R11*%
X128370000Y-76810000D02*
X125630000Y-76810000D01*
X125630000Y-76810000D02*
X125630000Y-83350000D01*
X125630000Y-83350000D02*
X128370000Y-83350000D01*
X128370000Y-83350000D02*
X128370000Y-76810000D01*
X127000000Y-76040000D02*
X127000000Y-76810000D01*
X127000000Y-84120000D02*
X127000000Y-83350000D01*
%TO.C,R10*%
X124370000Y-76810000D02*
X121630000Y-76810000D01*
X121630000Y-76810000D02*
X121630000Y-83350000D01*
X121630000Y-83350000D02*
X124370000Y-83350000D01*
X124370000Y-83350000D02*
X124370000Y-76810000D01*
X123000000Y-76040000D02*
X123000000Y-76810000D01*
X123000000Y-84120000D02*
X123000000Y-83350000D01*
%TO.C,R7*%
X120370000Y-76810000D02*
X117630000Y-76810000D01*
X117630000Y-76810000D02*
X117630000Y-83350000D01*
X117630000Y-83350000D02*
X120370000Y-83350000D01*
X120370000Y-83350000D02*
X120370000Y-76810000D01*
X119000000Y-76040000D02*
X119000000Y-76810000D01*
X119000000Y-84120000D02*
X119000000Y-83350000D01*
%TO.C,R6*%
X116370000Y-76810000D02*
X113630000Y-76810000D01*
X113630000Y-76810000D02*
X113630000Y-83350000D01*
X113630000Y-83350000D02*
X116370000Y-83350000D01*
X116370000Y-83350000D02*
X116370000Y-76810000D01*
X115000000Y-76040000D02*
X115000000Y-76810000D01*
X115000000Y-84120000D02*
X115000000Y-83350000D01*
%TO.C,J20*%
X147430000Y-86850000D02*
X147430000Y-80830000D01*
X147430000Y-80830000D02*
X142130000Y-80830000D01*
X142130000Y-80830000D02*
X142130000Y-86850000D01*
X142130000Y-86850000D02*
X147430000Y-86850000D01*
X147720000Y-85820000D02*
X147720000Y-81820000D01*
X146050000Y-80830000D02*
X146050000Y-81830000D01*
X146050000Y-81830000D02*
X143510000Y-81830000D01*
X143510000Y-81830000D02*
X143510000Y-80830000D01*
X146050000Y-81830000D02*
X145800000Y-82360000D01*
X145800000Y-82360000D02*
X143760000Y-82360000D01*
X143760000Y-82360000D02*
X143510000Y-81830000D01*
X145800000Y-80830000D02*
X145800000Y-81830000D01*
X143760000Y-80830000D02*
X143760000Y-81830000D01*
X146850000Y-86850000D02*
X146850000Y-86250000D01*
X146850000Y-86250000D02*
X145250000Y-86250000D01*
X145250000Y-86250000D02*
X145250000Y-86850000D01*
X144310000Y-86850000D02*
X144310000Y-86250000D01*
X144310000Y-86250000D02*
X142710000Y-86250000D01*
X142710000Y-86250000D02*
X142710000Y-86850000D01*
%TO.C,J18*%
X147430000Y-76690000D02*
X147430000Y-70670000D01*
X147430000Y-70670000D02*
X142130000Y-70670000D01*
X142130000Y-70670000D02*
X142130000Y-76690000D01*
X142130000Y-76690000D02*
X147430000Y-76690000D01*
X147720000Y-75660000D02*
X147720000Y-71660000D01*
X146050000Y-70670000D02*
X146050000Y-71670000D01*
X146050000Y-71670000D02*
X143510000Y-71670000D01*
X143510000Y-71670000D02*
X143510000Y-70670000D01*
X146050000Y-71670000D02*
X145800000Y-72200000D01*
X145800000Y-72200000D02*
X143760000Y-72200000D01*
X143760000Y-72200000D02*
X143510000Y-71670000D01*
X145800000Y-70670000D02*
X145800000Y-71670000D01*
X143760000Y-70670000D02*
X143760000Y-71670000D01*
X146850000Y-76690000D02*
X146850000Y-76090000D01*
X146850000Y-76090000D02*
X145250000Y-76090000D01*
X145250000Y-76090000D02*
X145250000Y-76690000D01*
X144310000Y-76690000D02*
X144310000Y-76090000D01*
X144310000Y-76090000D02*
X142710000Y-76090000D01*
X142710000Y-76090000D02*
X142710000Y-76690000D01*
%TO.C,J17*%
X138540000Y-86850000D02*
X138540000Y-80830000D01*
X138540000Y-80830000D02*
X133240000Y-80830000D01*
X133240000Y-80830000D02*
X133240000Y-86850000D01*
X133240000Y-86850000D02*
X138540000Y-86850000D01*
X138830000Y-85820000D02*
X138830000Y-81820000D01*
X137160000Y-80830000D02*
X137160000Y-81830000D01*
X137160000Y-81830000D02*
X134620000Y-81830000D01*
X134620000Y-81830000D02*
X134620000Y-80830000D01*
X137160000Y-81830000D02*
X136910000Y-82360000D01*
X136910000Y-82360000D02*
X134870000Y-82360000D01*
X134870000Y-82360000D02*
X134620000Y-81830000D01*
X136910000Y-80830000D02*
X136910000Y-81830000D01*
X134870000Y-80830000D02*
X134870000Y-81830000D01*
X137960000Y-86850000D02*
X137960000Y-86250000D01*
X137960000Y-86250000D02*
X136360000Y-86250000D01*
X136360000Y-86250000D02*
X136360000Y-86850000D01*
X135420000Y-86850000D02*
X135420000Y-86250000D01*
X135420000Y-86250000D02*
X133820000Y-86250000D01*
X133820000Y-86250000D02*
X133820000Y-86850000D01*
%TO.C,J16*%
X138540000Y-76690000D02*
X138540000Y-70670000D01*
X138540000Y-70670000D02*
X133240000Y-70670000D01*
X133240000Y-70670000D02*
X133240000Y-76690000D01*
X133240000Y-76690000D02*
X138540000Y-76690000D01*
X138830000Y-75660000D02*
X138830000Y-71660000D01*
X137160000Y-70670000D02*
X137160000Y-71670000D01*
X137160000Y-71670000D02*
X134620000Y-71670000D01*
X134620000Y-71670000D02*
X134620000Y-70670000D01*
X137160000Y-71670000D02*
X136910000Y-72200000D01*
X136910000Y-72200000D02*
X134870000Y-72200000D01*
X134870000Y-72200000D02*
X134620000Y-71670000D01*
X136910000Y-70670000D02*
X136910000Y-71670000D01*
X134870000Y-70670000D02*
X134870000Y-71670000D01*
X137960000Y-76690000D02*
X137960000Y-76090000D01*
X137960000Y-76090000D02*
X136360000Y-76090000D01*
X136360000Y-76090000D02*
X136360000Y-76690000D01*
X135420000Y-76690000D02*
X135420000Y-76090000D01*
X135420000Y-76090000D02*
X133820000Y-76090000D01*
X133820000Y-76090000D02*
X133820000Y-76690000D01*
%TO.C,J7*%
X147750000Y-116150000D02*
X146500000Y-116150000D01*
X147750000Y-117400000D02*
X147750000Y-116150000D01*
X142250000Y-128300000D02*
X142250000Y-122750000D01*
X145200000Y-128300000D02*
X142250000Y-128300000D01*
X145200000Y-129050000D02*
X145200000Y-128300000D01*
X142250000Y-117200000D02*
X142250000Y-122750000D01*
X145200000Y-117200000D02*
X142250000Y-117200000D01*
X145200000Y-116450000D02*
X145200000Y-117200000D01*
X147450000Y-129050000D02*
X147450000Y-127250000D01*
X146700000Y-129050000D02*
X147450000Y-129050000D01*
X146700000Y-127250000D02*
X146700000Y-129050000D01*
X147450000Y-127250000D02*
X146700000Y-127250000D01*
X147450000Y-118250000D02*
X147450000Y-116450000D01*
X146700000Y-118250000D02*
X147450000Y-118250000D01*
X146700000Y-116450000D02*
X146700000Y-118250000D01*
X147450000Y-116450000D02*
X146700000Y-116450000D01*
X147450000Y-125750000D02*
X147450000Y-119750000D01*
X146700000Y-125750000D02*
X147450000Y-125750000D01*
X146700000Y-119750000D02*
X146700000Y-125750000D01*
X147450000Y-119750000D02*
X146700000Y-119750000D01*
X147460000Y-129060000D02*
X147460000Y-116440000D01*
X141490000Y-129060000D02*
X147460000Y-129060000D01*
X141490000Y-116440000D02*
X141490000Y-129060000D01*
X147460000Y-116440000D02*
X141490000Y-116440000D01*
%TO.C,J6*%
X147750000Y-93517600D02*
X146500000Y-93517600D01*
X147750000Y-94767600D02*
X147750000Y-93517600D01*
X142250000Y-105667600D02*
X142250000Y-100117600D01*
X145200000Y-105667600D02*
X142250000Y-105667600D01*
X145200000Y-106417600D02*
X145200000Y-105667600D01*
X142250000Y-94567600D02*
X142250000Y-100117600D01*
X145200000Y-94567600D02*
X142250000Y-94567600D01*
X145200000Y-93817600D02*
X145200000Y-94567600D01*
X147450000Y-106417600D02*
X147450000Y-104617600D01*
X146700000Y-106417600D02*
X147450000Y-106417600D01*
X146700000Y-104617600D02*
X146700000Y-106417600D01*
X147450000Y-104617600D02*
X146700000Y-104617600D01*
X147450000Y-95617600D02*
X147450000Y-93817600D01*
X146700000Y-95617600D02*
X147450000Y-95617600D01*
X146700000Y-93817600D02*
X146700000Y-95617600D01*
X147450000Y-93817600D02*
X146700000Y-93817600D01*
X147450000Y-103117600D02*
X147450000Y-97117600D01*
X146700000Y-103117600D02*
X147450000Y-103117600D01*
X146700000Y-97117600D02*
X146700000Y-103117600D01*
X147450000Y-97117600D02*
X146700000Y-97117600D01*
X147460000Y-106427600D02*
X147460000Y-93807600D01*
X141490000Y-106427600D02*
X147460000Y-106427600D01*
X141490000Y-93807600D02*
X141490000Y-106427600D01*
X147460000Y-93807600D02*
X141490000Y-93807600D01*
%TO.C,C2*%
X136304775Y-112725000D02*
X136304775Y-112225000D01*
X136554775Y-112475000D02*
X136054775Y-112475000D01*
X131149000Y-111284000D02*
X131149000Y-110716000D01*
X131189000Y-111518000D02*
X131189000Y-110482000D01*
X131229000Y-111677000D02*
X131229000Y-110323000D01*
X131269000Y-111805000D02*
X131269000Y-110195000D01*
X131309000Y-111915000D02*
X131309000Y-110085000D01*
X131349000Y-112011000D02*
X131349000Y-109989000D01*
X131389000Y-112098000D02*
X131389000Y-109902000D01*
X131429000Y-112178000D02*
X131429000Y-109822000D01*
X131469000Y-109960000D02*
X131469000Y-109749000D01*
X131469000Y-112251000D02*
X131469000Y-112040000D01*
X131509000Y-109960000D02*
X131509000Y-109681000D01*
X131509000Y-112319000D02*
X131509000Y-112040000D01*
X131549000Y-109960000D02*
X131549000Y-109617000D01*
X131549000Y-112383000D02*
X131549000Y-112040000D01*
X131589000Y-109960000D02*
X131589000Y-109557000D01*
X131589000Y-112443000D02*
X131589000Y-112040000D01*
X131629000Y-109960000D02*
X131629000Y-109500000D01*
X131629000Y-112500000D02*
X131629000Y-112040000D01*
X131669000Y-109960000D02*
X131669000Y-109446000D01*
X131669000Y-112554000D02*
X131669000Y-112040000D01*
X131709000Y-109960000D02*
X131709000Y-109395000D01*
X131709000Y-112605000D02*
X131709000Y-112040000D01*
X131749000Y-109960000D02*
X131749000Y-109347000D01*
X131749000Y-112653000D02*
X131749000Y-112040000D01*
X131789000Y-109960000D02*
X131789000Y-109301000D01*
X131789000Y-112699000D02*
X131789000Y-112040000D01*
X131829000Y-109960000D02*
X131829000Y-109257000D01*
X131829000Y-112743000D02*
X131829000Y-112040000D01*
X131869000Y-109960000D02*
X131869000Y-109215000D01*
X131869000Y-112785000D02*
X131869000Y-112040000D01*
X131909000Y-109960000D02*
X131909000Y-109174000D01*
X131909000Y-112826000D02*
X131909000Y-112040000D01*
X131949000Y-109960000D02*
X131949000Y-109136000D01*
X131949000Y-112864000D02*
X131949000Y-112040000D01*
X131989000Y-109960000D02*
X131989000Y-109099000D01*
X131989000Y-112901000D02*
X131989000Y-112040000D01*
X132029000Y-109960000D02*
X132029000Y-109063000D01*
X132029000Y-112937000D02*
X132029000Y-112040000D01*
X132069000Y-109960000D02*
X132069000Y-109029000D01*
X132069000Y-112971000D02*
X132069000Y-112040000D01*
X132109000Y-109960000D02*
X132109000Y-108996000D01*
X132109000Y-113004000D02*
X132109000Y-112040000D01*
X132149000Y-109960000D02*
X132149000Y-108965000D01*
X132149000Y-113035000D02*
X132149000Y-112040000D01*
X132189000Y-109960000D02*
X132189000Y-108935000D01*
X132189000Y-113065000D02*
X132189000Y-112040000D01*
X132229000Y-109960000D02*
X132229000Y-108905000D01*
X132229000Y-113095000D02*
X132229000Y-112040000D01*
X132269000Y-109960000D02*
X132269000Y-108878000D01*
X132269000Y-113122000D02*
X132269000Y-112040000D01*
X132309000Y-109960000D02*
X132309000Y-108851000D01*
X132309000Y-113149000D02*
X132309000Y-112040000D01*
X132349000Y-109960000D02*
X132349000Y-108825000D01*
X132349000Y-113175000D02*
X132349000Y-112040000D01*
X132389000Y-109960000D02*
X132389000Y-108800000D01*
X132389000Y-113200000D02*
X132389000Y-112040000D01*
X132429000Y-109960000D02*
X132429000Y-108776000D01*
X132429000Y-113224000D02*
X132429000Y-112040000D01*
X132469000Y-109960000D02*
X132469000Y-108753000D01*
X132469000Y-113247000D02*
X132469000Y-112040000D01*
X132509000Y-109960000D02*
X132509000Y-108732000D01*
X132509000Y-113268000D02*
X132509000Y-112040000D01*
X132549000Y-109960000D02*
X132549000Y-108710000D01*
X132549000Y-113290000D02*
X132549000Y-112040000D01*
X132589000Y-109960000D02*
X132589000Y-108690000D01*
X132589000Y-113310000D02*
X132589000Y-112040000D01*
X132629000Y-109960000D02*
X132629000Y-108671000D01*
X132629000Y-113329000D02*
X132629000Y-112040000D01*
X132669000Y-109960000D02*
X132669000Y-108652000D01*
X132669000Y-113348000D02*
X132669000Y-112040000D01*
X132709000Y-109960000D02*
X132709000Y-108635000D01*
X132709000Y-113365000D02*
X132709000Y-112040000D01*
X132749000Y-109960000D02*
X132749000Y-108618000D01*
X132749000Y-113382000D02*
X132749000Y-112040000D01*
X132789000Y-109960000D02*
X132789000Y-108602000D01*
X132789000Y-113398000D02*
X132789000Y-112040000D01*
X132829000Y-109960000D02*
X132829000Y-108586000D01*
X132829000Y-113414000D02*
X132829000Y-112040000D01*
X132869000Y-109960000D02*
X132869000Y-108572000D01*
X132869000Y-113428000D02*
X132869000Y-112040000D01*
X132909000Y-109960000D02*
X132909000Y-108558000D01*
X132909000Y-113442000D02*
X132909000Y-112040000D01*
X132949000Y-109960000D02*
X132949000Y-108545000D01*
X132949000Y-113455000D02*
X132949000Y-112040000D01*
X132989000Y-109960000D02*
X132989000Y-108532000D01*
X132989000Y-113468000D02*
X132989000Y-112040000D01*
X133029000Y-109960000D02*
X133029000Y-108520000D01*
X133029000Y-113480000D02*
X133029000Y-112040000D01*
X133070000Y-109960000D02*
X133070000Y-108509000D01*
X133070000Y-113491000D02*
X133070000Y-112040000D01*
X133110000Y-109960000D02*
X133110000Y-108499000D01*
X133110000Y-113501000D02*
X133110000Y-112040000D01*
X133150000Y-109960000D02*
X133150000Y-108489000D01*
X133150000Y-113511000D02*
X133150000Y-112040000D01*
X133190000Y-109960000D02*
X133190000Y-108480000D01*
X133190000Y-113520000D02*
X133190000Y-112040000D01*
X133230000Y-109960000D02*
X133230000Y-108472000D01*
X133230000Y-113528000D02*
X133230000Y-112040000D01*
X133270000Y-109960000D02*
X133270000Y-108464000D01*
X133270000Y-113536000D02*
X133270000Y-112040000D01*
X133310000Y-109960000D02*
X133310000Y-108457000D01*
X133310000Y-113543000D02*
X133310000Y-112040000D01*
X133350000Y-109960000D02*
X133350000Y-108450000D01*
X133350000Y-113550000D02*
X133350000Y-112040000D01*
X133390000Y-109960000D02*
X133390000Y-108444000D01*
X133390000Y-113556000D02*
X133390000Y-112040000D01*
X133430000Y-109960000D02*
X133430000Y-108439000D01*
X133430000Y-113561000D02*
X133430000Y-112040000D01*
X133470000Y-109960000D02*
X133470000Y-108435000D01*
X133470000Y-113565000D02*
X133470000Y-112040000D01*
X133510000Y-109960000D02*
X133510000Y-108431000D01*
X133510000Y-113569000D02*
X133510000Y-112040000D01*
X133550000Y-113573000D02*
X133550000Y-108427000D01*
X133590000Y-113576000D02*
X133590000Y-108424000D01*
X133630000Y-113578000D02*
X133630000Y-108422000D01*
X133670000Y-113579000D02*
X133670000Y-108421000D01*
X133710000Y-113580000D02*
X133710000Y-108420000D01*
X133750000Y-113580000D02*
X133750000Y-108420000D01*
X136370000Y-111000000D02*
G75*
G03*
X136370000Y-111000000I-2620000J0D01*
G01*
%TO.C,C1*%
X103177000Y-95284775D02*
X103677000Y-95284775D01*
X103427000Y-95534775D02*
X103427000Y-95034775D01*
X104618000Y-90129000D02*
X105186000Y-90129000D01*
X104384000Y-90169000D02*
X105420000Y-90169000D01*
X104225000Y-90209000D02*
X105579000Y-90209000D01*
X104097000Y-90249000D02*
X105707000Y-90249000D01*
X103987000Y-90289000D02*
X105817000Y-90289000D01*
X103891000Y-90329000D02*
X105913000Y-90329000D01*
X103804000Y-90369000D02*
X106000000Y-90369000D01*
X103724000Y-90409000D02*
X106080000Y-90409000D01*
X105942000Y-90449000D02*
X106153000Y-90449000D01*
X103651000Y-90449000D02*
X103862000Y-90449000D01*
X105942000Y-90489000D02*
X106221000Y-90489000D01*
X103583000Y-90489000D02*
X103862000Y-90489000D01*
X105942000Y-90529000D02*
X106285000Y-90529000D01*
X103519000Y-90529000D02*
X103862000Y-90529000D01*
X105942000Y-90569000D02*
X106345000Y-90569000D01*
X103459000Y-90569000D02*
X103862000Y-90569000D01*
X105942000Y-90609000D02*
X106402000Y-90609000D01*
X103402000Y-90609000D02*
X103862000Y-90609000D01*
X105942000Y-90649000D02*
X106456000Y-90649000D01*
X103348000Y-90649000D02*
X103862000Y-90649000D01*
X105942000Y-90689000D02*
X106507000Y-90689000D01*
X103297000Y-90689000D02*
X103862000Y-90689000D01*
X105942000Y-90729000D02*
X106555000Y-90729000D01*
X103249000Y-90729000D02*
X103862000Y-90729000D01*
X105942000Y-90769000D02*
X106601000Y-90769000D01*
X103203000Y-90769000D02*
X103862000Y-90769000D01*
X105942000Y-90809000D02*
X106645000Y-90809000D01*
X103159000Y-90809000D02*
X103862000Y-90809000D01*
X105942000Y-90849000D02*
X106687000Y-90849000D01*
X103117000Y-90849000D02*
X103862000Y-90849000D01*
X105942000Y-90889000D02*
X106728000Y-90889000D01*
X103076000Y-90889000D02*
X103862000Y-90889000D01*
X105942000Y-90929000D02*
X106766000Y-90929000D01*
X103038000Y-90929000D02*
X103862000Y-90929000D01*
X105942000Y-90969000D02*
X106803000Y-90969000D01*
X103001000Y-90969000D02*
X103862000Y-90969000D01*
X105942000Y-91009000D02*
X106839000Y-91009000D01*
X102965000Y-91009000D02*
X103862000Y-91009000D01*
X105942000Y-91049000D02*
X106873000Y-91049000D01*
X102931000Y-91049000D02*
X103862000Y-91049000D01*
X105942000Y-91089000D02*
X106906000Y-91089000D01*
X102898000Y-91089000D02*
X103862000Y-91089000D01*
X105942000Y-91129000D02*
X106937000Y-91129000D01*
X102867000Y-91129000D02*
X103862000Y-91129000D01*
X105942000Y-91169000D02*
X106967000Y-91169000D01*
X102837000Y-91169000D02*
X103862000Y-91169000D01*
X105942000Y-91209000D02*
X106997000Y-91209000D01*
X102807000Y-91209000D02*
X103862000Y-91209000D01*
X105942000Y-91249000D02*
X107024000Y-91249000D01*
X102780000Y-91249000D02*
X103862000Y-91249000D01*
X105942000Y-91289000D02*
X107051000Y-91289000D01*
X102753000Y-91289000D02*
X103862000Y-91289000D01*
X105942000Y-91329000D02*
X107077000Y-91329000D01*
X102727000Y-91329000D02*
X103862000Y-91329000D01*
X105942000Y-91369000D02*
X107102000Y-91369000D01*
X102702000Y-91369000D02*
X103862000Y-91369000D01*
X105942000Y-91409000D02*
X107126000Y-91409000D01*
X102678000Y-91409000D02*
X103862000Y-91409000D01*
X105942000Y-91449000D02*
X107149000Y-91449000D01*
X102655000Y-91449000D02*
X103862000Y-91449000D01*
X105942000Y-91489000D02*
X107170000Y-91489000D01*
X102634000Y-91489000D02*
X103862000Y-91489000D01*
X105942000Y-91529000D02*
X107192000Y-91529000D01*
X102612000Y-91529000D02*
X103862000Y-91529000D01*
X105942000Y-91569000D02*
X107212000Y-91569000D01*
X102592000Y-91569000D02*
X103862000Y-91569000D01*
X105942000Y-91609000D02*
X107231000Y-91609000D01*
X102573000Y-91609000D02*
X103862000Y-91609000D01*
X105942000Y-91649000D02*
X107250000Y-91649000D01*
X102554000Y-91649000D02*
X103862000Y-91649000D01*
X105942000Y-91689000D02*
X107267000Y-91689000D01*
X102537000Y-91689000D02*
X103862000Y-91689000D01*
X105942000Y-91729000D02*
X107284000Y-91729000D01*
X102520000Y-91729000D02*
X103862000Y-91729000D01*
X105942000Y-91769000D02*
X107300000Y-91769000D01*
X102504000Y-91769000D02*
X103862000Y-91769000D01*
X105942000Y-91809000D02*
X107316000Y-91809000D01*
X102488000Y-91809000D02*
X103862000Y-91809000D01*
X105942000Y-91849000D02*
X107330000Y-91849000D01*
X102474000Y-91849000D02*
X103862000Y-91849000D01*
X105942000Y-91889000D02*
X107344000Y-91889000D01*
X102460000Y-91889000D02*
X103862000Y-91889000D01*
X105942000Y-91929000D02*
X107357000Y-91929000D01*
X102447000Y-91929000D02*
X103862000Y-91929000D01*
X105942000Y-91969000D02*
X107370000Y-91969000D01*
X102434000Y-91969000D02*
X103862000Y-91969000D01*
X105942000Y-92009000D02*
X107382000Y-92009000D01*
X102422000Y-92009000D02*
X103862000Y-92009000D01*
X105942000Y-92050000D02*
X107393000Y-92050000D01*
X102411000Y-92050000D02*
X103862000Y-92050000D01*
X105942000Y-92090000D02*
X107403000Y-92090000D01*
X102401000Y-92090000D02*
X103862000Y-92090000D01*
X105942000Y-92130000D02*
X107413000Y-92130000D01*
X102391000Y-92130000D02*
X103862000Y-92130000D01*
X105942000Y-92170000D02*
X107422000Y-92170000D01*
X102382000Y-92170000D02*
X103862000Y-92170000D01*
X105942000Y-92210000D02*
X107430000Y-92210000D01*
X102374000Y-92210000D02*
X103862000Y-92210000D01*
X105942000Y-92250000D02*
X107438000Y-92250000D01*
X102366000Y-92250000D02*
X103862000Y-92250000D01*
X105942000Y-92290000D02*
X107445000Y-92290000D01*
X102359000Y-92290000D02*
X103862000Y-92290000D01*
X105942000Y-92330000D02*
X107452000Y-92330000D01*
X102352000Y-92330000D02*
X103862000Y-92330000D01*
X105942000Y-92370000D02*
X107458000Y-92370000D01*
X102346000Y-92370000D02*
X103862000Y-92370000D01*
X105942000Y-92410000D02*
X107463000Y-92410000D01*
X102341000Y-92410000D02*
X103862000Y-92410000D01*
X105942000Y-92450000D02*
X107467000Y-92450000D01*
X102337000Y-92450000D02*
X103862000Y-92450000D01*
X105942000Y-92490000D02*
X107471000Y-92490000D01*
X102333000Y-92490000D02*
X103862000Y-92490000D01*
X102329000Y-92530000D02*
X107475000Y-92530000D01*
X102326000Y-92570000D02*
X107478000Y-92570000D01*
X102324000Y-92610000D02*
X107480000Y-92610000D01*
X102323000Y-92650000D02*
X107481000Y-92650000D01*
X102322000Y-92690000D02*
X107482000Y-92690000D01*
X102322000Y-92730000D02*
X107482000Y-92730000D01*
X107522000Y-92730000D02*
G75*
G03*
X107522000Y-92730000I-2620000J0D01*
G01*
%TO.C,C3*%
X66120000Y-104886000D02*
G75*
G03*
X66120000Y-104886000I-2620000J0D01*
G01*
X62460000Y-104886000D02*
X60920000Y-104886000D01*
X66080000Y-104886000D02*
X64540000Y-104886000D01*
X62460000Y-104926000D02*
X60920000Y-104926000D01*
X66080000Y-104926000D02*
X64540000Y-104926000D01*
X66079000Y-104966000D02*
X64540000Y-104966000D01*
X62460000Y-104966000D02*
X60921000Y-104966000D01*
X66078000Y-105006000D02*
X64540000Y-105006000D01*
X62460000Y-105006000D02*
X60922000Y-105006000D01*
X66076000Y-105046000D02*
X64540000Y-105046000D01*
X62460000Y-105046000D02*
X60924000Y-105046000D01*
X66073000Y-105086000D02*
X64540000Y-105086000D01*
X62460000Y-105086000D02*
X60927000Y-105086000D01*
X66069000Y-105126000D02*
X64540000Y-105126000D01*
X62460000Y-105126000D02*
X60931000Y-105126000D01*
X66065000Y-105166000D02*
X64540000Y-105166000D01*
X62460000Y-105166000D02*
X60935000Y-105166000D01*
X66061000Y-105206000D02*
X64540000Y-105206000D01*
X62460000Y-105206000D02*
X60939000Y-105206000D01*
X66056000Y-105246000D02*
X64540000Y-105246000D01*
X62460000Y-105246000D02*
X60944000Y-105246000D01*
X66050000Y-105286000D02*
X64540000Y-105286000D01*
X62460000Y-105286000D02*
X60950000Y-105286000D01*
X66043000Y-105326000D02*
X64540000Y-105326000D01*
X62460000Y-105326000D02*
X60957000Y-105326000D01*
X66036000Y-105366000D02*
X64540000Y-105366000D01*
X62460000Y-105366000D02*
X60964000Y-105366000D01*
X66028000Y-105406000D02*
X64540000Y-105406000D01*
X62460000Y-105406000D02*
X60972000Y-105406000D01*
X66020000Y-105446000D02*
X64540000Y-105446000D01*
X62460000Y-105446000D02*
X60980000Y-105446000D01*
X66011000Y-105486000D02*
X64540000Y-105486000D01*
X62460000Y-105486000D02*
X60989000Y-105486000D01*
X66001000Y-105526000D02*
X64540000Y-105526000D01*
X62460000Y-105526000D02*
X60999000Y-105526000D01*
X65991000Y-105566000D02*
X64540000Y-105566000D01*
X62460000Y-105566000D02*
X61009000Y-105566000D01*
X65980000Y-105607000D02*
X64540000Y-105607000D01*
X62460000Y-105607000D02*
X61020000Y-105607000D01*
X65968000Y-105647000D02*
X64540000Y-105647000D01*
X62460000Y-105647000D02*
X61032000Y-105647000D01*
X65955000Y-105687000D02*
X64540000Y-105687000D01*
X62460000Y-105687000D02*
X61045000Y-105687000D01*
X65942000Y-105727000D02*
X64540000Y-105727000D01*
X62460000Y-105727000D02*
X61058000Y-105727000D01*
X65928000Y-105767000D02*
X64540000Y-105767000D01*
X62460000Y-105767000D02*
X61072000Y-105767000D01*
X65914000Y-105807000D02*
X64540000Y-105807000D01*
X62460000Y-105807000D02*
X61086000Y-105807000D01*
X65898000Y-105847000D02*
X64540000Y-105847000D01*
X62460000Y-105847000D02*
X61102000Y-105847000D01*
X65882000Y-105887000D02*
X64540000Y-105887000D01*
X62460000Y-105887000D02*
X61118000Y-105887000D01*
X65865000Y-105927000D02*
X64540000Y-105927000D01*
X62460000Y-105927000D02*
X61135000Y-105927000D01*
X65848000Y-105967000D02*
X64540000Y-105967000D01*
X62460000Y-105967000D02*
X61152000Y-105967000D01*
X65829000Y-106007000D02*
X64540000Y-106007000D01*
X62460000Y-106007000D02*
X61171000Y-106007000D01*
X65810000Y-106047000D02*
X64540000Y-106047000D01*
X62460000Y-106047000D02*
X61190000Y-106047000D01*
X65790000Y-106087000D02*
X64540000Y-106087000D01*
X62460000Y-106087000D02*
X61210000Y-106087000D01*
X65768000Y-106127000D02*
X64540000Y-106127000D01*
X62460000Y-106127000D02*
X61232000Y-106127000D01*
X65747000Y-106167000D02*
X64540000Y-106167000D01*
X62460000Y-106167000D02*
X61253000Y-106167000D01*
X65724000Y-106207000D02*
X64540000Y-106207000D01*
X62460000Y-106207000D02*
X61276000Y-106207000D01*
X65700000Y-106247000D02*
X64540000Y-106247000D01*
X62460000Y-106247000D02*
X61300000Y-106247000D01*
X65675000Y-106287000D02*
X64540000Y-106287000D01*
X62460000Y-106287000D02*
X61325000Y-106287000D01*
X65649000Y-106327000D02*
X64540000Y-106327000D01*
X62460000Y-106327000D02*
X61351000Y-106327000D01*
X65622000Y-106367000D02*
X64540000Y-106367000D01*
X62460000Y-106367000D02*
X61378000Y-106367000D01*
X65595000Y-106407000D02*
X64540000Y-106407000D01*
X62460000Y-106407000D02*
X61405000Y-106407000D01*
X65565000Y-106447000D02*
X64540000Y-106447000D01*
X62460000Y-106447000D02*
X61435000Y-106447000D01*
X65535000Y-106487000D02*
X64540000Y-106487000D01*
X62460000Y-106487000D02*
X61465000Y-106487000D01*
X65504000Y-106527000D02*
X64540000Y-106527000D01*
X62460000Y-106527000D02*
X61496000Y-106527000D01*
X65471000Y-106567000D02*
X64540000Y-106567000D01*
X62460000Y-106567000D02*
X61529000Y-106567000D01*
X65437000Y-106607000D02*
X64540000Y-106607000D01*
X62460000Y-106607000D02*
X61563000Y-106607000D01*
X65401000Y-106647000D02*
X64540000Y-106647000D01*
X62460000Y-106647000D02*
X61599000Y-106647000D01*
X65364000Y-106687000D02*
X64540000Y-106687000D01*
X62460000Y-106687000D02*
X61636000Y-106687000D01*
X65326000Y-106727000D02*
X64540000Y-106727000D01*
X62460000Y-106727000D02*
X61674000Y-106727000D01*
X65285000Y-106767000D02*
X64540000Y-106767000D01*
X62460000Y-106767000D02*
X61715000Y-106767000D01*
X65243000Y-106807000D02*
X64540000Y-106807000D01*
X62460000Y-106807000D02*
X61757000Y-106807000D01*
X65199000Y-106847000D02*
X64540000Y-106847000D01*
X62460000Y-106847000D02*
X61801000Y-106847000D01*
X65153000Y-106887000D02*
X64540000Y-106887000D01*
X62460000Y-106887000D02*
X61847000Y-106887000D01*
X65105000Y-106927000D02*
X61895000Y-106927000D01*
X65054000Y-106967000D02*
X61946000Y-106967000D01*
X65000000Y-107007000D02*
X62000000Y-107007000D01*
X64943000Y-107047000D02*
X62057000Y-107047000D01*
X64883000Y-107087000D02*
X62117000Y-107087000D01*
X64819000Y-107127000D02*
X62181000Y-107127000D01*
X64751000Y-107167000D02*
X62249000Y-107167000D01*
X64678000Y-107207000D02*
X62322000Y-107207000D01*
X64598000Y-107247000D02*
X62402000Y-107247000D01*
X64511000Y-107287000D02*
X62489000Y-107287000D01*
X64415000Y-107327000D02*
X62585000Y-107327000D01*
X64305000Y-107367000D02*
X62695000Y-107367000D01*
X64177000Y-107407000D02*
X62823000Y-107407000D01*
X64018000Y-107447000D02*
X62982000Y-107447000D01*
X63784000Y-107487000D02*
X63216000Y-107487000D01*
X64975000Y-102081225D02*
X64975000Y-102581225D01*
X65225000Y-102331225D02*
X64725000Y-102331225D01*
%TO.C,R9*%
X80740000Y-127989000D02*
X80740000Y-125249000D01*
X80740000Y-125249000D02*
X74200000Y-125249000D01*
X74200000Y-125249000D02*
X74200000Y-127989000D01*
X74200000Y-127989000D02*
X80740000Y-127989000D01*
X81510000Y-126619000D02*
X80740000Y-126619000D01*
X73430000Y-126619000D02*
X74200000Y-126619000D01*
%TO.C,R8*%
X82772000Y-131545000D02*
X82772000Y-128805000D01*
X82772000Y-128805000D02*
X76232000Y-128805000D01*
X76232000Y-128805000D02*
X76232000Y-131545000D01*
X76232000Y-131545000D02*
X82772000Y-131545000D01*
X83542000Y-130175000D02*
X82772000Y-130175000D01*
X75462000Y-130175000D02*
X76232000Y-130175000D01*
%TO.C,R5*%
X68961000Y-117372000D02*
X68961000Y-118142000D01*
X68961000Y-125452000D02*
X68961000Y-124682000D01*
X67591000Y-118142000D02*
X67591000Y-124682000D01*
X70331000Y-118142000D02*
X67591000Y-118142000D01*
X70331000Y-124682000D02*
X70331000Y-118142000D01*
X67591000Y-124682000D02*
X70331000Y-124682000D01*
%TO.C,R4*%
X65405000Y-120380000D02*
X65405000Y-121150000D01*
X65405000Y-128460000D02*
X65405000Y-127690000D01*
X64035000Y-121150000D02*
X64035000Y-127690000D01*
X66775000Y-121150000D02*
X64035000Y-121150000D01*
X66775000Y-127690000D02*
X66775000Y-121150000D01*
X64035000Y-127690000D02*
X66775000Y-127690000D01*
%TO.C,R3*%
X109120000Y-74930000D02*
X108350000Y-74930000D01*
X101040000Y-74930000D02*
X101810000Y-74930000D01*
X108350000Y-73560000D02*
X101810000Y-73560000D01*
X108350000Y-76300000D02*
X108350000Y-73560000D01*
X101810000Y-76300000D02*
X108350000Y-76300000D01*
X101810000Y-73560000D02*
X101810000Y-76300000D01*
%TO.C,R2*%
X96520000Y-71620000D02*
X96520000Y-70850000D01*
X96520000Y-63540000D02*
X96520000Y-64310000D01*
X97890000Y-70850000D02*
X97890000Y-64310000D01*
X95150000Y-70850000D02*
X97890000Y-70850000D01*
X95150000Y-64310000D02*
X95150000Y-70850000D01*
X97890000Y-64310000D02*
X95150000Y-64310000D01*
%TO.C,J9*%
X112330000Y-126330000D02*
X111000000Y-126330000D01*
X112330000Y-125000000D02*
X112330000Y-126330000D01*
X112330000Y-123730000D02*
X109670000Y-123730000D01*
X109670000Y-123730000D02*
X109670000Y-118590000D01*
X112330000Y-123730000D02*
X112330000Y-118590000D01*
X112330000Y-118590000D02*
X109670000Y-118590000D01*
%TO.C,J19*%
X87700000Y-137812000D02*
X87700000Y-138412000D01*
X89300000Y-137812000D02*
X87700000Y-137812000D01*
X89300000Y-138412000D02*
X89300000Y-137812000D01*
X90240000Y-137812000D02*
X90240000Y-138412000D01*
X91840000Y-137812000D02*
X90240000Y-137812000D01*
X91840000Y-138412000D02*
X91840000Y-137812000D01*
X92780000Y-137812000D02*
X92780000Y-138412000D01*
X94380000Y-137812000D02*
X92780000Y-137812000D01*
X94380000Y-138412000D02*
X94380000Y-137812000D01*
X95320000Y-137812000D02*
X95320000Y-138412000D01*
X96920000Y-137812000D02*
X95320000Y-137812000D01*
X96920000Y-138412000D02*
X96920000Y-137812000D01*
X88750000Y-132392000D02*
X88750000Y-133392000D01*
X95870000Y-132392000D02*
X95870000Y-133392000D01*
X88750000Y-133922000D02*
X88500000Y-133392000D01*
X95870000Y-133922000D02*
X88750000Y-133922000D01*
X96120000Y-133392000D02*
X95870000Y-133922000D01*
X88500000Y-133392000D02*
X88500000Y-132392000D01*
X96120000Y-133392000D02*
X88500000Y-133392000D01*
X96120000Y-132392000D02*
X96120000Y-133392000D01*
X97790000Y-137382000D02*
X97790000Y-133382000D01*
X87120000Y-138412000D02*
X97500000Y-138412000D01*
X87120000Y-132392000D02*
X87120000Y-138412000D01*
X97500000Y-132392000D02*
X87120000Y-132392000D01*
X97500000Y-138412000D02*
X97500000Y-132392000D01*
%TO.C,D1*%
X128992000Y-68326000D02*
G75*
G03*
X128992000Y-68326000I-2500000J0D01*
G01*
X124947000Y-70886000D02*
X128037000Y-70886000D01*
X126491538Y-65336000D02*
G75*
G02*
X128036830Y-70886000I462J-2990000D01*
G01*
X126492462Y-65336000D02*
G75*
G03*
X124947170Y-70886000I-462J-2990000D01*
G01*
%TO.C,J11*%
X79739000Y-138539000D02*
X79739000Y-132519000D01*
X79739000Y-132519000D02*
X66819000Y-132519000D01*
X66819000Y-132519000D02*
X66819000Y-138539000D01*
X66819000Y-138539000D02*
X79739000Y-138539000D01*
X80029000Y-137509000D02*
X80029000Y-133509000D01*
X78359000Y-132519000D02*
X78359000Y-133519000D01*
X78359000Y-133519000D02*
X68199000Y-133519000D01*
X68199000Y-133519000D02*
X68199000Y-132519000D01*
X78359000Y-133519000D02*
X78109000Y-134049000D01*
X78109000Y-134049000D02*
X68449000Y-134049000D01*
X68449000Y-134049000D02*
X68199000Y-133519000D01*
X78109000Y-132519000D02*
X78109000Y-133519000D01*
X68449000Y-132519000D02*
X68449000Y-133519000D01*
X79159000Y-138539000D02*
X79159000Y-137939000D01*
X79159000Y-137939000D02*
X77559000Y-137939000D01*
X77559000Y-137939000D02*
X77559000Y-138539000D01*
X76619000Y-138539000D02*
X76619000Y-137939000D01*
X76619000Y-137939000D02*
X75019000Y-137939000D01*
X75019000Y-137939000D02*
X75019000Y-138539000D01*
X74079000Y-138539000D02*
X74079000Y-137939000D01*
X74079000Y-137939000D02*
X72479000Y-137939000D01*
X72479000Y-137939000D02*
X72479000Y-138539000D01*
X71539000Y-138539000D02*
X71539000Y-137939000D01*
X71539000Y-137939000D02*
X69939000Y-137939000D01*
X69939000Y-137939000D02*
X69939000Y-138539000D01*
X68999000Y-138539000D02*
X68999000Y-137939000D01*
X68999000Y-137939000D02*
X67399000Y-137939000D01*
X67399000Y-137939000D02*
X67399000Y-138539000D01*
%TO.C,J2*%
X137713600Y-51500000D02*
X140163600Y-51500000D01*
X140163600Y-51500000D02*
X140163600Y-58500000D01*
X140163600Y-58500000D02*
X137713600Y-58500000D01*
X134213600Y-58500000D02*
X137713600Y-58500000D01*
X134213600Y-51500000D02*
X137713600Y-51500000D01*
X131763600Y-51500000D02*
X134213600Y-51500000D01*
X131763600Y-51500000D02*
X131763600Y-58500000D01*
X131763600Y-58500000D02*
X134213600Y-58500000D01*
%TO.C,U1*%
X117212000Y-64936000D02*
X117212000Y-72786000D01*
X117212000Y-72786000D02*
X105272000Y-72786000D01*
X105272000Y-72786000D02*
X105272000Y-64936000D01*
X105272000Y-64936000D02*
X117212000Y-64936000D01*
X117542000Y-67056000D02*
X117542000Y-64606000D01*
X117542000Y-64606000D02*
X115212000Y-64606000D01*
%TO.C,J14*%
X67330000Y-100950000D02*
X66000000Y-100950000D01*
X67330000Y-99620000D02*
X67330000Y-100950000D01*
X64730000Y-100950000D02*
X62130000Y-100950000D01*
X64730000Y-98350000D02*
X64730000Y-100950000D01*
X67330000Y-98350000D02*
X64730000Y-98350000D01*
X62130000Y-100950000D02*
X62130000Y-90670000D01*
X67330000Y-98350000D02*
X67330000Y-90670000D01*
X67330000Y-90670000D02*
X62130000Y-90670000D01*
%TO.C,J10*%
X120330000Y-126330000D02*
X119000000Y-126330000D01*
X120330000Y-125000000D02*
X120330000Y-126330000D01*
X120330000Y-123730000D02*
X117670000Y-123730000D01*
X117670000Y-123730000D02*
X117670000Y-118590000D01*
X120330000Y-123730000D02*
X120330000Y-118590000D01*
X120330000Y-118590000D02*
X117670000Y-118590000D01*
%TO.C,R1*%
X120650000Y-62000000D02*
X120650000Y-62770000D01*
X120650000Y-70080000D02*
X120650000Y-69310000D01*
X119280000Y-62770000D02*
X119280000Y-69310000D01*
X122020000Y-62770000D02*
X119280000Y-62770000D01*
X122020000Y-69310000D02*
X122020000Y-62770000D01*
X119280000Y-69310000D02*
X122020000Y-69310000D01*
%TO.C,F1*%
X119422000Y-55000000D02*
G75*
G03*
X119422000Y-55000000I-4360000J0D01*
G01*
%TO.C,J4*%
X93580000Y-51970000D02*
X93580000Y-57990000D01*
X93580000Y-57990000D02*
X98880000Y-57990000D01*
X98880000Y-57990000D02*
X98880000Y-51970000D01*
X98880000Y-51970000D02*
X93580000Y-51970000D01*
X93290000Y-53000000D02*
X93290000Y-57000000D01*
X94960000Y-57990000D02*
X94960000Y-56990000D01*
X94960000Y-56990000D02*
X97500000Y-56990000D01*
X97500000Y-56990000D02*
X97500000Y-57990000D01*
X94960000Y-56990000D02*
X95210000Y-56460000D01*
X95210000Y-56460000D02*
X97250000Y-56460000D01*
X97250000Y-56460000D02*
X97500000Y-56990000D01*
X95210000Y-57990000D02*
X95210000Y-56990000D01*
X97250000Y-57990000D02*
X97250000Y-56990000D01*
X94160000Y-51970000D02*
X94160000Y-52570000D01*
X94160000Y-52570000D02*
X95760000Y-52570000D01*
X95760000Y-52570000D02*
X95760000Y-51970000D01*
X96700000Y-51970000D02*
X96700000Y-52570000D01*
X96700000Y-52570000D02*
X98300000Y-52570000D01*
X98300000Y-52570000D02*
X98300000Y-51970000D01*
%TO.C,A2*%
X127570000Y-135400000D02*
X127570000Y-114820000D01*
X137730000Y-132730000D02*
X137730000Y-114820000D01*
X139000000Y-135400000D02*
X140400000Y-135400000D01*
X140400000Y-135400000D02*
X140400000Y-134000000D01*
X137730000Y-135400000D02*
X137730000Y-132730000D01*
X137730000Y-132730000D02*
X140400000Y-132730000D01*
X140400000Y-132730000D02*
X140400000Y-114820000D01*
X140400000Y-114820000D02*
X124900000Y-114820000D01*
X124900000Y-114820000D02*
X124900000Y-135400000D01*
X124900000Y-135400000D02*
X137730000Y-135400000D01*
%TO.C,J13*%
X66080000Y-51970000D02*
X66080000Y-57990000D01*
X66080000Y-57990000D02*
X76460000Y-57990000D01*
X76460000Y-57990000D02*
X76460000Y-51970000D01*
X76460000Y-51970000D02*
X66080000Y-51970000D01*
X65790000Y-53000000D02*
X65790000Y-57000000D01*
X67460000Y-57990000D02*
X67460000Y-56990000D01*
X67460000Y-56990000D02*
X75080000Y-56990000D01*
X75080000Y-56990000D02*
X75080000Y-57990000D01*
X67460000Y-56990000D02*
X67710000Y-56460000D01*
X67710000Y-56460000D02*
X74830000Y-56460000D01*
X74830000Y-56460000D02*
X75080000Y-56990000D01*
X67710000Y-57990000D02*
X67710000Y-56990000D01*
X74830000Y-57990000D02*
X74830000Y-56990000D01*
X66660000Y-51970000D02*
X66660000Y-52570000D01*
X66660000Y-52570000D02*
X68260000Y-52570000D01*
X68260000Y-52570000D02*
X68260000Y-51970000D01*
X69200000Y-51970000D02*
X69200000Y-52570000D01*
X69200000Y-52570000D02*
X70800000Y-52570000D01*
X70800000Y-52570000D02*
X70800000Y-51970000D01*
X71740000Y-51970000D02*
X71740000Y-52570000D01*
X71740000Y-52570000D02*
X73340000Y-52570000D01*
X73340000Y-52570000D02*
X73340000Y-51970000D01*
X74280000Y-51970000D02*
X74280000Y-52570000D01*
X74280000Y-52570000D02*
X75880000Y-52570000D01*
X75880000Y-52570000D02*
X75880000Y-51970000D01*
%TO.C,J8*%
X103330000Y-126330000D02*
X102000000Y-126330000D01*
X103330000Y-125000000D02*
X103330000Y-126330000D01*
X103330000Y-123730000D02*
X100670000Y-123730000D01*
X100670000Y-123730000D02*
X100670000Y-118590000D01*
X103330000Y-123730000D02*
X103330000Y-118590000D01*
X103330000Y-118590000D02*
X100670000Y-118590000D01*
%TO.C,J12*%
X57570000Y-113660000D02*
X56970000Y-113660000D01*
X57570000Y-115260000D02*
X57570000Y-113660000D01*
X56970000Y-115260000D02*
X57570000Y-115260000D01*
X57570000Y-116200000D02*
X56970000Y-116200000D01*
X57570000Y-117800000D02*
X57570000Y-116200000D01*
X56970000Y-117800000D02*
X57570000Y-117800000D01*
X57570000Y-118740000D02*
X56970000Y-118740000D01*
X57570000Y-120340000D02*
X57570000Y-118740000D01*
X56970000Y-120340000D02*
X57570000Y-120340000D01*
X57570000Y-121280000D02*
X56970000Y-121280000D01*
X57570000Y-122880000D02*
X57570000Y-121280000D01*
X56970000Y-122880000D02*
X57570000Y-122880000D01*
X57570000Y-123820000D02*
X56970000Y-123820000D01*
X57570000Y-125420000D02*
X57570000Y-123820000D01*
X56970000Y-125420000D02*
X57570000Y-125420000D01*
X62990000Y-114710000D02*
X61990000Y-114710000D01*
X62990000Y-124370000D02*
X61990000Y-124370000D01*
X61460000Y-114710000D02*
X61990000Y-114460000D01*
X61460000Y-124370000D02*
X61460000Y-114710000D01*
X61990000Y-124620000D02*
X61460000Y-124370000D01*
X61990000Y-114460000D02*
X62990000Y-114460000D01*
X61990000Y-124620000D02*
X61990000Y-114460000D01*
X62990000Y-124620000D02*
X61990000Y-124620000D01*
X58000000Y-126290000D02*
X62000000Y-126290000D01*
X56970000Y-113080000D02*
X56970000Y-126000000D01*
X62990000Y-113080000D02*
X56970000Y-113080000D01*
X62990000Y-126000000D02*
X62990000Y-113080000D01*
X56970000Y-126000000D02*
X62990000Y-126000000D01*
%TO.C,J3*%
X102080000Y-51970000D02*
X102080000Y-57990000D01*
X102080000Y-57990000D02*
X107380000Y-57990000D01*
X107380000Y-57990000D02*
X107380000Y-51970000D01*
X107380000Y-51970000D02*
X102080000Y-51970000D01*
X101790000Y-53000000D02*
X101790000Y-57000000D01*
X103460000Y-57990000D02*
X103460000Y-56990000D01*
X103460000Y-56990000D02*
X106000000Y-56990000D01*
X106000000Y-56990000D02*
X106000000Y-57990000D01*
X103460000Y-56990000D02*
X103710000Y-56460000D01*
X103710000Y-56460000D02*
X105750000Y-56460000D01*
X105750000Y-56460000D02*
X106000000Y-56990000D01*
X103710000Y-57990000D02*
X103710000Y-56990000D01*
X105750000Y-57990000D02*
X105750000Y-56990000D01*
X102660000Y-51970000D02*
X102660000Y-52570000D01*
X102660000Y-52570000D02*
X104260000Y-52570000D01*
X104260000Y-52570000D02*
X104260000Y-51970000D01*
X105200000Y-51970000D02*
X105200000Y-52570000D01*
X105200000Y-52570000D02*
X106800000Y-52570000D01*
X106800000Y-52570000D02*
X106800000Y-51970000D01*
%TO.C,J1*%
X127000000Y-51500000D02*
X129450000Y-51500000D01*
X129450000Y-51500000D02*
X129450000Y-58500000D01*
X129450000Y-58500000D02*
X127000000Y-58500000D01*
X123500000Y-58500000D02*
X127000000Y-58500000D01*
X123500000Y-51500000D02*
X127000000Y-51500000D01*
X121050000Y-51500000D02*
X123500000Y-51500000D01*
X121050000Y-51500000D02*
X121050000Y-58500000D01*
X121050000Y-58500000D02*
X123500000Y-58500000D01*
%TO.C,D2*%
X130140000Y-61014000D02*
X130140000Y-63954000D01*
X130380000Y-61014000D02*
X130380000Y-63954000D01*
X130260000Y-61014000D02*
X130260000Y-63954000D01*
X135820000Y-62484000D02*
X134800000Y-62484000D01*
X128340000Y-62484000D02*
X129360000Y-62484000D01*
X134800000Y-61014000D02*
X129360000Y-61014000D01*
X134800000Y-63954000D02*
X134800000Y-61014000D01*
X129360000Y-63954000D02*
X134800000Y-63954000D01*
X129360000Y-61014000D02*
X129360000Y-63954000D01*
%TO.C,A1*%
X122400000Y-110430000D02*
X101820000Y-110430000D01*
X119730000Y-100270000D02*
X101820000Y-100270000D01*
X122400000Y-99000000D02*
X122400000Y-97600000D01*
X122400000Y-97600000D02*
X121000000Y-97600000D01*
X122400000Y-100270000D02*
X119730000Y-100270000D01*
X119730000Y-100270000D02*
X119730000Y-97600000D01*
X119730000Y-97600000D02*
X101820000Y-97600000D01*
X101820000Y-97600000D02*
X101820000Y-113100000D01*
X101820000Y-113100000D02*
X122400000Y-113100000D01*
X122400000Y-113100000D02*
X122400000Y-100270000D01*
%TO.C,J5*%
D12*
X87042666Y-58952380D02*
X87042666Y-59666666D01*
X86995047Y-59809523D01*
X86899809Y-59904761D01*
X86756952Y-59952380D01*
X86661714Y-59952380D01*
X87995047Y-58952380D02*
X87518857Y-58952380D01*
X87471238Y-59428571D01*
X87518857Y-59380952D01*
X87614095Y-59333333D01*
X87852190Y-59333333D01*
X87947428Y-59380952D01*
X87995047Y-59428571D01*
X88042666Y-59523809D01*
X88042666Y-59761904D01*
X87995047Y-59857142D01*
X87947428Y-59904761D01*
X87852190Y-59952380D01*
X87614095Y-59952380D01*
X87518857Y-59904761D01*
X87471238Y-59857142D01*
%TO.C,R14*%
X62730142Y-58872380D02*
X62396809Y-58396190D01*
X62158714Y-58872380D02*
X62158714Y-57872380D01*
X62539666Y-57872380D01*
X62634904Y-57920000D01*
X62682523Y-57967619D01*
X62730142Y-58062857D01*
X62730142Y-58205714D01*
X62682523Y-58300952D01*
X62634904Y-58348571D01*
X62539666Y-58396190D01*
X62158714Y-58396190D01*
X63682523Y-58872380D02*
X63111095Y-58872380D01*
X63396809Y-58872380D02*
X63396809Y-57872380D01*
X63301571Y-58015238D01*
X63206333Y-58110476D01*
X63111095Y-58158095D01*
X64539666Y-58205714D02*
X64539666Y-58872380D01*
X64301571Y-57824761D02*
X64063476Y-58539047D01*
X64682523Y-58539047D01*
%TO.C,J22*%
X69048380Y-67103523D02*
X69762666Y-67103523D01*
X69905523Y-67151142D01*
X70000761Y-67246380D01*
X70048380Y-67389238D01*
X70048380Y-67484476D01*
X69143619Y-66674952D02*
X69096000Y-66627333D01*
X69048380Y-66532095D01*
X69048380Y-66294000D01*
X69096000Y-66198761D01*
X69143619Y-66151142D01*
X69238857Y-66103523D01*
X69334095Y-66103523D01*
X69476952Y-66151142D01*
X70048380Y-66722571D01*
X70048380Y-66103523D01*
X69143619Y-65722571D02*
X69096000Y-65674952D01*
X69048380Y-65579714D01*
X69048380Y-65341619D01*
X69096000Y-65246380D01*
X69143619Y-65198761D01*
X69238857Y-65151142D01*
X69334095Y-65151142D01*
X69476952Y-65198761D01*
X70048380Y-65770190D01*
X70048380Y-65151142D01*
%TO.C,D3*%
X57602380Y-66905095D02*
X56602380Y-66905095D01*
X56602380Y-66667000D01*
X56650000Y-66524142D01*
X56745238Y-66428904D01*
X56840476Y-66381285D01*
X57030952Y-66333666D01*
X57173809Y-66333666D01*
X57364285Y-66381285D01*
X57459523Y-66428904D01*
X57554761Y-66524142D01*
X57602380Y-66667000D01*
X57602380Y-66905095D01*
X56602380Y-66000333D02*
X56602380Y-65381285D01*
X56983333Y-65714619D01*
X56983333Y-65571761D01*
X57030952Y-65476523D01*
X57078571Y-65428904D01*
X57173809Y-65381285D01*
X57411904Y-65381285D01*
X57507142Y-65428904D01*
X57554761Y-65476523D01*
X57602380Y-65571761D01*
X57602380Y-65857476D01*
X57554761Y-65952714D01*
X57507142Y-66000333D01*
%TO.C,C5*%
X101433333Y-62873142D02*
X101385714Y-62920761D01*
X101242857Y-62968380D01*
X101147619Y-62968380D01*
X101004761Y-62920761D01*
X100909523Y-62825523D01*
X100861904Y-62730285D01*
X100814285Y-62539809D01*
X100814285Y-62396952D01*
X100861904Y-62206476D01*
X100909523Y-62111238D01*
X101004761Y-62016000D01*
X101147619Y-61968380D01*
X101242857Y-61968380D01*
X101385714Y-62016000D01*
X101433333Y-62063619D01*
X102338095Y-61968380D02*
X101861904Y-61968380D01*
X101814285Y-62444571D01*
X101861904Y-62396952D01*
X101957142Y-62349333D01*
X102195238Y-62349333D01*
X102290476Y-62396952D01*
X102338095Y-62444571D01*
X102385714Y-62539809D01*
X102385714Y-62777904D01*
X102338095Y-62873142D01*
X102290476Y-62920761D01*
X102195238Y-62968380D01*
X101957142Y-62968380D01*
X101861904Y-62920761D01*
X101814285Y-62873142D01*
%TO.C,C4*%
X109815333Y-58269142D02*
X109767714Y-58316761D01*
X109624857Y-58364380D01*
X109529619Y-58364380D01*
X109386761Y-58316761D01*
X109291523Y-58221523D01*
X109243904Y-58126285D01*
X109196285Y-57935809D01*
X109196285Y-57792952D01*
X109243904Y-57602476D01*
X109291523Y-57507238D01*
X109386761Y-57412000D01*
X109529619Y-57364380D01*
X109624857Y-57364380D01*
X109767714Y-57412000D01*
X109815333Y-57459619D01*
X110672476Y-57697714D02*
X110672476Y-58364380D01*
X110434380Y-57316761D02*
X110196285Y-58031047D01*
X110815333Y-58031047D01*
%TO.C,J21*%
X97242380Y-82089523D02*
X97956666Y-82089523D01*
X98099523Y-82137142D01*
X98194761Y-82232380D01*
X98242380Y-82375238D01*
X98242380Y-82470476D01*
X97337619Y-81660952D02*
X97290000Y-81613333D01*
X97242380Y-81518095D01*
X97242380Y-81280000D01*
X97290000Y-81184761D01*
X97337619Y-81137142D01*
X97432857Y-81089523D01*
X97528095Y-81089523D01*
X97670952Y-81137142D01*
X98242380Y-81708571D01*
X98242380Y-81089523D01*
X98242380Y-80137142D02*
X98242380Y-80708571D01*
X98242380Y-80422857D02*
X97242380Y-80422857D01*
X97385238Y-80518095D01*
X97480476Y-80613333D01*
X97528095Y-80708571D01*
%TO.C,R13*%
X63444380Y-78366857D02*
X62968190Y-78700190D01*
X63444380Y-78938285D02*
X62444380Y-78938285D01*
X62444380Y-78557333D01*
X62492000Y-78462095D01*
X62539619Y-78414476D01*
X62634857Y-78366857D01*
X62777714Y-78366857D01*
X62872952Y-78414476D01*
X62920571Y-78462095D01*
X62968190Y-78557333D01*
X62968190Y-78938285D01*
X63444380Y-77414476D02*
X63444380Y-77985904D01*
X63444380Y-77700190D02*
X62444380Y-77700190D01*
X62587238Y-77795428D01*
X62682476Y-77890666D01*
X62730095Y-77985904D01*
X62444380Y-77081142D02*
X62444380Y-76462095D01*
X62825333Y-76795428D01*
X62825333Y-76652571D01*
X62872952Y-76557333D01*
X62920571Y-76509714D01*
X63015809Y-76462095D01*
X63253904Y-76462095D01*
X63349142Y-76509714D01*
X63396761Y-76557333D01*
X63444380Y-76652571D01*
X63444380Y-76938285D01*
X63396761Y-77033523D01*
X63349142Y-77081142D01*
%TO.C,R12*%
X68318142Y-74264780D02*
X67984809Y-73788590D01*
X67746714Y-74264780D02*
X67746714Y-73264780D01*
X68127666Y-73264780D01*
X68222904Y-73312400D01*
X68270523Y-73360019D01*
X68318142Y-73455257D01*
X68318142Y-73598114D01*
X68270523Y-73693352D01*
X68222904Y-73740971D01*
X68127666Y-73788590D01*
X67746714Y-73788590D01*
X69270523Y-74264780D02*
X68699095Y-74264780D01*
X68984809Y-74264780D02*
X68984809Y-73264780D01*
X68889571Y-73407638D01*
X68794333Y-73502876D01*
X68699095Y-73550495D01*
X69651476Y-73360019D02*
X69699095Y-73312400D01*
X69794333Y-73264780D01*
X70032428Y-73264780D01*
X70127666Y-73312400D01*
X70175285Y-73360019D01*
X70222904Y-73455257D01*
X70222904Y-73550495D01*
X70175285Y-73693352D01*
X69603857Y-74264780D01*
X70222904Y-74264780D01*
%TO.C,R11*%
X127357142Y-73452380D02*
X127023809Y-72976190D01*
X126785714Y-73452380D02*
X126785714Y-72452380D01*
X127166666Y-72452380D01*
X127261904Y-72500000D01*
X127309523Y-72547619D01*
X127357142Y-72642857D01*
X127357142Y-72785714D01*
X127309523Y-72880952D01*
X127261904Y-72928571D01*
X127166666Y-72976190D01*
X126785714Y-72976190D01*
X128309523Y-73452380D02*
X127738095Y-73452380D01*
X128023809Y-73452380D02*
X128023809Y-72452380D01*
X127928571Y-72595238D01*
X127833333Y-72690476D01*
X127738095Y-72738095D01*
X129261904Y-73452380D02*
X128690476Y-73452380D01*
X128976190Y-73452380D02*
X128976190Y-72452380D01*
X128880952Y-72595238D01*
X128785714Y-72690476D01*
X128690476Y-72738095D01*
%TO.C,R10*%
X123357142Y-73452380D02*
X123023809Y-72976190D01*
X122785714Y-73452380D02*
X122785714Y-72452380D01*
X123166666Y-72452380D01*
X123261904Y-72500000D01*
X123309523Y-72547619D01*
X123357142Y-72642857D01*
X123357142Y-72785714D01*
X123309523Y-72880952D01*
X123261904Y-72928571D01*
X123166666Y-72976190D01*
X122785714Y-72976190D01*
X124309523Y-73452380D02*
X123738095Y-73452380D01*
X124023809Y-73452380D02*
X124023809Y-72452380D01*
X123928571Y-72595238D01*
X123833333Y-72690476D01*
X123738095Y-72738095D01*
X124928571Y-72452380D02*
X125023809Y-72452380D01*
X125119047Y-72500000D01*
X125166666Y-72547619D01*
X125214285Y-72642857D01*
X125261904Y-72833333D01*
X125261904Y-73071428D01*
X125214285Y-73261904D01*
X125166666Y-73357142D01*
X125119047Y-73404761D01*
X125023809Y-73452380D01*
X124928571Y-73452380D01*
X124833333Y-73404761D01*
X124785714Y-73357142D01*
X124738095Y-73261904D01*
X124690476Y-73071428D01*
X124690476Y-72833333D01*
X124738095Y-72642857D01*
X124785714Y-72547619D01*
X124833333Y-72500000D01*
X124928571Y-72452380D01*
%TO.C,R7*%
X119833333Y-73452380D02*
X119500000Y-72976190D01*
X119261904Y-73452380D02*
X119261904Y-72452380D01*
X119642857Y-72452380D01*
X119738095Y-72500000D01*
X119785714Y-72547619D01*
X119833333Y-72642857D01*
X119833333Y-72785714D01*
X119785714Y-72880952D01*
X119738095Y-72928571D01*
X119642857Y-72976190D01*
X119261904Y-72976190D01*
X120166666Y-72452380D02*
X120833333Y-72452380D01*
X120404761Y-73452380D01*
%TO.C,R6*%
X113228380Y-75350666D02*
X112752190Y-75684000D01*
X113228380Y-75922095D02*
X112228380Y-75922095D01*
X112228380Y-75541142D01*
X112276000Y-75445904D01*
X112323619Y-75398285D01*
X112418857Y-75350666D01*
X112561714Y-75350666D01*
X112656952Y-75398285D01*
X112704571Y-75445904D01*
X112752190Y-75541142D01*
X112752190Y-75922095D01*
X112228380Y-74493523D02*
X112228380Y-74684000D01*
X112276000Y-74779238D01*
X112323619Y-74826857D01*
X112466476Y-74922095D01*
X112656952Y-74969714D01*
X113037904Y-74969714D01*
X113133142Y-74922095D01*
X113180761Y-74874476D01*
X113228380Y-74779238D01*
X113228380Y-74588761D01*
X113180761Y-74493523D01*
X113133142Y-74445904D01*
X113037904Y-74398285D01*
X112799809Y-74398285D01*
X112704571Y-74445904D01*
X112656952Y-74493523D01*
X112609333Y-74588761D01*
X112609333Y-74779238D01*
X112656952Y-74874476D01*
X112704571Y-74922095D01*
X112799809Y-74969714D01*
%TO.C,J20*%
X143970476Y-87392380D02*
X143970476Y-88106666D01*
X143922857Y-88249523D01*
X143827619Y-88344761D01*
X143684761Y-88392380D01*
X143589523Y-88392380D01*
X144399047Y-87487619D02*
X144446666Y-87440000D01*
X144541904Y-87392380D01*
X144780000Y-87392380D01*
X144875238Y-87440000D01*
X144922857Y-87487619D01*
X144970476Y-87582857D01*
X144970476Y-87678095D01*
X144922857Y-87820952D01*
X144351428Y-88392380D01*
X144970476Y-88392380D01*
X145589523Y-87392380D02*
X145684761Y-87392380D01*
X145780000Y-87440000D01*
X145827619Y-87487619D01*
X145875238Y-87582857D01*
X145922857Y-87773333D01*
X145922857Y-88011428D01*
X145875238Y-88201904D01*
X145827619Y-88297142D01*
X145780000Y-88344761D01*
X145684761Y-88392380D01*
X145589523Y-88392380D01*
X145494285Y-88344761D01*
X145446666Y-88297142D01*
X145399047Y-88201904D01*
X145351428Y-88011428D01*
X145351428Y-87773333D01*
X145399047Y-87582857D01*
X145446666Y-87487619D01*
X145494285Y-87440000D01*
X145589523Y-87392380D01*
%TO.C,J18*%
X143970476Y-77232380D02*
X143970476Y-77946666D01*
X143922857Y-78089523D01*
X143827619Y-78184761D01*
X143684761Y-78232380D01*
X143589523Y-78232380D01*
X144970476Y-78232380D02*
X144399047Y-78232380D01*
X144684761Y-78232380D02*
X144684761Y-77232380D01*
X144589523Y-77375238D01*
X144494285Y-77470476D01*
X144399047Y-77518095D01*
X145541904Y-77660952D02*
X145446666Y-77613333D01*
X145399047Y-77565714D01*
X145351428Y-77470476D01*
X145351428Y-77422857D01*
X145399047Y-77327619D01*
X145446666Y-77280000D01*
X145541904Y-77232380D01*
X145732380Y-77232380D01*
X145827619Y-77280000D01*
X145875238Y-77327619D01*
X145922857Y-77422857D01*
X145922857Y-77470476D01*
X145875238Y-77565714D01*
X145827619Y-77613333D01*
X145732380Y-77660952D01*
X145541904Y-77660952D01*
X145446666Y-77708571D01*
X145399047Y-77756190D01*
X145351428Y-77851428D01*
X145351428Y-78041904D01*
X145399047Y-78137142D01*
X145446666Y-78184761D01*
X145541904Y-78232380D01*
X145732380Y-78232380D01*
X145827619Y-78184761D01*
X145875238Y-78137142D01*
X145922857Y-78041904D01*
X145922857Y-77851428D01*
X145875238Y-77756190D01*
X145827619Y-77708571D01*
X145732380Y-77660952D01*
%TO.C,J17*%
X135080476Y-87392380D02*
X135080476Y-88106666D01*
X135032857Y-88249523D01*
X134937619Y-88344761D01*
X134794761Y-88392380D01*
X134699523Y-88392380D01*
X136080476Y-88392380D02*
X135509047Y-88392380D01*
X135794761Y-88392380D02*
X135794761Y-87392380D01*
X135699523Y-87535238D01*
X135604285Y-87630476D01*
X135509047Y-87678095D01*
X136413809Y-87392380D02*
X137080476Y-87392380D01*
X136651904Y-88392380D01*
%TO.C,J16*%
X135080476Y-77232380D02*
X135080476Y-77946666D01*
X135032857Y-78089523D01*
X134937619Y-78184761D01*
X134794761Y-78232380D01*
X134699523Y-78232380D01*
X136080476Y-78232380D02*
X135509047Y-78232380D01*
X135794761Y-78232380D02*
X135794761Y-77232380D01*
X135699523Y-77375238D01*
X135604285Y-77470476D01*
X135509047Y-77518095D01*
X136937619Y-77232380D02*
X136747142Y-77232380D01*
X136651904Y-77280000D01*
X136604285Y-77327619D01*
X136509047Y-77470476D01*
X136461428Y-77660952D01*
X136461428Y-78041904D01*
X136509047Y-78137142D01*
X136556666Y-78184761D01*
X136651904Y-78232380D01*
X136842380Y-78232380D01*
X136937619Y-78184761D01*
X136985238Y-78137142D01*
X137032857Y-78041904D01*
X137032857Y-77803809D01*
X136985238Y-77708571D01*
X136937619Y-77660952D01*
X136842380Y-77613333D01*
X136651904Y-77613333D01*
X136556666Y-77660952D01*
X136509047Y-77708571D01*
X136461428Y-77803809D01*
%TO.C,J7*%
X146666666Y-114452380D02*
X146666666Y-115166666D01*
X146619047Y-115309523D01*
X146523809Y-115404761D01*
X146380952Y-115452380D01*
X146285714Y-115452380D01*
X147047619Y-114452380D02*
X147714285Y-114452380D01*
X147285714Y-115452380D01*
%TO.C,J6*%
X141666666Y-107452380D02*
X141666666Y-108166666D01*
X141619047Y-108309523D01*
X141523809Y-108404761D01*
X141380952Y-108452380D01*
X141285714Y-108452380D01*
X142571428Y-107452380D02*
X142380952Y-107452380D01*
X142285714Y-107500000D01*
X142238095Y-107547619D01*
X142142857Y-107690476D01*
X142095238Y-107880952D01*
X142095238Y-108261904D01*
X142142857Y-108357142D01*
X142190476Y-108404761D01*
X142285714Y-108452380D01*
X142476190Y-108452380D01*
X142571428Y-108404761D01*
X142619047Y-108357142D01*
X142666666Y-108261904D01*
X142666666Y-108023809D01*
X142619047Y-107928571D01*
X142571428Y-107880952D01*
X142476190Y-107833333D01*
X142285714Y-107833333D01*
X142190476Y-107880952D01*
X142142857Y-107928571D01*
X142095238Y-108023809D01*
%TO.C,C2*%
X136833333Y-109357142D02*
X136785714Y-109404761D01*
X136642857Y-109452380D01*
X136547619Y-109452380D01*
X136404761Y-109404761D01*
X136309523Y-109309523D01*
X136261904Y-109214285D01*
X136214285Y-109023809D01*
X136214285Y-108880952D01*
X136261904Y-108690476D01*
X136309523Y-108595238D01*
X136404761Y-108500000D01*
X136547619Y-108452380D01*
X136642857Y-108452380D01*
X136785714Y-108500000D01*
X136833333Y-108547619D01*
X137214285Y-108547619D02*
X137261904Y-108500000D01*
X137357142Y-108452380D01*
X137595238Y-108452380D01*
X137690476Y-108500000D01*
X137738095Y-108547619D01*
X137785714Y-108642857D01*
X137785714Y-108738095D01*
X137738095Y-108880952D01*
X137166666Y-109452380D01*
X137785714Y-109452380D01*
%TO.C,C1*%
X108291333Y-91289142D02*
X108243714Y-91336761D01*
X108100857Y-91384380D01*
X108005619Y-91384380D01*
X107862761Y-91336761D01*
X107767523Y-91241523D01*
X107719904Y-91146285D01*
X107672285Y-90955809D01*
X107672285Y-90812952D01*
X107719904Y-90622476D01*
X107767523Y-90527238D01*
X107862761Y-90432000D01*
X108005619Y-90384380D01*
X108100857Y-90384380D01*
X108243714Y-90432000D01*
X108291333Y-90479619D01*
X109243714Y-91384380D02*
X108672285Y-91384380D01*
X108958000Y-91384380D02*
X108958000Y-90384380D01*
X108862761Y-90527238D01*
X108767523Y-90622476D01*
X108672285Y-90670095D01*
%TO.C,C3*%
X67083333Y-104243142D02*
X67035714Y-104290761D01*
X66892857Y-104338380D01*
X66797619Y-104338380D01*
X66654761Y-104290761D01*
X66559523Y-104195523D01*
X66511904Y-104100285D01*
X66464285Y-103909809D01*
X66464285Y-103766952D01*
X66511904Y-103576476D01*
X66559523Y-103481238D01*
X66654761Y-103386000D01*
X66797619Y-103338380D01*
X66892857Y-103338380D01*
X67035714Y-103386000D01*
X67083333Y-103433619D01*
X67416666Y-103338380D02*
X68035714Y-103338380D01*
X67702380Y-103719333D01*
X67845238Y-103719333D01*
X67940476Y-103766952D01*
X67988095Y-103814571D01*
X68035714Y-103909809D01*
X68035714Y-104147904D01*
X67988095Y-104243142D01*
X67940476Y-104290761D01*
X67845238Y-104338380D01*
X67559523Y-104338380D01*
X67464285Y-104290761D01*
X67416666Y-104243142D01*
%TO.C,R9*%
X84949380Y-126896666D02*
X84473190Y-127230000D01*
X84949380Y-127468095D02*
X83949380Y-127468095D01*
X83949380Y-127087142D01*
X83997000Y-126991904D01*
X84044619Y-126944285D01*
X84139857Y-126896666D01*
X84282714Y-126896666D01*
X84377952Y-126944285D01*
X84425571Y-126991904D01*
X84473190Y-127087142D01*
X84473190Y-127468095D01*
X84949380Y-126420476D02*
X84949380Y-126230000D01*
X84901761Y-126134761D01*
X84854142Y-126087142D01*
X84711285Y-125991904D01*
X84520809Y-125944285D01*
X84139857Y-125944285D01*
X84044619Y-125991904D01*
X83997000Y-126039523D01*
X83949380Y-126134761D01*
X83949380Y-126325238D01*
X83997000Y-126420476D01*
X84044619Y-126468095D01*
X84139857Y-126515714D01*
X84377952Y-126515714D01*
X84473190Y-126468095D01*
X84520809Y-126420476D01*
X84568428Y-126325238D01*
X84568428Y-126134761D01*
X84520809Y-126039523D01*
X84473190Y-125991904D01*
X84377952Y-125944285D01*
%TO.C,R8*%
X73051380Y-130373666D02*
X72575190Y-130707000D01*
X73051380Y-130945095D02*
X72051380Y-130945095D01*
X72051380Y-130564142D01*
X72099000Y-130468904D01*
X72146619Y-130421285D01*
X72241857Y-130373666D01*
X72384714Y-130373666D01*
X72479952Y-130421285D01*
X72527571Y-130468904D01*
X72575190Y-130564142D01*
X72575190Y-130945095D01*
X72479952Y-129802238D02*
X72432333Y-129897476D01*
X72384714Y-129945095D01*
X72289476Y-129992714D01*
X72241857Y-129992714D01*
X72146619Y-129945095D01*
X72099000Y-129897476D01*
X72051380Y-129802238D01*
X72051380Y-129611761D01*
X72099000Y-129516523D01*
X72146619Y-129468904D01*
X72241857Y-129421285D01*
X72289476Y-129421285D01*
X72384714Y-129468904D01*
X72432333Y-129516523D01*
X72479952Y-129611761D01*
X72479952Y-129802238D01*
X72527571Y-129897476D01*
X72575190Y-129945095D01*
X72670428Y-129992714D01*
X72860904Y-129992714D01*
X72956142Y-129945095D01*
X73003761Y-129897476D01*
X73051380Y-129802238D01*
X73051380Y-129611761D01*
X73003761Y-129516523D01*
X72956142Y-129468904D01*
X72860904Y-129421285D01*
X72670428Y-129421285D01*
X72575190Y-129468904D01*
X72527571Y-129516523D01*
X72479952Y-129611761D01*
%TO.C,R5*%
X68739333Y-114965380D02*
X68406000Y-114489190D01*
X68167904Y-114965380D02*
X68167904Y-113965380D01*
X68548857Y-113965380D01*
X68644095Y-114013000D01*
X68691714Y-114060619D01*
X68739333Y-114155857D01*
X68739333Y-114298714D01*
X68691714Y-114393952D01*
X68644095Y-114441571D01*
X68548857Y-114489190D01*
X68167904Y-114489190D01*
X69644095Y-113965380D02*
X69167904Y-113965380D01*
X69120285Y-114441571D01*
X69167904Y-114393952D01*
X69263142Y-114346333D01*
X69501238Y-114346333D01*
X69596476Y-114393952D01*
X69644095Y-114441571D01*
X69691714Y-114536809D01*
X69691714Y-114774904D01*
X69644095Y-114870142D01*
X69596476Y-114917761D01*
X69501238Y-114965380D01*
X69263142Y-114965380D01*
X69167904Y-114917761D01*
X69120285Y-114870142D01*
%TO.C,R4*%
X65135333Y-118054380D02*
X64802000Y-117578190D01*
X64563904Y-118054380D02*
X64563904Y-117054380D01*
X64944857Y-117054380D01*
X65040095Y-117102000D01*
X65087714Y-117149619D01*
X65135333Y-117244857D01*
X65135333Y-117387714D01*
X65087714Y-117482952D01*
X65040095Y-117530571D01*
X64944857Y-117578190D01*
X64563904Y-117578190D01*
X65992476Y-117387714D02*
X65992476Y-118054380D01*
X65754380Y-117006761D02*
X65516285Y-117721047D01*
X66135333Y-117721047D01*
%TO.C,R3*%
X108418333Y-77795380D02*
X108085000Y-77319190D01*
X107846904Y-77795380D02*
X107846904Y-76795380D01*
X108227857Y-76795380D01*
X108323095Y-76843000D01*
X108370714Y-76890619D01*
X108418333Y-76985857D01*
X108418333Y-77128714D01*
X108370714Y-77223952D01*
X108323095Y-77271571D01*
X108227857Y-77319190D01*
X107846904Y-77319190D01*
X108751666Y-76795380D02*
X109370714Y-76795380D01*
X109037380Y-77176333D01*
X109180238Y-77176333D01*
X109275476Y-77223952D01*
X109323095Y-77271571D01*
X109370714Y-77366809D01*
X109370714Y-77604904D01*
X109323095Y-77700142D01*
X109275476Y-77747761D01*
X109180238Y-77795380D01*
X108894523Y-77795380D01*
X108799285Y-77747761D01*
X108751666Y-77700142D01*
%TO.C,R2*%
X94686380Y-67730666D02*
X94210190Y-68064000D01*
X94686380Y-68302095D02*
X93686380Y-68302095D01*
X93686380Y-67921142D01*
X93734000Y-67825904D01*
X93781619Y-67778285D01*
X93876857Y-67730666D01*
X94019714Y-67730666D01*
X94114952Y-67778285D01*
X94162571Y-67825904D01*
X94210190Y-67921142D01*
X94210190Y-68302095D01*
X93781619Y-67349714D02*
X93734000Y-67302095D01*
X93686380Y-67206857D01*
X93686380Y-66968761D01*
X93734000Y-66873523D01*
X93781619Y-66825904D01*
X93876857Y-66778285D01*
X93972095Y-66778285D01*
X94114952Y-66825904D01*
X94686380Y-67397333D01*
X94686380Y-66778285D01*
%TO.C,J9*%
X110666666Y-126782380D02*
X110666666Y-127496666D01*
X110619047Y-127639523D01*
X110523809Y-127734761D01*
X110380952Y-127782380D01*
X110285714Y-127782380D01*
X111190476Y-127782380D02*
X111380952Y-127782380D01*
X111476190Y-127734761D01*
X111523809Y-127687142D01*
X111619047Y-127544285D01*
X111666666Y-127353809D01*
X111666666Y-126972857D01*
X111619047Y-126877619D01*
X111571428Y-126830000D01*
X111476190Y-126782380D01*
X111285714Y-126782380D01*
X111190476Y-126830000D01*
X111142857Y-126877619D01*
X111095238Y-126972857D01*
X111095238Y-127210952D01*
X111142857Y-127306190D01*
X111190476Y-127353809D01*
X111285714Y-127401428D01*
X111476190Y-127401428D01*
X111571428Y-127353809D01*
X111619047Y-127306190D01*
X111666666Y-127210952D01*
%TO.C,J19*%
X85304380Y-138335523D02*
X86018666Y-138335523D01*
X86161523Y-138383142D01*
X86256761Y-138478380D01*
X86304380Y-138621238D01*
X86304380Y-138716476D01*
X86304380Y-137335523D02*
X86304380Y-137906952D01*
X86304380Y-137621238D02*
X85304380Y-137621238D01*
X85447238Y-137716476D01*
X85542476Y-137811714D01*
X85590095Y-137906952D01*
X86304380Y-136859333D02*
X86304380Y-136668857D01*
X86256761Y-136573619D01*
X86209142Y-136526000D01*
X86066285Y-136430761D01*
X85875809Y-136383142D01*
X85494857Y-136383142D01*
X85399619Y-136430761D01*
X85352000Y-136478380D01*
X85304380Y-136573619D01*
X85304380Y-136764095D01*
X85352000Y-136859333D01*
X85399619Y-136906952D01*
X85494857Y-136954571D01*
X85732952Y-136954571D01*
X85828190Y-136906952D01*
X85875809Y-136859333D01*
X85923428Y-136764095D01*
X85923428Y-136573619D01*
X85875809Y-136478380D01*
X85828190Y-136430761D01*
X85732952Y-136383142D01*
%TO.C,D1*%
X130071904Y-68016380D02*
X130071904Y-67016380D01*
X130310000Y-67016380D01*
X130452857Y-67064000D01*
X130548095Y-67159238D01*
X130595714Y-67254476D01*
X130643333Y-67444952D01*
X130643333Y-67587809D01*
X130595714Y-67778285D01*
X130548095Y-67873523D01*
X130452857Y-67968761D01*
X130310000Y-68016380D01*
X130071904Y-68016380D01*
X131595714Y-68016380D02*
X131024285Y-68016380D01*
X131310000Y-68016380D02*
X131310000Y-67016380D01*
X131214761Y-67159238D01*
X131119523Y-67254476D01*
X131024285Y-67302095D01*
%TO.C,J11*%
X65009380Y-138462523D02*
X65723666Y-138462523D01*
X65866523Y-138510142D01*
X65961761Y-138605380D01*
X66009380Y-138748238D01*
X66009380Y-138843476D01*
X66009380Y-137462523D02*
X66009380Y-138033952D01*
X66009380Y-137748238D02*
X65009380Y-137748238D01*
X65152238Y-137843476D01*
X65247476Y-137938714D01*
X65295095Y-138033952D01*
X66009380Y-136510142D02*
X66009380Y-137081571D01*
X66009380Y-136795857D02*
X65009380Y-136795857D01*
X65152238Y-136891095D01*
X65247476Y-136986333D01*
X65295095Y-137081571D01*
%TO.C,J2*%
X140890666Y-57491380D02*
X140890666Y-58205666D01*
X140843047Y-58348523D01*
X140747809Y-58443761D01*
X140604952Y-58491380D01*
X140509714Y-58491380D01*
X141319238Y-57586619D02*
X141366857Y-57539000D01*
X141462095Y-57491380D01*
X141700190Y-57491380D01*
X141795428Y-57539000D01*
X141843047Y-57586619D01*
X141890666Y-57681857D01*
X141890666Y-57777095D01*
X141843047Y-57919952D01*
X141271619Y-58491380D01*
X141890666Y-58491380D01*
%TO.C,U1*%
X105156095Y-63384180D02*
X105156095Y-64193704D01*
X105203714Y-64288942D01*
X105251333Y-64336561D01*
X105346571Y-64384180D01*
X105537047Y-64384180D01*
X105632285Y-64336561D01*
X105679904Y-64288942D01*
X105727523Y-64193704D01*
X105727523Y-63384180D01*
X106727523Y-64384180D02*
X106156095Y-64384180D01*
X106441809Y-64384180D02*
X106441809Y-63384180D01*
X106346571Y-63527038D01*
X106251333Y-63622276D01*
X106156095Y-63669895D01*
%TO.C,J14*%
X62190476Y-88452380D02*
X62190476Y-89166666D01*
X62142857Y-89309523D01*
X62047619Y-89404761D01*
X61904761Y-89452380D01*
X61809523Y-89452380D01*
X63190476Y-89452380D02*
X62619047Y-89452380D01*
X62904761Y-89452380D02*
X62904761Y-88452380D01*
X62809523Y-88595238D01*
X62714285Y-88690476D01*
X62619047Y-88738095D01*
X64047619Y-88785714D02*
X64047619Y-89452380D01*
X63809523Y-88404761D02*
X63571428Y-89119047D01*
X64190476Y-89119047D01*
%TO.C,J10*%
X118190476Y-126782380D02*
X118190476Y-127496666D01*
X118142857Y-127639523D01*
X118047619Y-127734761D01*
X117904761Y-127782380D01*
X117809523Y-127782380D01*
X119190476Y-127782380D02*
X118619047Y-127782380D01*
X118904761Y-127782380D02*
X118904761Y-126782380D01*
X118809523Y-126925238D01*
X118714285Y-127020476D01*
X118619047Y-127068095D01*
X119809523Y-126782380D02*
X119904761Y-126782380D01*
X120000000Y-126830000D01*
X120047619Y-126877619D01*
X120095238Y-126972857D01*
X120142857Y-127163333D01*
X120142857Y-127401428D01*
X120095238Y-127591904D01*
X120047619Y-127687142D01*
X120000000Y-127734761D01*
X119904761Y-127782380D01*
X119809523Y-127782380D01*
X119714285Y-127734761D01*
X119666666Y-127687142D01*
X119619047Y-127591904D01*
X119571428Y-127401428D01*
X119571428Y-127163333D01*
X119619047Y-126972857D01*
X119666666Y-126877619D01*
X119714285Y-126830000D01*
X119809523Y-126782380D01*
%TO.C,R1*%
X123023333Y-62682380D02*
X122690000Y-62206190D01*
X122451904Y-62682380D02*
X122451904Y-61682380D01*
X122832857Y-61682380D01*
X122928095Y-61730000D01*
X122975714Y-61777619D01*
X123023333Y-61872857D01*
X123023333Y-62015714D01*
X122975714Y-62110952D01*
X122928095Y-62158571D01*
X122832857Y-62206190D01*
X122451904Y-62206190D01*
X123975714Y-62682380D02*
X123404285Y-62682380D01*
X123690000Y-62682380D02*
X123690000Y-61682380D01*
X123594761Y-61825238D01*
X123499523Y-61920476D01*
X123404285Y-61968095D01*
%TO.C,F1*%
X119268666Y-58928571D02*
X118935333Y-58928571D01*
X118935333Y-59452380D02*
X118935333Y-58452380D01*
X119411523Y-58452380D01*
X120316285Y-59452380D02*
X119744857Y-59452380D01*
X120030571Y-59452380D02*
X120030571Y-58452380D01*
X119935333Y-58595238D01*
X119840095Y-58690476D01*
X119744857Y-58738095D01*
%TO.C,J4*%
X99869666Y-51649380D02*
X99869666Y-52363666D01*
X99822047Y-52506523D01*
X99726809Y-52601761D01*
X99583952Y-52649380D01*
X99488714Y-52649380D01*
X100774428Y-51982714D02*
X100774428Y-52649380D01*
X100536333Y-51601761D02*
X100298238Y-52316047D01*
X100917285Y-52316047D01*
%TO.C,A2*%
X125371314Y-113882466D02*
X125847504Y-113882466D01*
X125276076Y-114168180D02*
X125609409Y-113168180D01*
X125942742Y-114168180D01*
X126228457Y-113263419D02*
X126276076Y-113215800D01*
X126371314Y-113168180D01*
X126609409Y-113168180D01*
X126704647Y-113215800D01*
X126752266Y-113263419D01*
X126799885Y-113358657D01*
X126799885Y-113453895D01*
X126752266Y-113596752D01*
X126180838Y-114168180D01*
X126799885Y-114168180D01*
%TO.C,J13*%
X77176380Y-55927523D02*
X77890666Y-55927523D01*
X78033523Y-55975142D01*
X78128761Y-56070380D01*
X78176380Y-56213238D01*
X78176380Y-56308476D01*
X78176380Y-54927523D02*
X78176380Y-55498952D01*
X78176380Y-55213238D02*
X77176380Y-55213238D01*
X77319238Y-55308476D01*
X77414476Y-55403714D01*
X77462095Y-55498952D01*
X77176380Y-54594190D02*
X77176380Y-53975142D01*
X77557333Y-54308476D01*
X77557333Y-54165619D01*
X77604952Y-54070380D01*
X77652571Y-54022761D01*
X77747809Y-53975142D01*
X77985904Y-53975142D01*
X78081142Y-54022761D01*
X78128761Y-54070380D01*
X78176380Y-54165619D01*
X78176380Y-54451333D01*
X78128761Y-54546571D01*
X78081142Y-54594190D01*
%TO.C,J8*%
X101666666Y-126782380D02*
X101666666Y-127496666D01*
X101619047Y-127639523D01*
X101523809Y-127734761D01*
X101380952Y-127782380D01*
X101285714Y-127782380D01*
X102285714Y-127210952D02*
X102190476Y-127163333D01*
X102142857Y-127115714D01*
X102095238Y-127020476D01*
X102095238Y-126972857D01*
X102142857Y-126877619D01*
X102190476Y-126830000D01*
X102285714Y-126782380D01*
X102476190Y-126782380D01*
X102571428Y-126830000D01*
X102619047Y-126877619D01*
X102666666Y-126972857D01*
X102666666Y-127020476D01*
X102619047Y-127115714D01*
X102571428Y-127163333D01*
X102476190Y-127210952D01*
X102285714Y-127210952D01*
X102190476Y-127258571D01*
X102142857Y-127306190D01*
X102095238Y-127401428D01*
X102095238Y-127591904D01*
X102142857Y-127687142D01*
X102190476Y-127734761D01*
X102285714Y-127782380D01*
X102476190Y-127782380D01*
X102571428Y-127734761D01*
X102619047Y-127687142D01*
X102666666Y-127591904D01*
X102666666Y-127401428D01*
X102619047Y-127306190D01*
X102571428Y-127258571D01*
X102476190Y-127210952D01*
%TO.C,J12*%
X57190476Y-126952380D02*
X57190476Y-127666666D01*
X57142857Y-127809523D01*
X57047619Y-127904761D01*
X56904761Y-127952380D01*
X56809523Y-127952380D01*
X58190476Y-127952380D02*
X57619047Y-127952380D01*
X57904761Y-127952380D02*
X57904761Y-126952380D01*
X57809523Y-127095238D01*
X57714285Y-127190476D01*
X57619047Y-127238095D01*
X58571428Y-127047619D02*
X58619047Y-127000000D01*
X58714285Y-126952380D01*
X58952380Y-126952380D01*
X59047619Y-127000000D01*
X59095238Y-127047619D01*
X59142857Y-127142857D01*
X59142857Y-127238095D01*
X59095238Y-127380952D01*
X58523809Y-127952380D01*
X59142857Y-127952380D01*
%TO.C,J3*%
X108378666Y-51649380D02*
X108378666Y-52363666D01*
X108331047Y-52506523D01*
X108235809Y-52601761D01*
X108092952Y-52649380D01*
X107997714Y-52649380D01*
X108759619Y-51649380D02*
X109378666Y-51649380D01*
X109045333Y-52030333D01*
X109188190Y-52030333D01*
X109283428Y-52077952D01*
X109331047Y-52125571D01*
X109378666Y-52220809D01*
X109378666Y-52458904D01*
X109331047Y-52554142D01*
X109283428Y-52601761D01*
X109188190Y-52649380D01*
X108902476Y-52649380D01*
X108807238Y-52601761D01*
X108759619Y-52554142D01*
%TO.C,J1*%
X119808666Y-51522380D02*
X119808666Y-52236666D01*
X119761047Y-52379523D01*
X119665809Y-52474761D01*
X119522952Y-52522380D01*
X119427714Y-52522380D01*
X120808666Y-52522380D02*
X120237238Y-52522380D01*
X120522952Y-52522380D02*
X120522952Y-51522380D01*
X120427714Y-51665238D01*
X120332476Y-51760476D01*
X120237238Y-51808095D01*
%TO.C,D2*%
X131341904Y-60466380D02*
X131341904Y-59466380D01*
X131580000Y-59466380D01*
X131722857Y-59514000D01*
X131818095Y-59609238D01*
X131865714Y-59704476D01*
X131913333Y-59894952D01*
X131913333Y-60037809D01*
X131865714Y-60228285D01*
X131818095Y-60323523D01*
X131722857Y-60418761D01*
X131580000Y-60466380D01*
X131341904Y-60466380D01*
X132294285Y-59561619D02*
X132341904Y-59514000D01*
X132437142Y-59466380D01*
X132675238Y-59466380D01*
X132770476Y-59514000D01*
X132818095Y-59561619D01*
X132865714Y-59656857D01*
X132865714Y-59752095D01*
X132818095Y-59894952D01*
X132246666Y-60466380D01*
X132865714Y-60466380D01*
X126738095Y-60436380D02*
X126738095Y-59436380D01*
X127309523Y-60436380D02*
X126880952Y-59864952D01*
X127309523Y-59436380D02*
X126738095Y-60007809D01*
%TO.C,A1*%
X118691114Y-96686666D02*
X119167304Y-96686666D01*
X118595876Y-96972380D02*
X118929209Y-95972380D01*
X119262542Y-96972380D01*
X120119685Y-96972380D02*
X119548257Y-96972380D01*
X119833971Y-96972380D02*
X119833971Y-95972380D01*
X119738733Y-96115238D01*
X119643495Y-96210476D01*
X119548257Y-96258095D01*
%TD*%
M02*
