M48
; DRILL file {KiCad (5.1.10)-1} date 08/21/21 13:40:35
; FORMAT={-:-/ absolute / inch / decimal}
; #@! TF.CreationDate,2021-08-21T13:40:35+02:00
; #@! TF.GenerationSoftware,Kicad,Pcbnew,(5.1.10)-1
FMAT,2
INCH
T1C0.0315
T2C0.0354
T3C0.0374
T4C0.0394
T5C0.0433
T6C0.0469
T7C0.0591
T8C0.1260
%
G90
G05
T1
X2.26Y-2.39
X2.39Y-2.858
X2.39Y-2.958
X2.39Y-3.058
X2.39Y-3.158
X2.39Y-3.258
X2.39Y-3.358
X2.5Y-4.09
X2.5Y-4.1687
X2.57Y-2.858
X2.57Y-3.258
X2.575Y-4.6984
X2.575Y-5.0984
X2.66Y-2.39
X2.714Y-2.98
X2.714Y-3.38
X2.715Y-4.58
X2.715Y-4.98
X2.85Y-4.985
X2.93Y-5.125
X2.9528Y-2.4803
X2.9528Y-2.5803
X2.9528Y-2.6803
X2.9528Y-2.7803
X2.9528Y-2.8803
X2.9528Y-2.9803
X2.9528Y-3.0803
X2.9528Y-3.1803
X2.9528Y-3.2803
X2.9528Y-3.3803
X2.9528Y-3.4803
X2.9528Y-3.5803
X2.9528Y-3.6803
X2.9528Y-3.7803
X2.9528Y-3.8803
X2.9528Y-3.9803
X2.9528Y-4.0803
X2.9528Y-4.1803
X2.9528Y-4.2803
X2.9528Y-4.3803
X2.9528Y-4.4803
X2.9528Y-4.5803
X2.9528Y-4.6803
X2.9528Y-4.7803
X3.25Y-4.985
X3.33Y-5.125
X3.39Y-2.858
X3.39Y-2.958
X3.39Y-3.058
X3.39Y-3.158
X3.39Y-3.258
X3.39Y-3.358
X3.5528Y-2.4803
X3.5528Y-2.5803
X3.5528Y-2.6803
X3.5528Y-2.7803
X3.5528Y-2.8803
X3.5528Y-2.9803
X3.5528Y-3.0803
X3.5528Y-3.1803
X3.5528Y-3.2803
X3.5528Y-3.3803
X3.5528Y-3.4803
X3.5528Y-3.5803
X3.5528Y-3.6803
X3.5528Y-3.7803
X3.5528Y-3.8803
X3.5528Y-3.9803
X3.5528Y-4.0803
X3.5528Y-4.1803
X3.5528Y-4.2803
X3.5528Y-4.3803
X3.5528Y-4.4803
X3.5528Y-4.5803
X3.5528Y-4.6803
X3.5528Y-4.7803
X3.8Y-2.4606
X3.8Y-2.8606
X3.937Y-2.95
X4.0Y-2.5613
X4.0Y-2.64
X4.0638Y-3.8976
X4.0638Y-4.3976
X4.13Y-3.6016
X4.13Y-3.7
X4.1638Y-3.8976
X4.1638Y-4.3976
X4.2638Y-3.8976
X4.2638Y-4.3976
X4.2813Y-2.42
X4.337Y-2.95
X4.36Y-2.42
X4.3638Y-3.8976
X4.3638Y-4.3976
X4.4638Y-3.8976
X4.4638Y-4.3976
X4.5276Y-2.9528
X4.5276Y-3.3528
X4.5638Y-3.8976
X4.5638Y-4.3976
X4.6638Y-3.8976
X4.6638Y-4.3976
X4.685Y-2.9528
X4.685Y-3.3528
X4.75Y-2.4
X4.75Y-2.8
X4.7638Y-3.8976
X4.7638Y-4.3976
X4.8425Y-2.9528
X4.8425Y-3.3528
X4.9724Y-4.5756
X4.9724Y-4.6756
X4.9724Y-4.7756
X4.9724Y-4.8756
X4.9724Y-4.9756
X4.9724Y-5.0756
X4.9724Y-5.1756
X4.9724Y-5.2756
X5.0Y-2.9528
X5.0Y-3.3528
X5.2165Y-4.3701
X5.315Y-4.3701
X5.4724Y-4.5756
X5.4724Y-4.6756
X5.4724Y-4.7756
X5.4724Y-4.8756
X5.4724Y-4.9756
X5.4724Y-5.0756
X5.4724Y-5.1756
X5.4724Y-5.2756
T2
X2.41Y-2.55
X2.41Y-2.65
X4.98Y-2.64
X4.98Y-2.74
T3
X5.7087Y-3.794
X5.7087Y-3.8924
X5.7087Y-3.9909
X5.7087Y-4.0893
X5.7087Y-4.685
X5.7087Y-4.7835
X5.7087Y-4.8819
X5.7087Y-4.9803
T4
X2.4984Y-3.622
X2.4984Y-3.722
X2.4984Y-3.822
X2.4984Y-3.922
X2.5984Y-3.622
X2.5984Y-3.722
X2.5984Y-3.822
X2.5984Y-3.922
X2.64Y-2.54
X2.64Y-2.64
X2.64Y-2.74
X3.41Y-4.58
X4.0157Y-4.7213
X4.0157Y-4.8213
X4.0157Y-4.9213
X4.28Y-2.64
X4.3701Y-4.7213
X4.3701Y-4.8213
X4.3701Y-4.9213
X4.38Y-2.64
X4.43Y-2.1654
X4.48Y-2.64
X4.63Y-2.1654
X4.685Y-4.7213
X4.685Y-4.8213
X4.685Y-4.9213
T5
X5.0Y-2.46
X5.4Y-2.46
T6
X2.3622Y-4.5063
X2.3622Y-4.6063
X2.3622Y-4.7063
X2.3622Y-4.8063
X2.3622Y-4.9063
X2.6559Y-2.1654
X2.685Y-5.335
X2.7559Y-2.1654
X2.785Y-5.335
X2.8559Y-2.1654
X2.885Y-5.335
X2.9559Y-2.1654
X2.985Y-5.335
X3.085Y-5.335
X3.4843Y-5.33
X3.5843Y-5.33
X3.6843Y-5.33
X3.7386Y-2.1654
X3.7843Y-5.33
X3.8386Y-2.1654
X3.95Y-3.2
X4.05Y-3.2
X4.0732Y-2.1654
X4.1732Y-2.1654
X5.3Y-2.9
X5.3Y-3.3
X5.4Y-2.9
X5.4Y-3.3
X5.65Y-2.9
X5.65Y-3.3
X5.75Y-2.9
X5.75Y-3.3
T7
X4.8622Y-2.1654
X5.0Y-2.1654
X5.284Y-2.1654
X5.4218Y-2.1654
T8
X2.3622Y-2.1654
X2.3622Y-5.315
X5.7087Y-2.1654
X5.7087Y-5.315
T0
M30
